<svg id="Шар_1" data-name="Шар 1" xmlns="http://www.w3.org/2000/svg" viewBox="0 0 548.21 615.74"><path d="M119.39,228.11a6,6,0,0,1-.35-3.84C139.1,143.79,225.77,51.5,254.74,51,284,50.5,305.5,166.5,305.5,166.5l51,2s69-90,95-81,37,43,16,163c0,0,26.06,94.7,11,156.35,0,0,81,87.65,80,92.65s12,12-29,61-89,37-89,37-34-6-55-20c0,0-36,39-56,81s-273-107-317-234c0,0,21-103,71-141C125.1,251.89,121.71,233.42,119.39,228.11Z" transform="translate(-11.98 -50.5)" style="fill:#361d32;stroke:#1d1d1b;stroke-miterlimit:10"/><path d="M405.5,189.14A11.32,11.32,0,0,1,402,175.07c9.74-20.18,37.08-74.09,48.49-67.57,14,8,17,32,6,129,0,0-12,8-9-11s13-23,8-39-12-25-15-22-3,36-19,32A46,46,0,0,1,405.5,189.14Z" transform="translate(-11.98 -50.5)" style="fill:#fff;stroke:#1d1d1b;stroke-miterlimit:10"/><path d="M257.43,201.16c8.07-5.35,18.44-13.44,31-25.61a1.53,1.53,0,0,0,.46-1.28c-1-7.51-9.08-68.94-25.39-95A13.79,13.79,0,0,0,243,76c-14.24,11.86-41.15,36.64-57.48,66.46-22,40.2-49.52,76.73-51,104.34a9.4,9.4,0,0,1-3,6.38c-12.93,12.14-63.81,61.29-55.07,75.28,10,16-14,54-12,61s31,83,52,85,1,21.39,1,25c0,2,100,89,105,110s101,46,106,35,11-46.77,32.79-59.87a1.67,1.67,0,0,0,.39-.36c1-1.31,5.09-7.77-10.18-7.77-17,0-44.72-5.15-53.86-22.07-8.49-15.73-45.35-22-50.53-22.84a1.46,1.46,0,0,1-1-.63c-1.77-2.68-7.8-14.29,21.18-13.47a1.35,1.35,0,0,1,.4.08c2.87,1,36.79,13,62.61,38.73a.9.9,0,0,1,.23.4c.28,1.31,3.45,8.65,39.23,7.16a1.52,1.52,0,0,0,.57-2.9c-16-7-57.76-28.44-62.79-62.18a1.5,1.5,0,0,1,0-.56c.48-2.09,4-14.85,15.94-4.72,13,11,4,27,58,57,44.05,24.47,94.75,7.69,111.94.67a4.1,4.1,0,0,0,1.27-6.78c-5.52-5.15-13-13.82-6.21-17.89,10-6,8,2,23-5s-3-18-9-15-4,8-14,10-11-3-12-6-8-37,20-35c9.44.67,15.58.55,19.58.1a4,4,0,0,0,2-7.21c-15.61-12-59.8-47.36-65.55-67.89-7-25-3-35,1-38,3.25-2.44,5.43-6.4,10.59-5.84a3.84,3.84,0,0,0,4.19-3.87c0-10.77-1.11-36.64-10.65-56.92-6.07-12.89-25.2-10.55-27.9,3.44-3.68,19-4.26,47.8,10.13,83.62a1.51,1.51,0,0,1-1.27,2.07c-4.59.43-16.59-3.18-26.09-47.5-12-56-31-54-42-52s-31,33-58,32-39,5-41,5,0,28,59,18,48,31,45,33-10,19-48,2-14-26-66-39-129,21-137,33-8,28-1,35,109,73,128,68,24,10,22,11,1,11-28,13-97-53-118-62-36,1-35-9c1-9.49,1-53.23,1-57.64a1.37,1.37,0,0,1,.18-.69c1.72-3.12,15.85-27.38,46.43-40.5a1.4,1.4,0,0,0,.62-.51C144.25,321,188,257.09,222.5,247.5c28.44-7.9-3-15.8-17.5-18.77a9.19,9.19,0,0,1-7.32-8.12C196,203.28,194.1,157.5,216.5,133.5c19.87-21.29,21.61,26.91,20.95,56.7A12.84,12.84,0,0,0,257.43,201.16Z" transform="translate(-11.98 -50.5)" style="fill:#fff;stroke:#1d1d1b;stroke-miterlimit:10"/><ellipse cx="324.02" cy="308.5" rx="15.5" ry="9.5" style="fill:#fff;stroke:#1d1d1b;stroke-miterlimit:10"/><circle cx="326.02" cy="305.5" r="6" style="fill:#361d32;stroke:#1d1d1b;stroke-miterlimit:10;stroke-width:1.85164019954503px"/></svg>