 <!DOCTYPE svg PUBLIC "-//W3C//DTD SVG 1.1//EN" "http://www.w3.org/Graphics/SVG/1.1/DTD/svg11.dtd">
<svg xmlns="http://www.w3.org/2000/svg" width="865.76" height="682.89" viewBox="0 0 865.76 682.89">
<defs>
<style xmlns="http://www.w3.org/1999/xhtml">*, ::after, ::before { box-sizing: border-box; }
img, svg { vertical-align: middle; }
</style>
<style xmlns="http://www.w3.org/1999/xhtml">*, body, html { -webkit-font-smoothing: antialiased; }
img, svg { max-width: 100%; }
</style>
</defs>
<ellipse cx="441.36" cy="594.15" rx="53.89" ry="180.1" transform="translate(-162.01 1022.82) rotate(-88.79)" fill="#0071f2" data-primary="true"/>
<ellipse cx="441.36" cy="594.15" rx="53.89" ry="180.1" transform="translate(-162.01 1022.82) rotate(-88.79)" fill="#fff" opacity="0.7"/>
<path d="M120,409.16S32.26,326.32,80.49,216.33a189,189,0,0,1,62-76.45C202.87,95.81,355.61,8.6,585.38,42.29a171.32,171.32,0,0,1,69.2,26C688.3,90.39,724.05,131,708.84,200.66c-5.37,24.61-4.16,50.28,4.7,73.86,8.78,23.37,25.4,52,56.35,83,0,0,66,63.71,1.8,118.85A117.2,117.2,0,0,1,724.3,500.7C644.3,521.2,320.81,589.18,120,409.16Z" fill="#0071f2" data-primary="true"/>
<path d="M120,409.16S32.26,326.32,80.49,216.33a189,189,0,0,1,62-76.45C202.87,95.81,355.61,8.6,585.38,42.29a171.32,171.32,0,0,1,69.2,26C688.3,90.39,724.05,131,708.84,200.66c-5.37,24.61-4.16,50.28,4.7,73.86,8.78,23.37,25.4,52,56.35,83,0,0,66,63.71,1.8,118.85A117.2,117.2,0,0,1,724.3,500.7C644.3,521.2,320.81,589.18,120,409.16Z" fill="#fff" opacity="0.7"/>
<path d="M394.8,218.93l-98.47,7.57a3.92,3.92,0,0,1-4.23-3.9l-.19-105.31a5.45,5.45,0,0,1,5.46-5.46h96.09a4.72,4.72,0,0,1,4.73,4.64l1.62,96.95A5.43,5.43,0,0,1,394.8,218.93Z" fill="#fff" opacity="0.3"/>
<path d="M296,227a4.41,4.41,0,0,1-4.43-4.41l-.19-105.31a5.94,5.94,0,0,1,6-6h96.09a5.25,5.25,0,0,1,5.23,5.13l1.62,97a5.94,5.94,0,0,1-5.48,6l0-.5,0,.5L296.36,227Zm1.34-114.68a5,5,0,0,0-5,5l.19,105.31a3.43,3.43,0,0,0,1.1,2.5,3.39,3.39,0,0,0,2.59.9l98.47-7.57a4.92,4.92,0,0,0,4.55-5l-1.62-96.95a4.24,4.24,0,0,0-4.23-4.15Z" fill="#0071f2" data-primary="true"/>
<path d="M285.93,282.12V387.83a5.83,5.83,0,0,1-4.73,5.73L161.31,416.67a2.87,2.87,0,0,1-3.41-2.82V297a4.69,4.69,0,0,1,4.18-4.66L282.6,279.13A3,3,0,0,1,285.93,282.12Z" fill="#fff" opacity="0.3"/>
<path d="M160.76,417.22a3.38,3.38,0,0,1-2.14-.77,3.35,3.35,0,0,1-1.22-2.6V297a5.19,5.19,0,0,1,4.63-5.16l120.52-13.15a3.49,3.49,0,0,1,3.88,3.48V387.83a6.34,6.34,0,0,1-5.14,6.22L161.4,417.16A3.47,3.47,0,0,1,160.76,417.22Zm122.16-137.6h-.27L162.13,292.78A4.19,4.19,0,0,0,158.4,297v116.9a2.37,2.37,0,0,0,2.81,2.33L281.1,393.07a5.34,5.34,0,0,0,4.33-5.24V282.12a2.5,2.5,0,0,0-2.51-2.5Z" fill="#0071f2" data-primary="true"/>
<path d="M291.25,283.24V388.05a3.49,3.49,0,0,0,4.19,3.42l99.9-20.42a4.44,4.44,0,0,0,3.56-4.35V271a4.67,4.67,0,0,0-5.25-4.63l-98.3,12.26A4.68,4.68,0,0,0,291.25,283.24Z" fill="#fff" opacity="0.3"/>
<path d="M294.74,392a4,4,0,0,1-4-4V283.24a5.17,5.17,0,0,1,4.53-5.13l98.29-12.27A5.18,5.18,0,0,1,399.4,271v95.72a5,5,0,0,1-4,4.85L295.54,392A4.26,4.26,0,0,1,294.74,392ZM394.22,266.8l-.51,0-98.3,12.27a4.18,4.18,0,0,0-3.65,4.14V388.05a3,3,0,0,0,3.58,2.93l99.9-20.42a4,4,0,0,0,3.16-3.87V271a4.18,4.18,0,0,0-4.18-4.17Z" fill="#0071f2" data-primary="true"/>
<path d="M398.89,354.68v12a4.44,4.44,0,0,1-3.55,4.36l-94.45,19.27c1-13,6.22-21,6.22-21a39.78,39.78,0,0,1,16.3-12.4,53.7,53.7,0,0,1,15.64-4.16l3.06-.58,22.28-4.26,24.72-3.15C396.32,345.21,398.89,354.68,398.89,354.68Z" fill="#0071f2" data-primary="true"/>
<path d="M332.76,383.82c-7.14-7.5-3.71-30.06-3.71-30.06h2s2.21,19.37,9.53,28.47Z" opacity="0.2"/>
<path d="M342.11,333.33v19.5l-3.21.5s6,12,11,16c0,0,8-12.82,14.5-21.41l.5-25.84S358.05,333.76,342.11,333.33Z" fill="#f9b499"/>
<path d="M342.11,332.33v7.92s9.94,1.59,15.37-10.67C357.48,329.58,352.33,333.33,342.11,332.33Z" fill="#f7a48b"/>
<path d="M255.34,366.9l20.47-.44a5.38,5.38,0,0,1,4.25,1.92l4.24,5a6.85,6.85,0,0,1,1.6,4.39V388.9s1,3.43-8,5.43l-20.14,3.24L167.9,415.33s-3.11-31.36,38.94-40.18Z" fill="#0071f2" data-primary="true"/>
<path d="M342.11,332.32v19.86l-3.06.58a53.7,53.7,0,0,0-15.64,4.16V336.54L319.82,335l-1.17-27.63C325.4,331.32,342.11,332.32,342.11,332.32Z" fill="#2f2e41" data-secondary="true"/>
<path d="M382.4,345.7l-18,2.22.5-25.84a45.92,45.92,0,0,0,6.79-13.33s6.21,3.15,10.71-4.14Z" fill="#2f2e41" data-secondary="true"/>
<path d="M382.4,345.7l-18,2.22.5-25.84a45.92,45.92,0,0,0,6.79-13.33s6.21,3.15,10.71-4.14Z" opacity="0.2"/>
<path d="M393.4,208.83a8.7,8.7,0,0,0-1.5-3.5s-3.5-.5-3.55,2.6Z" fill="#2f2e41" data-secondary="true"/>
<path d="M393.4,208.83a8.7,8.7,0,0,0-1.5-3.5s-3.5-.5-3.55,2.6Z" opacity="0.2"/>
<path d="M301.05,225.76,395,218.67a5.29,5.29,0,0,0,4.93-5.28v-8.07a5.29,5.29,0,0,0-1.11-3.24l-7.49-9.66a1.33,1.33,0,0,0-1-.51l-19.41-.58-36.49-.7S302.05,197.76,301.05,225.76Z" fill="#0071f2" data-primary="true"/>
<polygon points="341.9 172.32 341.9 182.39 348.9 188.32 363.96 180.32 363.96 161.04 341.9 172.32" fill="#f9b499"/>
<path d="M341.9,172.33v10.06s17.63-3.58,22.07-19.07Z" fill="#f7a48b"/>
<path d="M551.71,549c-3.59.9-10.19,1.59-16.38,2.08-7.62.62-14.62.92-14.62.92a10.8,10.8,0,0,1-.93-1.66c-6.68-14-13.07-73.34-13.07-73.34-6-53-12-86-12-86,0,8-10,100-10,100l-8.79,59.59-.21,1.41a113.33,113.33,0,0,1-12.54.69A102.58,102.58,0,0,1,443.71,551l0-1,2-57c-1-55,12.44-152,12.44-152h75.2c4.64,6,9.36,51,9.36,51l6,84,2.94,71.66Z" fill="#2f2e41" data-secondary="true"/>
<path d="M494.71,391c0,8-10,100-10,100l-9,61a113.33,113.33,0,0,1-12.54.69c1.57-10.46,2.71-23.3,3.23-29.68a47.67,47.67,0,0,0,0-7.17A51.17,51.17,0,0,1,470.71,492c3-8,5-16,5-16l2-18,8.5-69.19C489.71,365.57,494.71,391,494.71,391Z" opacity="0.2"/>
<path d="M551.71,549c-3.59.9-10.19,1.59-16.38,2.08-4.46-14.19-3.62-30.08-3.62-30.08,1-29-3-42-3-42-5-36-5.17-72.5-5.17-72.5.83-24.49-2.83-29.5-2.83-29.5-13.79-18.2-17.69-29.52-18.41-36h31.05c4.64,6,9.36,51,9.36,51l6,84Z" opacity="0.2"/>
<path d="M454.08,258.41A55.9,55.9,0,0,1,437,256.17h0a49.5,49.5,0,0,1-6.28-2.21c4.92-31.5,18.56-45.56,19-46a0,0,0,0,0,0,0C456.4,229.83,454.08,258.41,454.08,258.41Z" fill="#0071f2" data-primary="true"/>
<path d="M454.08,258.41A55.9,55.9,0,0,1,437,256.17h0a49.5,49.5,0,0,1-6.28-2.21c4.92-31.5,18.56-45.56,19-46a0,0,0,0,0,0,0C456.4,229.83,454.08,258.41,454.08,258.41Z" opacity="0.2"/>
<path d="M437.25,256.22l-.23-.05h0a49.5,49.5,0,0,1-6.28-2.21c4.92-31.5,18.56-45.56,19-46C449.3,208.85,435.82,238.76,437.25,256.22Z" opacity="0.2"/>
<path d="M556.71,230c0,33-6,30-6,30l-5,1-5.47,20.93L533.35,341H457.3a1.63,1.63,0,0,1-1.63-1.58l-2-71.42c2-34-4-60-4-60,8-8,18.7-12.72,18.7-12.72l43.79-3.91c11.55,1,22.39,5.8,27.84,8.6a28,28,0,0,1,11.84,11.35A43.79,43.79,0,0,1,556.71,230Z" fill="#0071f2" data-primary="true"/>
<path d="M540.24,281.88,533.35,341H506.84c3.94-2,9.92-6.13,11.87-13.57,0,0,5.19-13.23,11.59-20.83,0,0,5.51-11.18,2-19.39Z" opacity="0.2"/>
<ellipse cx="505.21" cy="162.45" rx="5.5" ry="7.5" fill="#f9b499"/>
<ellipse cx="484.21" cy="155.34" rx="21.63" ry="30.5" transform="translate(-10.18 36.3) rotate(-4.25)" fill="#f9b499"/>
<path d="M459.31,134.18s.4-6.23,3.4-8.23c0,0-1.42,1-4.21,0,0,0,6.75-1.64,10.24-4.93a20.69,20.69,0,0,1,5.49-3.67,27.91,27.91,0,0,1,26.48,1.6s2-4,0-5.5c0,0,9,3.5,11,11.5,0,0,15.48,2.21,6.74,19.11a21.29,21.29,0,0,0-7.05-1.23S509.48,133,498.1,133L464.71,133A23.93,23.93,0,0,0,459.31,134.18Z" fill="#2f2e41" data-secondary="true"/>
<path d="M510.4,143.83s4.79-1.67,8.05.23c0,0,2.15-4.1,2.21-5.61,0,0-4.95-6.5-10.95-5.5,0,0,0-8-4-10,0,0,.72,4.61-.64,5.8,0,0-15.57-10.54-28-2.67,0,0-5.4.87-6.4-.13,0,0,0,2,5,2,0,0-5,3-5,5l27.39,0S507.33,134.83,510.4,143.83Z" opacity="0.2"/>
<path d="M510.71,142h1.93a9.07,9.07,0,0,1,9.07,9.07v1.86a9.07,9.07,0,0,1-9.07,9.07h-1.93a0,0,0,0,1,0,0V142A0,0,0,0,1,510.71,142Z" fill="#0071f2" data-primary="true"/>
<path d="M510.71,142h1.93a9.07,9.07,0,0,1,9.07,9.07v1.86a9.07,9.07,0,0,1-9.07,9.07h-1.93a0,0,0,0,1,0,0V142A0,0,0,0,1,510.71,142Z" opacity="0.2"/>
<path d="M512.71,193.55s-15.36,19.33-36.68,8.37v-19c19.32,11,27.8-13.21,27.8-13.21a3.46,3.46,0,0,0,3.33-.26l2.53,11Z" fill="#f9b499"/>
<path d="M509.69,180.46c-5.73,5.66-17.38,14.66-33.66,14.77V182.92c19.32,11,27.8-13.21,27.8-13.21a3.46,3.46,0,0,0,3.33-.26Z" fill="#f7a48b"/>
<path d="M550.71,260S527.63,320,509.69,299c-17-19.93-28.22-73.83-28.22-73.83-8.24-1.76-9.76-14.24-9.76-14.24a25.66,25.66,0,0,1-2.83-.87,3.68,3.68,0,0,1-2.39-3.41,3.48,3.48,0,0,1,.38-1.59,12.83,12.83,0,0,1,3.84-4.13s-4-2.39-2-6.46a6.62,6.62,0,0,1,1.87-2.24l4.12-3.3s-2-6,2-8c0,0,4-2,11,9,0,0,6.3,7.86,5.15,28.93,0,0,.85,11.07,6.85,17.07l15.69,20.88,3.31-5.88a159.05,159.05,0,0,1,22.21,5A57.67,57.67,0,0,1,550.71,260Z" fill="#f9b499"/>
<path d="M550.71,260S527.63,320,509.69,299c-17-19.93-28.22-73.83-28.22-73.83-8.24-1.76-9.76-14.24-9.76-14.24a25.66,25.66,0,0,1-2.83-.87,3.68,3.68,0,0,1-2.39-3.41s5.86,2.57,9.54,1.92c0,0-1.34,9.65,8.17,13.5,0,0,11.51,68.86,32.51,66.86,0,0,18.41-4,24.21-33A57.67,57.67,0,0,1,550.71,260Z" fill="#f7a48b"/>
<path d="M470.71,201a5.3,5.3,0,0,1,2.82.09,8.41,8.41,0,0,1,2.55,1.25,9.73,9.73,0,0,1,2,2,13.1,13.1,0,0,1,.8,1.15c.21.42.43.83.6,1.26-.36-.31-.67-.64-1-1l-1-.93a24.91,24.91,0,0,0-2-1.68A11.8,11.8,0,0,0,470.71,201Z" fill="#f7a48b"/>
<path d="M474.71,189a8.71,8.71,0,0,1,3.16.87,12.07,12.07,0,0,1,2.76,1.81,12.56,12.56,0,0,1,2.17,2.49,11.13,11.13,0,0,1,1.41,2.95c-.7-.85-1.32-1.7-2-2.48a21.85,21.85,0,0,0-2.21-2.2,20,20,0,0,0-2.48-1.89A22.59,22.59,0,0,0,474.71,189Z" fill="#f7a48b"/>
<path d="M502.1,287.41,464.71,301c-15,4-23,2.52-23,2.52-19.95-5.47-10-42.15-10-42.15,1.63.35,3.26.64,4.85.88a107.63,107.63,0,0,0,17.33,1.17l-.11,8.41c3.1-1.16,39.57-4.58,39.57-4.58,1.1,3.42,4.46,11,6.67,15.81C501.25,285.6,502.1,287.41,502.1,287.41Z" fill="#f9b499"/>
<path d="M502.1,287.41,464.71,301c-15,4-23,2.52-23,2.52-19.95-5.47-10-42.15-10-42.15,1.63.35,3.26.64,4.85.88L435.71,281c2,24,35,12,35,12L500.06,283C501.25,285.6,502.1,287.41,502.1,287.41Z" fill="#f7a48b"/>
<path d="M518.71,246s26.57,3.37,35.29,10.69c0,0,7.06-28-2.11-45.37C551.89,211.27,528.71,204,518.71,246Z" fill="#0071f2" data-primary="true"/>
<path d="M518.71,246s26.57,3.37,35.29,10.69c0,0,7.06-28-2.11-45.37C551.89,211.27,528.71,204,518.71,246Z" opacity="0.2"/>
<path d="M518.71,246a6.93,6.93,0,0,0,0,5s24,4,32,9c0,0,2.57.37,3.29-3.31C554,256.64,544.71,249,518.71,246Z" fill="#2f2e41" data-secondary="true"/>
<path d="M513.4,253.92s4.08-8,21.7-1c0,0,8.63,2.73,5.62,8.36,0,0,1.87,5-3.07,6.82,0,0,2.59,3.22-.87,7.62a3.23,3.23,0,0,1-4.51.65,8.33,8.33,0,0,1-1.91-2.29A23.86,23.86,0,0,0,528,271Z" fill="#f9b499"/>
<path d="M530.31,261.32a10.37,10.37,0,0,1,2.34,1.08,14.71,14.71,0,0,1,2.08,1.51,9.31,9.31,0,0,1,2.92,4.23c-.59-.64-1.16-1.23-1.75-1.81s-1.2-1.12-1.83-1.67C532.84,263.57,531.55,262.52,530.31,261.32Z" fill="#f7a48b"/>
<path d="M531.63,255.07a19.51,19.51,0,0,1,5.07,2.35,16.81,16.81,0,0,1,2.25,1.7,7.13,7.13,0,0,1,1.77,2.2,26.21,26.21,0,0,0-2.25-1.59l-2.31-1.47A47,47,0,0,1,531.63,255.07Z" fill="#f7a48b"/>
<path d="M513.4,253.92s13.6,15.36,17,20.2c0,0,1.46,1.74,1.91,2.29,0,0-.56-8.46-5.56-12.46l-11.82-11.67A7.21,7.21,0,0,0,513.4,253.92Z" fill="#f7a48b"/>
<path d="M478.71,555.13v16.64a5.17,5.17,0,0,1-3.13,4.75,5,5,0,0,1-2.05.43H441.89a5.19,5.19,0,0,1-5.18-5.18V555.13a5.18,5.18,0,0,1,5.18-5.18h1.85l0,1a102.58,102.58,0,0,0,19.46,1.69,113.33,113.33,0,0,0,12.54-.69l.21-1.41A5.16,5.16,0,0,1,478.71,555.13Z" fill="#0071f2" data-primary="true"/>
<path d="M478.71,555.13v16.64a5.18,5.18,0,0,1-5.18,5.18H461.6c-1.76-6.69,1.57-10.59,1.57-10.59,1.46-5.58,0-7,0-7-2.54-5.54,0-6.77,0-6.77a113.33,113.33,0,0,0,12.54-.69l.21-1.41A5.16,5.16,0,0,1,478.71,555.13Z" opacity="0.2"/>
<path d="M557.45,569.91a2.29,2.29,0,0,1-2.09,2.47L536.21,574l-17.14,1.45a2.29,2.29,0,0,1-2.47-2.09L514.88,553a2.29,2.29,0,0,1,2.09-2.47l2.81-.24a10.8,10.8,0,0,0,.93,1.66s6.22-.27,13.31-.82l1.31-.1c6.19-.49,12.79-1.18,16.38-2.08l-.06-1.34,1.62-.14a2.29,2.29,0,0,1,2.47,2.09Z" fill="#0071f2" data-primary="true"/>
<path d="M557.45,569.91a2.29,2.29,0,0,1-2.09,2.47L536.21,574c-.08-6.74-1.54-18.11-2.19-22.86l1.31-.1c6.19-.49,12.79-1.18,16.38-2.08l-.06-1.34,1.62-.14a2.29,2.29,0,0,1,2.47,2.09Z" opacity="0.2"/>
<path d="M543.37,605H510.11a5.31,5.31,0,0,1-4.58-2.62,8,8,0,0,1-1.1-4.31c.16-7.23,9.28-14.07,9.28-14.07,7-4,8.08-8.74,8.08-8.74l20.75-1.75,9.17-.77,5,12.26c.06.15.12.3.17.45A14.43,14.43,0,0,1,543.37,605Z" fill="#2f2e41" data-secondary="true"/>
<path d="M543.37,605H510.11a5.31,5.31,0,0,1-4.58-2.62,8,8,0,0,1-1.1-4.31c12.07,5.16,32.28,1.93,32.28,1.93,15-3,9-12.93,9-12.93l-3.2-13.56,9.17-.77,5,12.26c.06.15.12.3.17.45A14.43,14.43,0,0,1,543.37,605Z" opacity="0.2"/>
<path d="M475.71,595c1,8-11,6.82-11,6.82H426c-12.74-.19-12.27-5.82-12.27-5.82,0-.59,0-1.16.05-1.7.78-12.3,9.95-12.3,9.95-12.3,8-1,14.53-6.5,14.53-6.5h0a5.15,5.15,0,0,0,3.64,1.5h31.64a5,5,0,0,0,2.05-.43l.19.43Z" fill="#2f2e41" data-secondary="true"/>
<path d="M475.71,595c1,8-11,6.82-11,6.82H426c-12.74-.19-12.27-5.82-12.27-5.82,0-.59,0-1.16.05-1.7,7.44.68,26.95,2.08,41.11-.3,0,0,13.84,0,12.84-10l0-7h5.79a5,5,0,0,0,2.05-.43l.19.43Z" opacity="0.2"/>
<polygon points="219.9 374.32 219.9 348.63 244.38 341.55 244.38 368.29 229.9 380.32 219.9 374.32" fill="#f9b499"/>
<polygon points="219.9 370.44 213.9 373.32 224.9 404.32 235.9 402.32 247.9 369.32 244.38 366.4 244.38 368.29 229.9 380.32 219.9 374.32 219.9 370.44" fill="#0071f2" data-primary="true"/>
<polygon points="219.9 370.44 213.9 373.32 224.9 404.32 235.9 402.32 247.9 369.32 244.38 366.4 244.38 368.29 229.9 380.32 219.9 374.32 219.9 370.44" fill="#fff" opacity="0.56"/>
<path d="M219.9,348.63v12.31s17.95-2.16,24.47-19.39Z" fill="#f7a48b"/>
<path d="M219.9,364s-16.08,10.35-15,16.35l-2,28,22-4-11-31,6-2.89Z" fill="#2f2e41" data-secondary="true"/>
<path d="M247.9,369.33l-3.53-2.93v-5.46l11,6a3.25,3.25,0,0,1,1.68,2.62l1.88,27.81-23,5Z" fill="#2f2e41" data-secondary="true"/>
<path d="M374.9,288.33c0,24.85-11.85,44.43-29.5,45-17.34.55-29.5-20.15-29.5-45s13.21-45,29.5-45S374.9,263.47,374.9,288.33Z" fill="#f9b499"/>
<ellipse cx="379" cy="289.72" rx="20.53" ry="10" transform="translate(-9.84 566.09) rotate(-72.8)" fill="#f9b499"/>
<path d="M323.54,258.11s8.36-4.78,17.36,4.22c0,0,11-13,24-4v73.19l7-2.19L374,277.05s6.29-9.16,11.11-6.94c0,0,3.1-25.92-23.38-31.26a43.7,43.7,0,0,0-13.93-.42C338.24,239.59,321.85,243.68,323.54,258.11Z" fill="#2f2e41" data-secondary="true"/>
<path d="M342.11,340.25s-8.21-2.92-13.21-.92c0,0,1.36,30.8,11.68,42.9l23.82-4.86s16.36-29.65,13.93-45.85c0,0-9,1.69-13.74,6.25l-.19,10.15-14.5,21.41a60.41,60.41,0,0,1-11-16l3.21-.5Z" fill="#0071f2" data-primary="true"/>
<path d="M342.11,340.25s-8.21-2.92-13.21-.92c0,0,1.36,30.8,11.68,42.9l23.82-4.86s16.36-29.65,13.93-45.85c0,0-9,1.69-13.74,6.25l-.19,10.15-14.5,21.41a60.41,60.41,0,0,1-11-16l3.21-.5Z" fill="#fff" opacity="0.56"/>
<path d="M371.1,340.32a94.43,94.43,0,0,0-7.68,9.53c-2.37,3.33-4.74,6.65-7,10.06s-4.5,6.81-6.57,10.32c-1,1.76-2,3.54-2.86,5.39a16.28,16.28,0,0,0-1.8,5.79,9.54,9.54,0,0,1,.38-3.05,25.13,25.13,0,0,1,1-2.93,59.08,59.08,0,0,1,2.64-5.57c1.94-3.63,4.16-7.08,6.41-10.51s4.7-6.72,7.21-10c1.26-1.61,2.52-3.24,3.92-4.74S369.58,341.7,371.1,340.32Z" fill="#fff" opacity="0.56"/>
<path d="M336,344.77a69.85,69.85,0,0,0,2.59,6.62c1,2.15,2,4.27,3.2,6.31a67.55,67.55,0,0,0,3.76,6c1.33,2,2.85,3.77,4.35,5.64-.89-.8-1.78-1.6-2.61-2.47s-1.61-1.76-2.35-2.71a41.12,41.12,0,0,1-4-5.95,45.4,45.4,0,0,1-3-6.52c-.41-1.13-.78-2.26-1.12-3.41A30.34,30.34,0,0,1,336,344.77Z" fill="#fff" opacity="0.56"/>
<path d="M364.4,377.37l8.32-1.7s7.6-21.32,5.39-29.33H377S371.9,364.41,364.4,377.37Z" opacity="0.2"/>
<path d="M341.9,182.39l7,5.94,15.07-8v-5.65c8.06-.64,6.93,1.65,6.93,1.65v7.34c5,4.35,0,7.66,0,7.66l-24.48,20.11c-5.36-4.88-10.43-16.84-12-20.81a1.74,1.74,0,0,1,.63-2.09l2.4-1.64a1.22,1.22,0,0,0,.33-1.65l-1.22-1.91a1.37,1.37,0,0,1,.27-1.79l5.08-4.22Z" fill="#0071f2" data-primary="true"/>
<path d="M341.9,182.39l7,5.94,15.07-8v-5.65c8.06-.64,6.93,1.65,6.93,1.65v7.34c5,4.35,0,7.66,0,7.66l-24.48,20.11c-5.36-4.88-10.43-16.84-12-20.81a1.74,1.74,0,0,1,.63-2.09l2.4-1.64a1.22,1.22,0,0,0,.33-1.65l-1.22-1.91a1.37,1.37,0,0,1,.27-1.79l5.08-4.22Z" fill="#fff" opacity="0.56"/>
<path d="M339.9,180.33c1.59,1.22,3.17,2.47,4.7,3.76s3.09,2.57,4.61,3.88l-.54-.05c3-1.7,6-3.38,9-5,1.52-.81,3.06-1.57,4.58-2.36s3.08-1.53,4.64-2.25c-1.44.94-2.89,1.86-4.36,2.74s-2.94,1.79-4.43,2.64c-3,1.73-6,3.39-9,5l-.3.17-.24-.22c-1.49-1.35-2.95-2.73-4.4-4.12S341.3,181.76,339.9,180.33Z" fill="#fff" opacity="0.56"/>
<path d="M345.9,196.33a41.75,41.75,0,0,1-9.4-8.79,37.1,37.1,0,0,1,5,4A36.6,36.6,0,0,1,345.9,196.33Z" fill="#fff" opacity="0.56"/>
<path d="M345.9,200.68a5.87,5.87,0,0,0,3.8.36,8.36,8.36,0,0,0,3.39-1.67,17.52,17.52,0,0,0,1.43-1.29l1.44-1.37,2.9-2.69c2-1.78,3.92-3.56,5.93-5.28l3-2.57c1-.83,2-1.69,3.09-2.5-.9,1-1.84,1.91-2.76,2.86l-2.83,2.78c-1.88,1.85-3.82,3.64-5.76,5.43l-2.94,2.66-1.49,1.31a11.62,11.62,0,0,1-1.58,1.28,8.74,8.74,0,0,1-3.76,1.53A5.74,5.74,0,0,1,345.9,200.68Z" fill="#fff" opacity="0.56"/>
<path d="M334.41,190.63s-18.35-1.3-18.93,5.7c0,0-3.52,20.15-1.55,28.07l26-1.83S329.91,201.94,334.41,190.63Z" fill="#2f2e41" data-secondary="true"/>
<path d="M358.4,221.26s11.5-18.93,12.5-29.93c0,0,2.24-1.13,2.12-4.57h12a5.32,5.32,0,0,1,4.93,2.57s-4.57-1-3.79,7v23Z" fill="#2f2e41" data-secondary="true"/>
<polygon points="580.9 179.32 593.9 147.32 606.9 180.32 593.9 192.88 580.9 179.32" fill="#0071f2" data-primary="true"/>
<polygon points="580.9 179.32 593.9 176.47 606.9 180.32 593.9 192.88 580.9 179.32" opacity="0.2"/>
<polygon points="593.9 147.32 593.9 192.88 580.9 179.32 593.9 147.32" opacity="0.2"/>
<polygon points="635.26 487.32 622.38 495.02 621.89 495.32 621.38 495.05 606.89 487.32 620.65 457.38 621.08 456.44 621.66 457.7 635.26 487.32" fill="#0071f2" data-primary="true"/>
<path d="M620.91,480l-13.39,7a.37.37,0,0,0,0,.65l14.2,7.58a.4.4,0,0,0,.37,0l12.62-7.56a.36.36,0,0,0,0-.64l-13.43-7A.34.34,0,0,0,620.91,480Z" fill="none" stroke="#2f2e41" stroke-miterlimit="10"/>
<polygon points="622.39 495.31 621.39 495.33 621.38 495.05 620.65 457.38 621.08 456.44 621.66 457.7 622.38 495.02 622.39 495.31" fill="#2f2e41" data-secondary="true"/>
<polygon points="635.26 492.07 621.62 516.95 621.08 517.93 620.61 517.08 606.89 492.07 620.96 499.62 621.48 499.9 621.96 499.63 635.26 492.07" fill="#0071f2" data-primary="true"/>
<polygon points="621.96 499.63 621.62 516.95 621.08 517.93 620.61 517.08 620.96 499.62 621.48 499.9 621.96 499.63" fill="#2f2e41" data-secondary="true"/>
<path d="M464.71,133s-14,1-14,12c0,0-3,20,6,21,0,0,14,3,18-2,0,0,5-4,11,1,0,0,1,1.79,6.5,1.89h12.48s8,.11,8-7.89V144.59S513,133,496.36,133Z" fill="#0071f2" data-primary="true"/>
<path d="M495.81,161.6a31.44,31.44,0,0,1-3.1-.65l-1.86-.74L487.71,159a22.28,22.28,0,0,0-4.61-1.72c-3.69-.95-9-1.35-13.49,2a5.7,5.7,0,0,1-2.63,1l-1.18.13h0c-2.86.22-6.56-.12-8.59-3.93a14.9,14.9,0,0,1-1.48-6.52c0-.32,0-.65,0-1,0,0-.85-8.52,11.61-10.61a31.73,31.73,0,0,1,3.39-.39s2-.19,5.32-.32c2.68-.11,6.22-.18,10.24-.08,2.45.06,5.08.19,7.8.4a23.44,23.44,0,0,1,5.81.89,13.42,13.42,0,0,1,6.87,4.15,9.2,9.2,0,0,1,1.86,4.24c0,.23.08.47.1.72C508.71,148,511.37,163.92,495.81,161.6Z" fill="#fff" opacity="0.56"/>
<path d="M476,137.63,457.2,156.46a14.9,14.9,0,0,1-1.48-6.52l11.6-11.6a31.73,31.73,0,0,1,3.39-.39S472.72,137.76,476,137.63Z" fill="#fff" opacity="0.18"/>
<path d="M499.88,138.84,483.1,157.23c-3.69-.95-9-1.35-13.49,2a5.7,5.7,0,0,1-2.63,1l-1.18.13,20.47-22.84c2.45.06,5.08.19,7.8.4A23.44,23.44,0,0,1,499.88,138.84Z" fill="#fff" opacity="0.18"/>
<path d="M508.61,147.23l-12.8,14.37a31.44,31.44,0,0,1-3.1-.65l-1.86-.74L506.75,143A9.2,9.2,0,0,1,508.61,147.23Z" fill="#fff" opacity="0.18"/>
<path d="M474.71,189c-1.28-3-1.1-7.91,2.66-8.61,4.16-.44,7.18,4.23,8.86,7.41-1.81-2.16-3.66-4.5-6.16-5.88a4.2,4.2,0,0,0-2.4-.59c-3.45.68-3.33,4.85-3,7.67Z" fill="#f7a48b"/>
<path d="M430.71,254a9.35,9.35,0,0,0-1.11,6.49.79.79,0,0,0,.63.61c2.67.5,15,2.69,23.71,2.32l.14-5A60.17,60.17,0,0,1,430.71,254Z" fill="#2f2e41" data-secondary="true"/>
<path d="M430.71,254s4.09,1.55,6.55,2.27v6l-7-1.14s-1.07.36-.79-2.37C429.44,258.68,429.71,255,430.71,254Z" opacity="0.2"/>
<path d="M377.08,128.17c-2.28,26.86-17.86,47.46-34.79,46S313.87,149.84,315.76,123c.64-9.13,1.64-15.13,5-21.34,7-12.8,14.77-22.87,25-24.5,5.77,4.65,12.76,2.22,12.76,2.22,9.92,5.33,17,18.79,18.54,35.3A75.37,75.37,0,0,1,377.08,128.17Z" fill="#f9b499"/>
<path d="M386.29,121.76a69.86,69.86,0,0,0-36.39-17.43c-13-1.37-23.7-2.27-29.12-2.71l-3.88-.29,2-7c5-20,13.52-22.42,19.2-21.43a14,14,0,0,1,7,3.66,8.51,8.51,0,0,0,.66.56c5.77,4.65,12.76,2.22,12.76,2.22,12.79-6.15,18,11.43,19.69,19.82a48.87,48.87,0,0,0,2.81,9.15l5.58,13.25A.18.18,0,0,1,386.29,121.76Z" fill="#0071f2" data-primary="true"/>
<path d="M320.78,101.62,304,100.4a1.47,1.47,0,0,0-1.49,1c-1.61,4.42-6.41,21.49,13,25.88C315.52,127.26,315.67,111.92,320.78,101.62Z" fill="#0071f2" data-primary="true"/>
<path d="M320.78,101.62,304,100.4a1.47,1.47,0,0,0-1.49,1c-1.61,4.42-6.41,21.49,13,25.88C315.52,127.26,315.67,111.92,320.78,101.62Z" opacity="0.2"/>
<path d="M351.9,104.62s27,1.49,35.49-4a2.53,2.53,0,0,1,3.33.54c2.72,3.31,6.46,10.89-3.82,21.18A71.42,71.42,0,0,0,351.9,104.62Z" fill="#0071f2" data-primary="true"/>
<path d="M351.9,104.62s27,1.49,35.49-4a2.53,2.53,0,0,1,3.33.54c2.72,3.31,6.46,10.89-3.82,21.18A71.42,71.42,0,0,0,351.9,104.62Z" opacity="0.2"/>
<ellipse cx="376.52" cy="137.52" rx="19.42" ry="11.21" transform="translate(148.93 467.49) rotate(-75.47)" fill="#f9b499"/>
<path d="M369,110.13l.52,15.56s2.77-7,10.55-7.17v-1.79S374.19,111.94,369,110.13Z" fill="#2f2e41" data-secondary="true"/>
<path d="M336.9,147.33s2.57,5,6.29,0c0,0,2.71-7,14.71-3a17.31,17.31,0,0,0,11,0s-8,18-24,12c0,0-2-2-3,0,0,0-11.23,9.85-21.12-3.58,0,0,2.12.58,6.12-3.42C326.9,149.33,331.9,141.33,336.9,147.33Z" fill="#2f2e41" data-secondary="true"/>
<ellipse cx="221.9" cy="304.58" rx="35" ry="48.25" fill="#f9b499"/>
<ellipse cx="260.9" cy="307.33" rx="20" ry="12" transform="translate(-125.13 423.51) rotate(-66.42)" fill="#f9b499"/>
<path d="M202.9,274.33s-2.26,12,16.37,0c0,0,1.63,9,15.63-4,0,0,2,10,12,7,0,0,0,16.22,4,23.11,0,0,7-14.78,18-11.44,0,0,8-28.67-14-36.67,0,0-15-8-38-4,0,0-16.32,0-9.16,8,0,0-28.76,14.69-23.07,22a4.32,4.32,0,0,0,4.27,1.45C191.21,279.29,195.56,278,202.9,274.33Z" fill="#2f2e41" data-secondary="true"/>
<circle cx="662.47" cy="348.43" r="37.5" fill="#fff" opacity="0.42"/>
<circle cx="749.97" cy="404.93" r="21.5" fill="#fff" opacity="0.42"/>
<path d="M328.84,518.2a36.8,36.8,0,0,0-15.76-5.42c-2.53-.27-5.4-.19-7.46,1.36a1.54,1.54,0,0,0-.77,1.37,1.75,1.75,0,0,0,.73.92,22.54,22.54,0,0,0,23.26,1.77" fill="#0071f2" data-primary="true"/>
<path d="M328.44,517.71a75.4,75.4,0,0,1-10.18-9,25.71,25.71,0,0,1-6.39-11.8,4.79,4.79,0,0,1,.5-3.94c8.12,6.32,14.5,14.53,16.07,24.7" fill="#0071f2" data-primary="true"/>
<path d="M328.75,518.1a36.87,36.87,0,0,1,.19-13.37,18.11,18.11,0,0,1,7.12-11c1.41,3.28.8,7.06-.19,10.49a51,51,0,0,1-7.05,14.86" fill="#0071f2" data-primary="true"/>
<path d="M336.71,532.36a23.1,23.1,0,0,0-12.65,6.39,23.94,23.94,0,0,0-7.23,12.41c4.73-.29,8.75-3.63,11.67-7.37s4.93-7.86,8.13-11.38" fill="#0071f2" data-primary="true"/>
<path d="M338.44,534.64A31.18,31.18,0,0,1,342,505.16c2.76,9.78,1.75,20.83-3.59,29.48" fill="#0071f2" data-primary="true"/>
<path d="M348.93,547.15a22.56,22.56,0,0,0-21.5,12.41,1.64,1.64,0,0,0-.14,1.68,1.59,1.59,0,0,0,1.43.42c4.24-.27,8-2.82,11.11-5.74s5.82-6.26,9.25-8.78" fill="#0071f2" data-primary="true"/>
<path d="M348.61,546.47a40.23,40.23,0,0,1-.41-22.42c.8-2.9,2.13-5.94,4.8-7.29a.73.73,0,0,1,1,.09.74.74,0,0,1,.16.32,13.53,13.53,0,0,1,1.12,6.43,38.76,38.76,0,0,1-1,6.52c-.84,4-1.26,8.26-3.47,11.68a21.44,21.44,0,0,0-1.38,2.53c-.42.87-.42,1.19-.8,1.87" fill="#0071f2" data-primary="true"/>
<path d="M376.43,550.61a29,29,0,0,1,5.06-23.77c.37-.48.85-1,1.44-.92.92.07,1.16,1.26,1.12,2.2a43,43,0,0,1-7.59,22.49" fill="#0071f2" data-primary="true"/>
<path d="M378.94,552.35a34.59,34.59,0,0,0,28.38-5.77,23,23,0,0,0-15.39-1.91c-5.14,1.17-9.82,3.47-13,7.66" fill="#0071f2" data-primary="true"/>
<path d="M381.05,547.1a32.78,32.78,0,0,1,25.76-14.88c-1.17,4.13-4.59,7.36-8.42,9.3A46.88,46.88,0,0,1,386,545.14c-1.64.32-3.89.67-5,2" fill="#0071f2" data-primary="true"/>
<path d="M377,521.77a74.73,74.73,0,0,0,3.28-15.08,25.16,25.16,0,0,0-3-14.92c-5,9.65-5.49,20.91-.45,30.52" fill="#0071f2" data-primary="true"/>
<path d="M393.74,513.3c5.83-10.6,17.7-19.06,29.74-20.24-4.64,11.55-17.29,20.48-29.74,20.24" fill="#0071f2" data-primary="true"/>
<path d="M390.07,515.37c8.7,1.33,16.1,6.87,24.22,10.24a10.76,10.76,0,0,0,5.47,1,4.28,4.28,0,0,0,2.69-7.59,11.87,11.87,0,0,0-4-2.41c-8.85-3.68-18.33-3.8-27.66-1.55" fill="#0071f2" data-primary="true"/>
<path d="M385.05,521.47c2,.55,2.63,1.58,4.2,2.9a45.21,45.21,0,0,0,18.36,9.44c.7.18,1.62.24,2-.39a1.55,1.55,0,0,0-.47-1.72A25.3,25.3,0,0,0,398,524.17c-4.24-1.58-7.9-3.48-13-3.07" fill="#0071f2" data-primary="true"/>
<path d="M379.37,484.65A34.78,34.78,0,0,0,406,493.72a1.88,1.88,0,0,0,1.26-.45c.67-.72-.14-1.84-.92-2.52-7.83-6.1-17.32-8.64-26.94-6.16" fill="#0071f2" data-primary="true"/>
<path d="M386.1,482.18a37.22,37.22,0,0,1,33.25-5.49,26.37,26.37,0,0,1-15.85,7,49.8,49.8,0,0,1-17.4-1.47" fill="#0071f2" data-primary="true"/>
<path d="M383.43,465.27c-.77-7.83-.28-14-.82-21.85,0-.62-.18-1.38-.76-1.61-.83-.31-1.51.7-1.77,1.53a25,25,0,0,0,3.34,21.76" fill="#0071f2" data-primary="true"/>
<path d="M382.86,466.13a46.17,46.17,0,0,0,12.95-12.58c2.53-3.5,4.72-7.7,4.14-12a12.42,12.42,0,0,0-9.35,4.63,26.2,26.2,0,0,0-4.76,9.58c-1,3.45-1.77,7-3,10.36" fill="#0071f2" data-primary="true"/>
<path d="M395.58,462.55a104.48,104.48,0,0,0,31.89-18.79c-3.8-1.53-8.17-.61-12,.92a37.78,37.78,0,0,0-20.07,17.87" fill="#0071f2" data-primary="true"/>
<path d="M386.44,470.41a64.77,64.77,0,0,0,17.7.09c5.75-1,11.17-3.24,16.53-5.49a2,2,0,0,0,1.13-.86,1.28,1.28,0,0,0-.4-1.41,3.79,3.79,0,0,0-1.42-.67,30.72,30.72,0,0,0-17.85,1.08,82.59,82.59,0,0,0-15.68,7.26" fill="#0071f2" data-primary="true"/>
<path d="M352.83,484.91a31.36,31.36,0,0,1-.27-25.91c2.44,3.72,2.73,8.46,2.28,12.89s-1.79,9-1.88,13.43" fill="#0071f2" data-primary="true"/>
<path d="M336.8,476.83A36.06,36.06,0,0,0,310,488.22a25.28,25.28,0,0,0,14.71-2.72,76.46,76.46,0,0,0,12.64-8.44" fill="#0071f2" data-primary="true"/>
<path d="M326,473.22c-4.91-.4-9.62-1-14.34.44a17.19,17.19,0,0,0-10.93,9.27,25.83,25.83,0,0,0,13.45-2.53A76.91,76.91,0,0,0,326,473.23" fill="#0071f2" data-primary="true"/>
<path d="M342,473.38c-4.41-2.88-8.94-5.83-14.07-7s-11.1-.32-14.68,3.55c4.17,2.45,9.21,2.74,14,2.72s10.73,0,15.28,1.56" fill="#0071f2" data-primary="true"/>
<path d="M342,473.62c-7.59-7.41-10.4-20.7-7.36-30.83A47.11,47.11,0,0,1,342,473.62" fill="#0071f2" data-primary="true"/>
<path d="M362.75,452.64c1.42-3.32,2.42-6.78,3.69-10.12a29.15,29.15,0,0,1,5.28-9.35,13.93,13.93,0,0,1,9.34-4.84,37.54,37.54,0,0,1-18.13,24.38" fill="#0071f2" data-primary="true"/>
<path d="M359,457c-2.35-3.25-5.06-7.58-8.26-10.05s-7.34-3.88-11.24-3A26.19,26.19,0,0,0,359,457" fill="#0071f2" data-primary="true"/>
<path d="M359.74,452.9a56.34,56.34,0,0,1-3.72-12,18.79,18.79,0,0,1,1.89-12.25c4.14,7.83,5.47,16.22,2,24.38" fill="#0071f2" data-primary="true"/>
<path d="M362.84,428.61c2.34-7.75,9.45-13.47,17.11-16.09a6.41,6.41,0,0,1,3-.45,2.6,2.6,0,0,1,2.21,1.84c.28,1.27-.81,2.53-1.83,3.38a58.21,58.21,0,0,1-20.49,11.38" fill="#0071f2" data-primary="true"/>
<path d="M362.84,422.26c.3-5,.62-10.12,2.24-14.81s4.76-9.18,9.32-11.26c.78,5.06-1.44,10.12-4.14,14.42s-5.93,8.45-7.59,13.31" fill="#0071f2" data-primary="true"/>
<path d="M362.75,425.71c-1.95-5.65-2.14-12.83-5.53-17.77-2.36-3.44-6.16-5.78-8.19-9.43a14.34,14.34,0,0,0,.48,10.71,30.77,30.77,0,0,0,6.32,9c2.53,2.68,4.66,4.69,7,7.52" fill="#0071f2" data-primary="true"/>
<path d="M362.84,592.19c-.15,0-.29-37.7-.29-84.22s.1-84.23.25-84.23.28,37.7.29,84.23S362.94,592.19,362.84,592.19Z" fill="#2f2e41" data-secondary="true"/>
<path d="M395.72,479.22a8.19,8.19,0,0,1-1.43.53L390.4,481c-3.29,1.12-7.82,2.74-12.73,4.75s-9.43,3.8-12,6.05a8.72,8.72,0,0,0-2.41,3.2c-.38.89-.45,1.43-.5,1.42s0-.14,0-.4a6.12,6.12,0,0,1,.28-1.1,8.53,8.53,0,0,1,2.37-3.3,21,21,0,0,1,5.22-3.25c2.09-1,4.41-2,6.87-3,4.92-2,9.47-3.58,12.8-4.61,1.67-.52,3-.9,4-1.15A8.4,8.4,0,0,1,395.72,479.22Z" fill="#2f2e41" data-secondary="true"/>
<path d="M406.55,452.69a2.38,2.38,0,0,1-.41.43l-1.2,1.14-4.53,4.1-15,13.39c-5.87,5.22-10.94,10.22-14.46,14-1.76,1.88-3.14,3.43-4.09,4.52l-1.1,1.26a2.21,2.21,0,0,1-.4.41,2.56,2.56,0,0,1,.33-.48,15.51,15.51,0,0,1,1-1.27c.9-1.12,2.24-2.72,4-4.64A191.74,191.74,0,0,1,385,471.39c5.88-5.21,11.24-9.89,15.18-13.26l4.64-4,1.26-1.07A2.15,2.15,0,0,1,406.55,452.69Z" fill="#2f2e41" data-secondary="true"/>
<path d="M379,477.06c-.15-.08,1.07-2.91,2.3-6.49s1.81-6.6,2-6.57a22.33,22.33,0,0,1-1.45,6.75,46.79,46.79,0,0,1-1.83,4.54A6.7,6.7,0,0,1,379,477.06Z" fill="#2f2e41" data-secondary="true"/>
<path d="M362.84,499.89a8.92,8.92,0,0,1-.9-1.05l-2.31-3c-1.95-2.53-4.65-6-7.66-9.79s-5.79-7.21-7.8-9.69l-2.36-2.92a6.57,6.57,0,0,1-.83-1.13,7.72,7.72,0,0,1,1,1l2.53,2.82c2.09,2.4,4.91,5.78,7.93,9.59s5.67,7.32,7.59,9.89c.93,1.26,1.68,2.34,2.17,3.08A5.9,5.9,0,0,1,362.84,499.89Z" fill="#2f2e41" data-secondary="true"/>
<path d="M355.59,490.61a13.28,13.28,0,0,1-3-5.67,16.3,16.3,0,0,1-.7-5.72h.24c-.1.43-.17.66-.22.66s0-.25,0-.69h.24a25.59,25.59,0,0,0,1,5.56A42,42,0,0,0,355.59,490.61Z" fill="#2f2e41" data-secondary="true"/>
<path d="M346.26,478.87a9.86,9.86,0,0,0-2.11-1.27,14.22,14.22,0,0,0-5.87-.46,37,37,0,0,0-5.91,1,18.66,18.66,0,0,1-2.43.58,8.19,8.19,0,0,1,2.33-1,26.9,26.9,0,0,1,6-1.13,12.76,12.76,0,0,1,6.06.66A3.72,3.72,0,0,1,346.26,478.87Z" fill="#2f2e41" data-secondary="true"/>
<path d="M344.06,476c0,.09-1.27-.49-3.24-1.17a32.71,32.71,0,0,0-16.33-1.27c-2.09.37-3.35.76-3.38.67a3.08,3.08,0,0,1,.86-.36,20.71,20.71,0,0,1,2.45-.69,28.56,28.56,0,0,1,8.35-.58,29.15,29.15,0,0,1,8.18,1.84,22.68,22.68,0,0,1,2.31,1A4.22,4.22,0,0,1,344.06,476Z" fill="#2f2e41" data-secondary="true"/>
<path d="M362.75,464a68.59,68.59,0,0,1-2.37-8.2,65.82,65.82,0,0,1-1.83-8.33,67.91,67.91,0,0,1,2.37,8.19A69.65,69.65,0,0,1,362.75,464Z" fill="#2f2e41" data-secondary="true"/>
<path d="M362.9,464a39.14,39.14,0,0,0-2.62-4.91,21,21,0,0,0-3.85-4,3.53,3.53,0,0,1,1.49.76,12.24,12.24,0,0,1,2.81,2.89A11.08,11.08,0,0,1,362.9,464Z" fill="#2f2e41" data-secondary="true"/>
<path d="M362.84,572.09s-.18-.91-.6-2.53a36.1,36.1,0,0,0-2.53-6.54,90.07,90.07,0,0,0-13.36-18.83c-3-3.41-5.89-6.62-8.34-9.71a68,68,0,0,1-6-8.6,42.52,42.52,0,0,1-3-6.32c-.28-.79-.48-1.4-.59-1.83a3.5,3.5,0,0,1-.15-.64s.32.86.94,2.39a46,46,0,0,0,3.15,6.32,71.88,71.88,0,0,0,6,8.48c2.47,3.05,5.37,6.25,8.36,9.66a86.34,86.34,0,0,1,13.31,19,32.84,32.84,0,0,1,2.38,6.66,17.16,17.16,0,0,1,.32,1.88A3.83,3.83,0,0,1,362.84,572.09Z" fill="#2f2e41" data-secondary="true"/>
<path d="M392.56,538.44a11.92,11.92,0,0,1-1.56.87,35.36,35.36,0,0,0-4,2.68,47,47,0,0,0-5.32,4.85c-1.87,2-3.79,4.26-5.75,6.71-3.92,4.92-7.59,9.29-9.79,12.76-1.11,1.72-1.92,3.18-2.45,4.2-.26.54-.55,1.06-.86,1.57a1.11,1.11,0,0,1,.14-.44c.14-.28.27-.71.53-1.27a39.66,39.66,0,0,1,2.31-4.31,144.19,144.19,0,0,1,9.72-12.84c2-2.45,3.92-4.74,5.81-6.71a42.16,42.16,0,0,1,5.45-4.81,28.17,28.17,0,0,1,4.18-2.53,11.15,11.15,0,0,1,1.26-.54A1.85,1.85,0,0,1,392.56,538.44Z" fill="#2f2e41" data-secondary="true"/>
<path d="M393.19,549.37a26.24,26.24,0,0,1-3.3.48,43.56,43.56,0,0,0-7.83,1.54,23.8,23.8,0,0,0-7,3.67c-1.62,1.26-2.38,2.29-2.46,2.22a2.91,2.91,0,0,1,.49-.76,12.94,12.94,0,0,1,1.72-1.75,21,21,0,0,1,7.09-3.9,35.26,35.26,0,0,1,8-1.4A17,17,0,0,1,393.19,549.37Z" fill="#2f2e41" data-secondary="true"/>
<path d="M373.52,556.14c-.16-.1,1.27-2.36,2.53-5.42s1.27-5.78,1.53-5.76a5.33,5.33,0,0,1-.06,1.78,18.7,18.7,0,0,1-1,4.17,19.8,19.8,0,0,1-1.91,3.79A5.11,5.11,0,0,1,373.52,556.14Z" fill="#2f2e41" data-secondary="true"/>
<path d="M402.21,509.16a2.69,2.69,0,0,1-.53.28l-1.54.71c-.69.29-1.51.65-2.45,1.15s-2,1-3.15,1.65l-1.79,1a20.12,20.12,0,0,0-1.9,1.26c-1.26.81-2.65,1.8-4.07,2.81a70,70,0,0,0-15.7,16.24c-1,1.45-1.91,2.82-2.66,4.17-.4.67-.8,1.27-1.13,1.94s-.66,1.26-1,1.83c-.65,1.15-1.1,2.25-1.56,3.2s-.79,1.78-1.06,2.53l-.66,1.57a3.76,3.76,0,0,1-.25.54,2,2,0,0,1,.15-.58l.56-1.61c.24-.7.55-1.55,1-2.53s.86-2.08,1.48-3.26c.31-.59.62-1.26.94-1.86s.73-1.26,1.11-2c.75-1.37,1.69-2.75,2.65-4.23a67.64,67.64,0,0,1,15.81-16.35c1.44-1,2.78-2,4.13-2.78.66-.41,1.27-.82,1.92-1.18l1.84-1c1.15-.67,2.25-1.13,3.2-1.59A26.1,26.1,0,0,1,400.1,510l1.59-.6A1.75,1.75,0,0,1,402.21,509.16Z" fill="#2f2e41" data-secondary="true"/>
<path d="M378.63,524.94A3.9,3.9,0,0,1,379.9,523a8.22,8.22,0,0,1,5.22-2,14.36,14.36,0,0,1,5.49,1.08,7.91,7.91,0,0,1,2.09,1,12.77,12.77,0,0,1-2.21-.65,17.11,17.11,0,0,0-5.35-.9,8.59,8.59,0,0,0-5,1.76A19.54,19.54,0,0,0,378.63,524.94Z" fill="#2f2e41" data-secondary="true"/>
<path d="M375.12,528.59a20.52,20.52,0,0,0,1.48-4.84,19.44,19.44,0,0,0-.33-5,3.26,3.26,0,0,1,.61,1.4,9.77,9.77,0,0,1,.26,3.69,10,10,0,0,1-1.1,3.54C375.57,528.19,375.17,528.62,375.12,528.59Z" fill="#2f2e41" data-secondary="true"/>
<path d="M336.73,577.49c.81,14.42,5.16,29.09,11.84,43.89h29.09c6.32-14.67,10.41-29.3,11.13-43.89Z" fill="#2f2e41" data-secondary="true"/>
<path d="M384.05,600.82c0,.15-9.56.27-21.36.27s-21.37-.12-21.37-.27,9.57-.27,21.37-.27S384.05,600.66,384.05,600.82Z" fill="#fafafa"/>
<path d="M383.4,606c0,.15-9,.28-20,.28s-20-.13-20-.28,9-.28,20-.28S383.4,605.89,383.4,606Z" fill="#fafafa"/>
<path d="M349,587a80.78,80.78,0,0,1,0,13.38A85.38,85.38,0,0,1,349,587Z" fill="#fafafa"/>
<path d="M364.61,587a89.84,89.84,0,0,1,0,13.92A85.13,85.13,0,0,1,364.61,587Z" fill="#fafafa"/>
<path d="M379.28,586.84a90.2,90.2,0,0,1,0,14.14A95.34,95.34,0,0,1,379.28,586.84Z" fill="#fafafa"/>
<path d="M387.83,587c0,.16-11.22.28-25.06.28s-25-.12-25-.28,11.22-.26,25-.26S387.83,586.8,387.83,587Z" fill="#fafafa"/>
</svg>