<svg id="Шар_1" data-name="Шар 1" xmlns="http://www.w3.org/2000/svg" viewBox="0 0 1191.2 979.22"><path d="M198.62,314.81s-83.84,95.78-13.57,347.13c0,0,120.27,5.41,154.05,102.71,0,0-70.91-78-176.67-54.55C162.43,710.1,47.33,517.66,198.62,314.81Z" transform="translate(-115.63 -83)" style="fill:#f8aa4b"/><path d="M239,653.84s110.92,0,231.19,144.59c0,0,64.87-77,178.38-64.86,0,0,20.27-133.79-93.24-231.08,0,0,33.78,43.24,35.13,81.08C590.45,583.57,482.12,479.51,239,653.84Z" transform="translate(-115.63 -83)" style="fill:#ff6150"/><path d="M239,653.84c23.3,1.17,46,8.14,67.54,16.75,43.2,17.69,82,45,116,76.77,16.1,15.4,35.07,34.18,47.43,50.86,44.85-48.35,113.35-72.5,178.67-65.08l-.47.36a213,213,0,0,0,1.25-32.25,276,276,0,0,0-29.58-116.56,249.67,249.67,0,0,0-16.41-27.82A275.7,275.7,0,0,0,555,502.81l.62-.59c16.75,22.83,33.66,52.57,35.17,81.33l0,.9-.68-.61c-12-10.35-26.81-17.13-41.79-22.06-30.33-9.79-62.94-10.43-94.31-6-35.28,5-69.84,16.8-102.19,31.56-39.84,18-77.26,41.26-112.91,66.52Zm0,0c63.88-45.39,136.53-86.91,215-98.67,31.45-4.46,64.17-3.84,94.61,5.94,15.1,5,30,11.75,42.1,22.18l-.64.29a90.55,90.55,0,0,0-3.89-21.89c-6.59-21.35-18-41.06-31.21-58.94l-2.46-3.24c21.65,18.28,41,39.59,56.1,63.62a261.22,261.22,0,0,1,22.12,43.26c15.79,40.17,22.87,84.22,18.25,127.24l-.06.41-.41,0a228,228,0,0,0-49,.12c-48.62,5.78-95.63,28.61-129.09,64.53l-.25.28-.24-.28a551.31,551.31,0,0,0-47.81-50.87c-25.5-23.81-53.55-45.15-84.21-61.89-20.43-11.14-42-20.32-64.53-26.31-11.27-2.9-22.76-5.27-34.4-5.73Z" transform="translate(-115.63 -83)" style="fill:#f8aa4b"/><path d="M712.75,383.88l-30.4,364.55s18.91,25.68-27,137.84c0,0-8.11,12.16,1.35,27,0,0-40.54,6.75-43.24,36.48s47.29,108.34,95.27,111.61c0,0,83.1-4.85,100.67-110.26,0,0,6.76-27-43.24-37.83,0,0,9.46-10.82,2.7-29.73s-47.3-94.6-28.38-132.44Z" transform="translate(-115.63 -83)" style="fill:#f8aa4b"/><path d="M712.75,383.88,682.67,748.46l-.06-.22a17.27,17.27,0,0,1,1.46,3.11,43.66,43.66,0,0,1,1.39,5.46,84.34,84.34,0,0,1,.95,17.9c-1.8,29.83-11.09,58.69-21.08,86.67-1.9,5.61-7.46,19.38-9.69,25.1-4.9,8.29-3.76,18.7,1.37,26.6l.28.51-.55.1c-15,3.17-31,10-39,23.72-5.9,10-4.15,21.93-.45,32.41a139.45,139.45,0,0,0,11.29,24.48c10.67,18.48,24.26,35.51,40.89,49,11.33,9,24.67,16.47,39.31,17.62a93,93,0,0,0,19.41-4.25c47.32-15.5,73.3-58.27,80.81-105.61a22.27,22.27,0,0,0-3-14.86c-8.41-13.69-25-19-39.91-22.48l-.62-.14.41-.52c4.23-5.54,5.56-13,4.84-19.85-.71-7.06-3.78-13.55-6.55-20-5.69-13-11.36-26-16.2-39.31-7.09-19.94-13.43-40.83-12.68-62.22A53.55,53.55,0,0,1,740.16,751c0,.64-27.42-367.13-27.41-367.11Zm0,0c0,.07,28.12,367.33,28,367.4a52.75,52.75,0,0,0-4.84,20.4c-.72,21.29,5.62,42.08,12.69,61.94,6,16.69,13.66,32.67,20.32,49.08,3.77,9.94,4.2,22-2.49,30.86l-.22-.66c15.1,3.5,31.91,8.92,40.47,22.85a23,23,0,0,1,3.11,15.49c-7.49,47.52-33.69,90.72-81.35,106.34a89.86,89.86,0,0,1-19.78,4.3c-14.85-1.17-28.35-8.78-39.84-17.86-16.71-13.55-30.35-30.68-41.07-49.27a141,141,0,0,1-11.34-24.65c-3.77-10.73-5.5-22.84.54-33.1,5.71-10,16.06-16.34,26.57-20.37a79.75,79.75,0,0,1,13.08-3.73l-.27.61c-5.28-8.17-6.43-18.89-1.33-27.46-.24.31,6.6-16.6,6.51-16.56a523.79,523.79,0,0,0,16.72-50.9c4-15.84,7.48-32,7.59-48.37a67.48,67.48,0,0,0-1.45-15.46,28.19,28.19,0,0,0-1.33-4.21,11.14,11.14,0,0,0-1-2c0-.12,30.73-364.5,30.74-364.63Z" transform="translate(-115.63 -83)" style="fill:#f8aa4b"/><path d="M1181,657.39s-110.92,0-231.19,144.59c0,0-64.87-77-178.38-64.86,0,0-20.27-133.79,93.24-231.09,0,0-33.78,43.25-35.13,81.09C829.55,587.12,937.89,483.06,1181,657.39Z" transform="translate(-115.63 -83)" style="fill:#ff6150"/><path d="M1181,657.39c-11.64.46-23.13,2.83-34.4,5.73-22.51,6-44.1,15.17-64.53,26.31-30.66,16.74-58.71,38.08-84.21,61.89a552.47,552.47,0,0,0-47.81,50.86l-.23.29-.26-.28c-33.46-35.92-80.46-58.75-129.09-64.53a227.94,227.94,0,0,0-49-.12l-.42.05-.05-.41c-4.63-43,2.46-87.07,18.24-127.24a262.48,262.48,0,0,1,22.12-43.27c15.11-24,34.45-45.33,56.1-63.61L865,506.3c-13.26,17.88-24.62,37.59-31.21,58.94a90.55,90.55,0,0,0-3.89,21.89l-.63-.29c12.14-10.43,27-17.22,42.1-22.18,30.43-9.78,63.15-10.4,94.6-5.94,35.33,5.11,69.94,16.86,102.29,31.76,39.79,18.18,77.17,41.54,112.73,66.91Zm0,0c-38.86-27.63-79.94-52.53-123.79-71.41-29.13-12.21-60-22.29-91.31-26.67s-64-3.77-94.31,6c-15,4.93-29.76,11.71-41.79,22.06l-.68.61,0-.9c1.51-28.76,18.43-58.5,35.18-81.33l.61.59a275.33,275.33,0,0,0-48.35,54.06,246.63,246.63,0,0,0-16.41,27.82A276,276,0,0,0,770.61,704.8a213,213,0,0,0,1.25,32.25l-.47-.36c65.32-7.42,133.83,16.73,178.67,65.08h-.49a551.14,551.14,0,0,1,47.92-50.87c34-31.75,72.78-59.08,116-76.77,21.55-8.61,44.23-15.58,67.53-16.75Z" transform="translate(-115.63 -83)" style="fill:#f8aa4b"/><path d="M1225.87,315.34s83.85,95.79,13.57,347.14c0,0-120.27,5.41-154,102.7,0,0,70.91-78,176.67-54.55C1262.06,710.63,1377.17,518.2,1225.87,315.34Z" transform="translate(-115.63 -83)" style="fill:#f8aa4b"/><path d="M198.42,779s213.66-13,343.39,68.05" transform="translate(-115.63 -83)" style="fill:#f8aa4b"/><path d="M198.42,779c107.35-11.82,254,3.62,343.39,68.05-13.23-6.71-26.59-12.89-40.25-18.29l-12.87-4.89c-93-32.5-192.3-41.36-290.27-44.87Z" transform="translate(-115.63 -83)" style="fill:#f8aa4b"/><path d="M258.42,847.08s178-23,242.84,16.22" transform="translate(-115.63 -83)" style="fill:#f8aa4b"/><path d="M258.42,847.08c62.92-14.13,162.37-19.76,222.49,4.74a134,134,0,0,1,13.94,7.08c2.18,1.43,4.32,2.91,6.41,4.4C473,851.09,442.07,849,411.77,847c-51.13-2.7-102.11-.5-153.35.08Z" transform="translate(-115.63 -83)" style="fill:#f8aa4b"/><path d="M260.72,911.94s127-50,236.49-16.21" transform="translate(-115.63 -83)" style="fill:#f8aa4b"/><path d="M260.72,911.94C322.6,881.69,409,868.85,475.78,888a192.44,192.44,0,0,1,21.43,7.69c-10-1.71-19.81-3.4-29.73-4.43-69.49-7.54-139.3,4.13-206.76,20.64Z" transform="translate(-115.63 -83)" style="fill:#f8aa4b"/><path d="M1230.48,774.61s-213.65-13-343.38,68.06" transform="translate(-115.63 -83)" style="fill:#f8aa4b"/><path d="M1230.48,774.61c-98,3.52-197.23,12.38-290.27,44.87-2.25.86-10.57,4-12.86,4.89-13.66,5.41-27,11.58-40.25,18.3,89.24-64.39,236-79.89,343.38-68.06Z" transform="translate(-115.63 -83)" style="fill:#f8aa4b"/><path d="M1170.48,842.67c-51.24-.58-102.21-2.78-153.34-.09-30.3,2-61.27,4.1-89.5,16.3,2.1-1.48,4.24-3,6.42-4.39A132,132,0,0,1,948,847.41c60.07-24.48,159.52-18.89,222.49-4.74Z" transform="translate(-115.63 -83)" style="fill:#f8aa4b"/><path d="M1168.18,907.53s-127-50-236.48-16.22" transform="translate(-115.63 -83)" style="fill:#f8aa4b"/><path d="M1168.18,907.53c-67.46-16.51-137.27-28.19-206.75-20.64-9.92,1-19.76,2.72-29.73,4.42a192.38,192.38,0,0,1,21.43-7.68c66.73-19.19,153.16-6.37,215.05,23.9Z" transform="translate(-115.63 -83)" style="fill:#f8aa4b"/><ellipse cx="414.01" cy="512.73" rx="12.16" ry="13.51" style="fill:#fff"/><ellipse cx="776.18" cy="511.38" rx="12.16" ry="13.51" style="fill:#fff"/><path d="M962.84,591.29c1.59,12.57-4.14,29.14-12.86,38.21-4.82,4.86-11.3,8.26-16.45,12.62-7.87,6.24-14.22,15.44-22.95,21.13-9.48,5.68-21.17,8.63-32.21,7.18a53,53,0,0,1-28.75-14.07,45.29,45.29,0,0,1-6.8-8.13l.95-1.51c12,1.52,24.67,4.41,36.5,4.75,5.49.27,10.85.65,16.35,0,2.75-.33,5.49-.93,8.36-1.47,9-1.44,18.58-4.46,24.48-12,4.08-4.85,5.81-11.52,8.36-17.16s6.35-10.48,10.06-15.49a100.39,100.39,0,0,1,13.28-14.71l1.68.58Z" transform="translate(-115.63 -83)" style="fill:#fff"/><path d="M281,378.28a1.35,1.35,0,0,1-1.7,2.1c-44-31.61-154.52-119.09-163.16-206.57C105.44,65.62,269,89.45,272.82,90l.13,0c2.91.77,101.61,27,146.12,56a1.33,1.33,0,0,0,1.83-.36c6.69-9.76,61.67-80.88,230.42-58.28,0,0-170.4-14.84-225.12,79.92a1.33,1.33,0,0,1-1.72.56c-13.29-6.11-142.25-64.06-190.74-32.25a1.35,1.35,0,0,0,.41,2.43c13.94,3.58,74.84,27.24,142.58,175.73a1.35,1.35,0,0,1-2.35,1.33c-31.69-47-138.34-194.59-192-138.62C130.81,230.24,238.52,339.12,281,378.28Z" transform="translate(-115.63 -83)" style="fill:#ff6150"/><path d="M1125.25,393s170.27-109.46,181.08-218.92-156.75-83.78-156.75-83.78-102.71,27-147.3,56.76c0,0-50.11-83.62-231.13-59.38,0,0,171.67-15,225.72,81,0,0,145.61-68.63,194.43-30.94,0,0-72.36,7.45-152.31,191.49,0,0,137.61-218.66,201.13-152.44S1125.25,393,1125.25,393Z" transform="translate(-115.63 -83)" style="fill:#ff6150"/><path d="M488.43,984.24S629,1057.45,708.7,1061.39" transform="translate(-115.63 -83)" style="fill:#f8aa4b"/><path d="M488.43,984.24c45.72,17.29,90.4,36.42,136.32,52.93,22.85,8.17,45.88,15.87,69.55,21.34l7.16,1.52c2.4.45,4.81.86,7.24,1.36-4.92.29-9.86.29-14.8.09-65-3.75-151-41.8-205.47-77.24Z" transform="translate(-115.63 -83)" style="fill:#f8aa4b"/><path d="M929.28,984.84c-54.43,35.4-140.48,73.5-205.47,77.24-4.94.2-9.88.2-14.8-.09,2.42-.5,4.84-.91,7.24-1.36l7.16-1.52c23.67-5.47,46.7-13.17,69.55-21.34,45.92-16.51,90.6-35.64,136.32-52.93Z" transform="translate(-115.63 -83)" style="fill:#f8aa4b"/><path d="M465.74,601.73a96.7,96.7,0,0,1,12.19,12.9c3.41,4.42,6.92,8.59,9.41,13.6,1.28,2.54,2.31,5.23,3.52,7.8a26.93,26.93,0,0,0,18.95,15.62c6.43,1.33,12.87,2.64,19.4,2.77,5.62.12,11.21-.5,16.82-.73,6.11-.59,12.17-1.48,18.27-2.36,3-.42,5.92-1,9.05-1.13l.81,1.36a51,51,0,0,1-4.58,5.47,49.76,49.76,0,0,1-27.5,13.9c-7.42,1.07-15.08-.34-22.09-2.78-11.58-3.6-18.66-14.13-28-21.12-4.8-3.72-10.67-6.56-15.18-10.78s-7.39-9.85-9.63-15.53c-2.18-5.9-3.57-12-2.9-18.45l1.49-.54Z" transform="translate(-115.63 -83)" style="fill:#fff"/><circle cx="789.69" cy="787.05" r="13.51" style="fill:#ff6150"/><path d="M918.83,870.05c.06,12.08-14.7,18.32-23.37,9.86a13.9,13.9,0,0,1,0-19.72c8.67-8.46,23.43-2.22,23.37,9.86Zm0,0c-.06-11.87-14.5-17.72-22.76-9.25a13.31,13.31,0,0,0,0,18.51c8.26,8.47,22.71,2.61,22.77-9.26Z" transform="translate(-115.63 -83)" style="fill:#f8aa4b"/><circle cx="441.04" cy="776.24" r="13.51" style="fill:#ff6150"/><path d="M570.18,859.24c.06,12.08-14.7,18.32-23.37,9.86a13.91,13.91,0,0,1,0-19.72c8.67-8.47,23.44-2.22,23.37,9.86Zm0,0c-.06-11.87-14.5-17.72-22.76-9.25a13.3,13.3,0,0,0,0,18.51c8.26,8.47,22.71,2.61,22.76-9.26Z" transform="translate(-115.63 -83)" style="fill:#f8aa4b"/><circle cx="399.15" cy="823.54" r="13.51" style="fill:#ff6150"/><path d="M528.29,906.54c.06,12.08-14.7,18.32-23.37,9.86a13.9,13.9,0,0,1,0-19.72c8.67-8.47,23.43-2.22,23.37,9.86Zm0,0c-.06-11.87-14.5-17.73-22.76-9.25a13.29,13.29,0,0,0,0,18.5c8.26,8.48,22.71,2.62,22.77-9.25Z" transform="translate(-115.63 -83)" style="fill:#f8aa4b"/><circle cx="753.2" cy="776.24" r="13.51" style="fill:#ff6150"/><path d="M882.35,859.24c.06,12.08-14.71,18.32-23.38,9.86a13.91,13.91,0,0,1,0-19.72c8.67-8.47,23.44-2.22,23.38,9.86Zm0,0c-.06-11.87-14.51-17.72-22.77-9.25a13.31,13.31,0,0,0,0,18.51c8.26,8.47,22.71,2.61,22.77-9.26Z" transform="translate(-115.63 -83)" style="fill:#f8aa4b"/><circle cx="778.88" cy="824.89" r="13.51" style="fill:#ff6150"/><path d="M908,907.89c.06,12.08-14.7,18.32-23.37,9.86a13.9,13.9,0,0,1,0-19.72c8.67-8.47,23.43-2.22,23.37,9.86Zm0,0c-.06-11.87-14.5-17.72-22.77-9.25a13.3,13.3,0,0,0,0,18.5c8.26,8.48,22.71,2.62,22.77-9.25Z" transform="translate(-115.63 -83)" style="fill:#f8aa4b"/><circle cx="405.91" cy="787.05" r="13.51" style="fill:#ff6150"/><path d="M535.05,870.05c.06,12.08-14.7,18.32-23.37,9.86a13.9,13.9,0,0,1,0-19.72c8.66-8.46,23.43-2.22,23.37,9.86Zm0,0c-.06-11.87-14.51-17.72-22.77-9.25a13.31,13.31,0,0,0,0,18.51c8.26,8.47,22.71,2.61,22.77-9.26Z" transform="translate(-115.63 -83)" style="fill:#f8aa4b"/></svg>