<svg id="Шар_1" data-name="Шар 1" xmlns="http://www.w3.org/2000/svg" viewBox="0 0 191.57 232.73"><path d="M207.5,196.5s16-16,17-29-10-39,5-50,32,25,32,25-2-7,15-7,26-3,50,5c0,0,19-14,33-13s-5,44-5,44l12,18s-27-22-44-11c0,0-4-18-19-29,0,0,7,18,7,28C310.5,177.5,287.5,151.5,207.5,196.5Z" transform="translate(-196.5 -115.41)" style="fill:#669186"/><path d="M199.5,211.5s21,2,51-17c0,0,25-15,46-7,0,0,0-5-5-11,0,0,12,4,20,30,0,0,6,2,3-36,0,0,8,9,12,35,0,0,4-28,5-22l.86,7.53s22.14-1.64,34.14,12.42c0,0,7,6.05,16,6.05,0,0-8,4-13,1s0,5.66,13,3.33a19.61,19.61,0,0,1-16,3.06s0,4.61,13,2.61c0,0-11,5-16,4,0,0-6,6-14,6s-19-9-19-9,2,9,8,13-10,14-10,14-3,10-13,9-20-9-39-13c0,0,17-1,31,7s14-10,9-9c0,0-7-7,6-16,0,0-3-12-15-9a44.56,44.56,0,0,0-14,12c-6,8-16,6-16,6s-14-9-69-9c0,0,13,1,22-6,0,0-15,2-22-2,0,0,6.28,1.07,17.14-4C225.64,213.54,206.5,217.5,199.5,211.5Z" transform="translate(-196.5 -115.41)" style="fill:#669186"/><path d="M337.5,257.5s15-8,23-21,18-6,18-6,24,20-4,73C374.5,303.5,400.5,232.5,337.5,257.5Z" transform="translate(-196.5 -115.41)" style="fill:#669186"/><path d="M300.19,266.06S340.5,255.5,352.5,282.5s-11,51-11,51,7-9,3-12c0,0-3,13-19,23,0,0,10-13,9-18,0,0-9,26-46,21,0,0,41.57-3.84,40.29-41.42S300.19,266.06,300.19,266.06Z" transform="translate(-196.5 -115.41)" style="fill:#669186"/><path d="M255.5,241.5s41,9,46,51-35,48-35,48-15,1-22-4c0,0,13,2,20-5,0,0-13,6-30-6,0,0,19,4,20-3,0,0-25,10-40-28,0,0,14,17,25,15s16.87-2.92,24.44-18.46S263.5,245.5,255.5,241.5Z" transform="translate(-196.5 -115.41)" style="fill:#669186"/><path d="M196.5,244.5s9-12,29-12,29,13,28,25-6,22-22,24-19-13-19-14-2-16.06-13-15c0,0,0-5,12-9C211.5,243.5,207.5,238.5,196.5,244.5Z" transform="translate(-196.5 -115.41)" style="fill:#669186"/><path d="M239.5,125.5s14,10,12,19-11,16-17,18c0,0,7-8,4-21a7.5,7.5,0,0,1,3,6s2-7-3-16c0,0,6,7,7,10C245.5,141.5,246.5,135.5,239.5,125.5Z" transform="translate(-196.5 -115.41)" style="fill:#bbd4ce"/><path d="M352.5,134.5c-3,2-17,2-16,15s11,14,11,14-4-11,2-17c0,0-5,2-6,4,0,0,3-8,8-10,0,0-6,1-8,3,0,0,6-8.64,9-8.82" transform="translate(-196.5 -115.41)" style="fill:#bbd4ce"/><path d="M277.5,191.5A12.07,12.07,0,0,0,277,202c2.28,5,13.17,7.26,18.59-.08.32-.43-.25-1.24-.63-.86-5,4.94-21,6.18-15.65-8.56.19-.52.23-1.07.4-1.59C280,190,279,189,277.5,191.5Z" transform="translate(-196.5 -115.41)" style="fill:#fff"/><circle cx="89.5" cy="82.59" r="2.5" style="fill:#fff"/><path d="M281.5,193.5s3.47-8,8.73,0c0,0,.27,2-2.73,1l-1.5-1.86S282.5,195.5,281.5,193.5Z" transform="translate(-196.5 -115.41)" style="fill:#fff"/><circle cx="141.5" cy="88.59" r="2.5" style="fill:#fff"/><path d="M331.85,201.5s-.24-3,1.7-3.5,5.45.46,5.45.46a1.3,1.3,0,0,1,.6,1.22c-.1.82-4.1.36-4.1.36S334.2,202.5,331.85,201.5Z" transform="translate(-196.5 -115.41)" style="fill:#fff"/><path d="M345.75,199.91a10.09,10.09,0,0,1,.42,8.78c-1.91,4.19-11,6.07-15.55-.07-.27-.36.21-1,.53-.71,4.15,4.12,17.53,5.16,13.08-7.17-.15-.43-.19-.89-.33-1.32C343.66,198.65,344.5,197.82,345.75,199.91Z" transform="translate(-196.5 -115.41)" style="fill:#fff"/></svg>