<svg id="Шар_1" data-name="Шар 1" xmlns="http://www.w3.org/2000/svg" viewBox="0 0 302.15 460.45"><path d="M208.5,239.5c-6.74,46.41-9.19,139.1,59.7,130.71a101.85,101.85,0,0,0,11.71-2.2l.54.52c14.71,14,29.61,27.93,45.45,40.65,4.57,3.5,9.09,7.31,14.32,9.68a4.34,4.34,0,0,0,1.55.39l1.71-.39.29,1.86c3.05,19.52,14.87,44.33,38.39,39.89,7-1.14,13.56-4.29,19.78-7.89,14.34-5.29,23.76-19.61,24.45-34.69a64.22,64.22,0,0,0-1-15.94,33.06,33.06,0,0,0,4-9c1.17-4.29,1.34-8.81-.67-12.73-2.17-4.16-6.3-6.68-10.69-8.34-.44-1-53.8-107-54.23-107.94a631.35,631.35,0,0,0-34.24-76.19c-6.68-12.15-13.89-24.14-22.77-34.8-8-9.4-20.8-22.4-33.78-14.73-14.48,23.28-48.84,76.44-64.56,101.11Zm0,0c15.87-25.68,47.33-77.41,63.44-102.89,23.76-14.62,50.57,33.07,60.27,49.88,13.62,24.54,25,50.18,34.94,76.4-.37-1.11,54.15,107.06,54.1,106.72l-1-.94c6.5,2.37,12.79,7.79,13.8,15.05,1.07,7.11-1.3,13.86-4.87,19.86l.29-1.4c1.77,10.61,1.42,22-3,32-4.12,10-14.34,19.12-23,21.94-34.84,21-56.9,1.17-63.09-34.93l2,1.47a5.06,5.06,0,0,1-1.93-.12c-6.27-2.07-11.45-6.81-16.61-10.72-5.31-4.31-10.45-8.79-15.52-13.34-10.14-9.11-20-18.46-29.74-28l1.27.35C199.28,390.08,199.1,293.7,208.5,239.5Z" transform="translate(-132.13 -75.79)" style="fill:#543c52"/><path d="M236.5,315.5" transform="translate(-132.13 -75.79)" style="fill:none"/><path d="M392.5,383.5c-8.65,3.5-21.76,11.87-12.76,21.88.43.52.92,1,1.38,1.5l-.62-.26c5.22.18,15.26.66,16.88,6.83a13.37,13.37,0,0,1,.12,2.45v2.24c.07,1-.08,2.53.44,3.32a1.51,1.51,0,0,0,.48.07c.16,0-.07,0-.15.05s-.09.08,0,0a7.74,7.74,0,0,0,.62-2.34,34.26,34.26,0,0,0,.07-10.16.64.64,0,0,0,.54.29c-12.05.12-8.61-18.2-7-25.84Zm0,0c-.71,5.82-1.42,12-.14,17.83.78,3.51,3.13,6.94,7.11,6.34a1.08,1.08,0,0,1,.71.28,2.27,2.27,0,0,1,.5,1.07,30.22,30.22,0,0,1,.37,5.84,24.63,24.63,0,0,1-.84,7,2.42,2.42,0,0,1-1.12,1.46,2.58,2.58,0,0,1-1.45.05c-2.29-.52-2-3.43-2.11-5.21,0-.77,0-2.66,0-3.41.09-5.48-10.9-6.18-15-6.39h-.39l-.23-.25c-11.67-11.82,1-21.11,12.62-24.62Z" transform="translate(-132.13 -75.79)" style="fill:#543c52"/><path d="M292.5,253.5c-8.2-13.83-19.18-13-30.66-3.52l.47-2.32c2.67,5.14,6.95,10.84,12.85,12.1,6.33,1,12.68-1.91,17.34-6.26Zm0,0c-3.65,5.86-10.73,10-17.78,9.37-7.47-.91-12.77-7.2-16-13.53L258,248l1.13-1c12.15-10.36,28-10.71,33.34,6.48Z" transform="translate(-132.13 -75.79)" style="fill:#543c52"/><path d="M259.5,243.5c5.29-7.49,15.58-9.72,24.26-8.73,1.26.2,2.51.43,3.74.73-1.27.14-2.53.18-3.77.25-8.54.61-17.31,2.36-24.23,7.75Z" transform="translate(-132.13 -75.79)" style="fill:#543c52"/><path d="M256.5,237.5c-3-6,4.28-11.07,9.59-11.78a21.58,21.58,0,0,1,2.41-.22c-2,1.2-4.13,2.15-6.12,3.37-3.13,1.93-6,4.63-5.88,8.63Z" transform="translate(-132.13 -75.79)" style="fill:#543c52"/><path d="M252.5,240.5c1.08,3.08,1.13,6.05,2,9,.29.86.6,1.68,1.79,1.88-1.07.8-2.62-.18-3.19-1.17a11.44,11.44,0,0,1-.57-9.73Z" transform="translate(-132.13 -75.79)" style="fill:#543c52"/><path d="M259.5,252.13c1.23,2.91,2.07,5.79,3.12,8.57,1.12,2.61,1.89,5.77,4.88,6.8-6.2.82-8.68-10.74-8-15.37Z" transform="translate(-132.13 -75.79)" style="fill:#543c52"/><path d="M274.5,139.5c18.73-1.52,34.71,12.42,42.39,28.5,5.4,10.69,7.74,22.77,9.59,34.38,1.83,9.78,8.39,47.79,23.75,39a7.8,7.8,0,0,1-8.54,1.33c-7.93-3.93-11.68-14.54-14.45-22.33-3.89-11.14-5.18-23.15-8-34.43C314,163.87,299,141,274.5,139.5Z" transform="translate(-132.13 -75.79)" style="fill:#543c52"/><path d="M272.5,142.5c10.08,1.66,19.76,8.19,23.72,17.87.59,1.43,1,3.08,1.46,4.57,3.47,12.22,10.73,23,17.82,33.56-9.86-8.61-18.16-19.76-21.66-32.57-.4-1.34-.75-2.85-1.23-4.16-3.37-9.05-11.54-15.3-20.11-19.27Z" transform="translate(-132.13 -75.79)" style="fill:#543c52"/><path d="M270.5,156.5c5.64,10.56,9.21,22.76,8,34.85-1.2,11.3,6.95,21.47,14,29.88-8.68-5.78-16.65-14.74-18-25.53-.33-4.47.7-8.79.32-13.31-.48-8.76-2.29-17.26-4.29-25.89Z" transform="translate(-132.13 -75.79)" style="fill:#543c52"/><path d="M285.5,187.5c3.25,9.36,5.56,20.64,13.27,27.41a26.39,26.39,0,0,0,3.73,2.59c-13.73-.52-19.22-18.54-17-30Z" transform="translate(-132.13 -75.79)" style="fill:#543c52"/><path d="M266,156.5c7,17.31-.18,37.74-16.1,47.33a49.11,49.11,0,0,1-16.38,6.67,98.1,98.1,0,0,0,14.58-9.21C262.24,190.53,268,173.91,266,156.5Z" transform="translate(-132.13 -75.79)" style="fill:#543c52"/><path d="M259.5,175.28c-.82,10.27-8.79,23.53-20,24.22,8.9-6.27,13.56-15.72,20-24.22Z" transform="translate(-132.13 -75.79)" style="fill:#543c52"/><path d="M274.5,148.47c7.75,5.27,14.56,13.42,15.1,23.21,0,.8-.16,2.62-.2,3.45-.06,6.8,5,12.55,9.09,17.7,3.73,4.37,7.83,8.51,12,12.67-10-5.56-25.71-18.07-25-30.69,1.6-10-4.88-19-11-26.34Z" transform="translate(-132.13 -75.79)" style="fill:#543c52"/><path d="M224.45,183.5c-2.7-1.62-4.36-4.76-5.14-7.77-2.2-8.87,1.22-17.9,5.62-25.49a57.82,57.82,0,0,1,8.57-10.76c-.74,1.93-1.61,3.74-2.47,5.55-4.79,10.76-13.64,27.2-6.58,38.47Z" transform="translate(-132.13 -75.79)" style="fill:#543c52"/><path d="M257.5,154.5c11.71-11.26,15-28.83,12.24-44.37a84.42,84.42,0,0,0-4.14-15.34l.35.6c-3.78-4.52-5.39-10.87-3.3-16.5.1-.32.18-.56.22-.74a1.67,1.67,0,0,0,2.09,1.5c-2.51,2-4.77,5-6.9,7.68a156.64,156.64,0,0,0-15.45,24.37,63.12,63.12,0,0,0-7.42,27.4,84.11,84.11,0,0,0,4.31,28.6,72.52,72.52,0,0,1-4.74-13.92,64.73,64.73,0,0,1-.41-29.56c3.62-14.53,11.78-27.4,20.56-39.32a64.24,64.24,0,0,1,6.19-7.14A8.47,8.47,0,0,1,263.59,76a2.3,2.3,0,0,1,3.15,1.66,3.51,3.51,0,0,1-.08,1.52c-.17.66-.41,1.24-.58,1.84-1.3,4,.13,8.67,2.65,12a1.29,1.29,0,0,1,.35.6c7.36,20.36,6.67,46.55-11.58,61Z" transform="translate(-132.13 -75.79)" style="fill:#543c52"/><path d="M315.5,144.21c-.27-16.79,2.61-37.45,13.73-50.77,3.12-3.52,10-9.58,15.15-7.5,12.87,5.91-11,60.39-16.1,70.56,3-10.42,21.08-60.72,14.47-66.94-1.4-.42-2.91.44-4.41,1.27A25.84,25.84,0,0,0,332.05,96c-10.84,12.37-14.49,32.27-16.55,48.26Z" transform="translate(-132.13 -75.79)" style="fill:#543c52"/><path d="M295.5,137.5a187.07,187.07,0,0,1,12.92-15.25,171.45,171.45,0,0,1,14.2-14.07A59,59,0,0,1,311.36,125c-4.64,4.92-9.76,9.45-15.86,12.53Z" transform="translate(-132.13 -75.79)" style="fill:#543c52"/><path d="M333.38,187.39a213.77,213.77,0,0,1,17.75,16.15c6.95,7.23,14.16,14.57,19.14,23.5a12.94,12.94,0,0,1,1.58,6.51c.13,4,.28,8,.27,12,.06,8-.07,16-.62,24-1.67-11.88-2.48-23.8-3.43-35.71l-.13-1.47c-.28-3.09-2.49-5.68-4.22-8.27-2.23-3.18-4.73-6.25-7.23-9.3-7.58-9.22-15.52-18.08-23.11-27.36Z" transform="translate(-132.13 -75.79)" style="fill:#543c52"/><path d="M226.88,139.48c-15,5.62-24.69,20.42-27.53,35.76a95.36,95.36,0,0,0-1.61,15.66A127.8,127.8,0,0,1,192.33,223c-3.35,10.24-7.91,20.45-15.2,28.48,8.62-13.47,13-29.23,15.19-44.92,1.29-7.84,1.25-16,2-23.94,1.66-18.92,12.88-38.81,32.55-43.11Z" transform="translate(-132.13 -75.79)" style="fill:#543c52"/><path d="M221.72,156.5c-6.71,12.19-12.4,25.82-11.55,39.93.3,4.11,1.74,8.09,1.77,12.22.27,10.71-4.28,20.92-10.32,29.48a62.63,62.63,0,0,1-8.12,9.37c8.71-13,17.15-28.45,13.71-44.39-3.76-16.72,3.87-34,14.51-46.61Z" transform="translate(-132.13 -75.79)" style="fill:#543c52"/><path d="M202,210.5c1.16,12.88-3.32,34-15.34,40.91,4.42-6,6.59-12.81,8.87-19.76s4.05-14.1,6.47-21.15Z" transform="translate(-132.13 -75.79)" style="fill:#543c52"/><path d="M184.5,193.5c-6.76,17.38-22.54,53.88-19.09,71.38,4.07,19.68-12.41,55.06-21.91,72.62,6.47-17.45,21.75-54.3,18-71.68-3.8-19.76,13.2-54.89,23-72.32Z" transform="translate(-132.13 -75.79)" style="fill:#543c52"/><path d="M164,243.07c-2.83,16.51-8.43,33.36-10.32,50,0,1.12-.09,2.27-.18,3.44-.35-1.1-.64-2.23-.93-3.38-2.43-15.79,3.8-36.23,11.43-50.05Z" transform="translate(-132.13 -75.79)" style="fill:#543c52"/><path d="M174.5,233.5c1.75,13,.37,40.76-8,51,2.31-7.09,2.75-17.94,3.84-25.38a232.45,232.45,0,0,1,4.16-25.62Z" transform="translate(-132.13 -75.79)" style="fill:#543c52"/><path d="M190.4,188.87c2.17,7.83,1.45,27.54-5.9,32.36,1.26-2.5,1.28-5.22,1.66-7.92,1-8.23,1.66-16.47,4.24-24.44Z" transform="translate(-132.13 -75.79)" style="fill:#543c52"/><path d="M213.89,156.5A197.59,197.59,0,0,0,204.5,178c-2.15,5.77-3.57,11.49-5.24,17.5-2.4-13.89,3.75-30,14.63-39Z" transform="translate(-132.13 -75.79)" style="fill:#543c52"/><path d="M182.91,261.45c2.59,24.82.06,59.29-12.41,81.23,7.77-26.47,9.16-54,12.41-81.23Z" transform="translate(-132.13 -75.79)" style="fill:#543c52"/><path d="M162.5,305.5c-4.25,47.21-6.42,95-1.16,142.23.59,6.69,1.82,13.57,2.66,20.23-1.25-4.95-2.62-9.91-3.66-14.91-5.42-26.75-6.74-54.36-5.73-81.58,1-22.13,3.19-44.3,7.89-66Z" transform="translate(-132.13 -75.79)" style="fill:#543c52"/><path d="M194.49,305.5c-2.16,33.2-3.27,66.47-1.89,99.69,1.11,24.8,3.42,49.73,9.75,73.79a154.71,154.71,0,0,0,8.15,23.52,124.11,124.11,0,0,1-10-23c-16.39-50.61-14.3-121.61-6-174Z" transform="translate(-132.13 -75.79)" style="fill:#543c52"/><path d="M153.07,419.62C140,450.36,135.48,484,134.68,517.14c-.14,4.78,0,9.56-.18,14.36-.37-2.37-.68-4.75-1-7.13-.61-4-1-10.25-1.2-14.38a183.21,183.21,0,0,1,6.44-57.31c3.28-11.53,7.66-23,14.32-33.06Z" transform="translate(-132.13 -75.79)" style="fill:#543c52"/><path d="M241.5,432.5a358.85,358.85,0,0,1,7.9,66c.13,8.92,0,17.87-1.51,26.7-.69,3.28-1.39,6.77-3.45,9.53a3.61,3.61,0,0,1-2.94,1.54,3.42,3.42,0,0,0,2.44-1.89c1.49-2.88,1.72-6.23,2-9.43a233.36,233.36,0,0,0-.32-26.31c-1.12-21.88-3.26-44.19-4.12-66.1Z" transform="translate(-132.13 -75.79)" style="fill:#543c52"/><path d="M304,433a317.83,317.83,0,0,1,1.65,42.41q-.23,10.62-1.19,21.22c-.83,7-1.31,14.32-4,20.92,1-7,.64-14.06.86-21.09.26-21.18.46-42.36,2.66-63.46Z" transform="translate(-132.13 -75.79)" style="fill:#543c52"/><path d="M376,305.5c6,16,14.29,30.85,22.89,45.56,1.22,2.13,2.52,4.21,3.65,6.44-13.61-12.71-25.53-33.14-26.54-52Z" transform="translate(-132.13 -75.79)" style="fill:#543c52"/><path d="M297.64,319.19c4.49,1.63,10.18,4.64,14.47,6.71,4.59,2,9.26,5,14.39,3.6-1.75,2.39-5.31,2.81-8.06,2.49-8.29-1.24-15.75-6.25-20.8-12.8Z" transform="translate(-132.13 -75.79)" style="fill:#543c52"/><path d="M282.5,323.28c8.38,8.37,20,11.69,31.09,14.88,6.09,1.62,6.17,1.52-.24,1.94-11.6.11-26.58-5-30.85-16.82Z" transform="translate(-132.13 -75.79)" style="fill:#543c52"/><path d="M284,360.72c9.27,8,17.82,17,28.47,23.11a77.56,77.56,0,0,0,24,6.67c-7.52,1.62-15.51.31-22.78-2-12.09-4.53-23.06-17-29.68-27.78Z" transform="translate(-132.13 -75.79)" style="fill:#543c52"/><path d="M336.5,400.55a21.55,21.55,0,0,1,7,16.95,21.57,21.57,0,0,1-7-16.95Z" transform="translate(-132.13 -75.79)" style="fill:#543c52"/><path d="M348,419.62c12.38,14.73,29.08,36.93,49.86,37.44-21.55,5.45-42.49-19.63-49.86-37.44Z" transform="translate(-132.13 -75.79)" style="fill:#543c52"/><path d="M371.5,409.5c9.58,2.44,16.19,13.59,16.56,23.05-5.81-7.61-10.17-15.83-16.56-23.05Z" transform="translate(-132.13 -75.79)" style="fill:#543c52"/><path d="M415.43,409c-.38,2.81-1.67,5.07-2.19,7.69a7.8,7.8,0,0,0,.48,2.9,3.8,3.8,0,0,1-3.46-1.88c-2-3.79,1.2-8.32,5.17-8.71Z" transform="translate(-132.13 -75.79)" style="fill:#543c52"/><path d="M324.5,163.5c3.93,8.21,13,11.94,21.11,14.68,5.25,1.61,10.58,2.74,15.89,4.32-1.86.28-3.74.38-5.63.49-9.48.06-19.59-2.28-26.54-9.16-2.66-2.71-4.93-6.44-4.83-10.33Z" transform="translate(-132.13 -75.79)" style="fill:#543c52"/><path d="M327.5,178.5c6.75,4.78,13,10,19.62,14.8,4.91,3.48,9.82,7,15.45,9a18.44,18.44,0,0,0,5.93,1.16c-14,4.84-34.08-13.94-41-25Z" transform="translate(-132.13 -75.79)" style="fill:#543c52"/><path d="M272.5,248.5c-.18,3.13-5.86,3.62-6,0,.14-3.63,5.83-3.13,6,0Zm0,0c-.08-2.24-3.82-1.92-4,0,.17,1.92,3.92,2.25,4,0Z" transform="translate(-132.13 -75.79)" style="fill:#543c52"/><path d="M284.5,246.5c-.48,1.37-7.45,2.07-7.5,0s7-1.38,7.5,0Zm0,0c-.05-.33-.42-.46-.69-.57a7,7,0,0,0-2.81-.18,8.25,8.25,0,0,0-3,.77c-.09.06-.06.12,0,0s-.05-.08,0,0a8.25,8.25,0,0,0,3,.77,7,7,0,0,0,2.81-.18c.27-.11.64-.24.69-.57Z" transform="translate(-132.13 -75.79)" style="fill:#543c52"/></svg>