<svg id="Шар_1" data-name="Шар 1" xmlns="http://www.w3.org/2000/svg" viewBox="0 0 298.85 353.71"><path d="M127.5,216.5" transform="translate(-115.4 -101.6)" style="fill:#669186;stroke:#fff;stroke-miterlimit:10;opacity:0.21"/><path d="M127.5,216.5s-39,72,24,132c0,0,3,39,33,45s54-40,32-64c0,0-2-6-20-12s-50-20-60-76C136.5,241.5,135.5,210.5,127.5,216.5Z" transform="translate(-115.4 -101.6)" style="fill:#669186"/><path d="M127.5,216.5c-15.58,32.28-16.18,72.36,2,103.7,6,10.5,13.88,19.83,22.37,28.27,1.43,12.21,5.62,24.68,14,33.92,14.25,15.23,35,14.83,48.25-1.51,11.75-13.95,15.2-36.89,2.13-51.11-1.11-2.25-3.42-4-5.5-5.39-6.62-4.39-14.33-6.27-21.64-9.23a79.46,79.46,0,0,1-26.31-17.25c-15-15.09-22.68-35.76-26.39-56.38-.24-4.47-1.25-30.22-8.87-25Zm0,0c2.66-2,4.56.43,5.54,2.85,2.66,7,3.12,14.78,3.59,22.13,3.91,20.48,11.58,41,26.56,56a78.82,78.82,0,0,0,26.14,17c7.27,2.91,15.14,4.83,21.8,9.23,2.12,1.37,4.88,3.64,5.66,5.5,13.41,14.5,10,38-2,52.27-13.53,16.81-35,17.18-49.63,1.48-8.46-9.46-12.63-22-14.07-34.45a121.67,121.67,0,0,1-22.17-28c-18.24-31.52-17.41-71.75-1.45-104Z" transform="translate(-115.4 -101.6)" style="fill:#fff"/><path d="M189.26,399.71l3.24,13.79s-15,7,11,37c0,0,3,6,18,4,0,0,18.95,3.61,26.85-5.46a3.49,3.49,0,0,1,3-1.25c4.52.47,16.42.22,25.16-13.29,0,0,12-2,17-10,0,0,38-13,58-36,0,0,68.93-24.27,26-132.13a11.13,11.13,0,0,1,.56-9.43c8.48-15.48,35.15-67.2,35.71-105.8a18.8,18.8,0,0,0-5-13c-9.06-9.84-29.46-29.4-45.3-25.63-21,5-29,5-59,40,0,0-31,2-52,58,0,0-13,14,0,42,0,0,1,18-8,28,0,0,19-1,18,16s2,31-25,42c0,0-12.91,4-13.45,4s15.54,10.73,0,41.87c-11.89,23.82-26.39,24.15-32.55,23A1.94,1.94,0,0,0,189.26,399.71Z" transform="translate(-115.4 -101.6)" style="fill:#669186"/><path d="M189.26,399.71s3.27,13.81,3.25,13.8c-2.6,1.42-3.93,4.38-4.23,7.22-.3,4.27,1.2,8.41,3,12.2,3.16,6.42,7.67,12.09,12.25,17.54,1.83,2.67,5.29,3.67,8.35,4.11a36.68,36.68,0,0,0,9.59-.16c8.59,1.22,18.83,1.53,25.79-4.44.92-.86,1.75-2.08,3.12-2.26s2.56.16,3.87.06a25,25,0,0,0,11.07-2.88,30.4,30.4,0,0,0,11.08-10.53,34.36,34.36,0,0,0,9.51-3.37,20.86,20.86,0,0,0,7.52-6.65,192.18,192.18,0,0,0,31.08-14.68c9.85-5.87,19.2-12.76,26.83-21.36,11.92-4.92,21.88-14.17,28.67-25.05,11.48-18.46,12.88-41.27,9.73-62.33a197.07,197.07,0,0,0-10-37.34l-2.27-6a12.09,12.09,0,0,1-.34-9.7A437.46,437.46,0,0,0,397.86,204c7.12-17.95,13.1-36.57,15-55.85l.35-6.42a18.57,18.57,0,0,0-5.63-14.24l-2.23-2.33c-9.64-9.61-23.36-22.19-37.56-22.74-3.56,0-9,1.66-12.56,2.41-8.38,1.89-16.44,5.14-23.22,10.5-10.25,7.85-18.77,17.67-27.27,27.36l-.08.1-.16,0c-4.92.6-9.69,2.84-14,5.31-8.6,5.26-15.8,12.79-21.58,21-.61.93-3,4.45-3.53,5.25-1.08,1.88-3.31,5.74-4.42,7.69-1.46,3-3,6.06-4.4,9.13l-3.85,9.37c-6.28,8-6.77,19.25-4.53,28.85a70.59,70.59,0,0,0,4.48,13,49.75,49.75,0,0,1-4,22,28.14,28.14,0,0,1-4.08,6.27l-.15-.32c6.61-.13,14.45,2.24,17.11,8.89,1.36,3.18,1.12,6.71.93,10.07s-.2,6.75-.48,10.13c-.69,15.63-10.91,23.77-24.51,29.2-4.49,1.34-8.94,2.81-13.48,4-.05,0,0,0,.07-.06s0,0,0,0a20.43,20.43,0,0,1,3.55,4.47c5.64,9.84,3,22-1,31.9-3.44,8.05-7.85,16-14.41,21.89-4.9,4.37-11.34,7.35-18,6.95-1.11,0-2.19-.31-3.28-.35a2,2,0,0,0-1.68,2.38Zm0,0a1.94,1.94,0,0,1,1.68-2.38,8.34,8.34,0,0,1,1.64.19,21.43,21.43,0,0,0,8.17-.52c8.67-2.21,15.18-9.11,19.76-16.48,6.61-11,12.34-24.35,9.45-37.41a21,21,0,0,0-5.88-10.41l-.08-.08,0-.05a.29.29,0,0,1,0-.09.14.14,0,0,1,.12-.09c4.5-1.18,8.94-2.65,13.41-4,13.51-5.44,23.62-13.47,24.28-29,.27-3.36.33-6.74.46-10.12s.42-6.78-.93-9.92c-2.6-6.49-10.32-8.77-16.77-8.64h-.43l.28-.33c6.47-7.49,8.06-18.51,7.94-27.78a86.43,86.43,0,0,1-3.88-10.35l-.66-2.69-.33-1.35c-1.81-9.4-1.26-20.07,4.87-27.88l-.05.09,3.84-9.42A148.36,148.36,0,0,1,263,177.4l1.26-2.21c.21-.36.41-.74.64-1.1,1.35-2.05,2.37-3.53,3.54-5.29,6.3-9,14.25-17.22,24-22.45a35.22,35.22,0,0,1,12.06-4.2l-.24.12c8.49-9.73,17.05-19.62,27.33-27.52,6.81-5.42,15.05-8.78,23.48-10.68,3.45-.67,9.14-2.58,12.76-2.47,15.21.48,30.43,14.86,40.48,25.28a19.54,19.54,0,0,1,5.93,14.91l-.35,6.49c-2,19.38-8,38.07-15.19,56.09a438.9,438.9,0,0,1-20.77,43.78,11.28,11.28,0,0,0,.33,9.12l2.27,6.06a198.72,198.72,0,0,1,9.91,37.5c3.13,21.19,1.67,44.16-9.93,62.72-6.71,10.85-17.32,20.51-28.82,25.1-7.68,8.61-17.06,15.49-26.95,21.35a191.31,191.31,0,0,1-31.17,14.65,20.21,20.21,0,0,1-7.47,6.62,34.89,34.89,0,0,1-9.56,3.37,30.09,30.09,0,0,1-11.06,10.48A25.37,25.37,0,0,1,254.28,448c-1.27.1-2.61-.21-3.84-.08s-2.09,1.36-3,2.2c-7,6-17.39,5.67-25.91,4.45-5.86.63-14.11,1.13-18.06-4.05-6.41-7.77-15.76-19.16-15.22-29.81.32-2.85,1.65-5.8,4.26-7.23,0,.08-3.23-13.79-3.23-13.78Z" transform="translate(-115.4 -101.6)" style="fill:#fff"/><path d="M199.5,266.5s-8.4,32.2,8.18,51.51a23.79,23.79,0,0,0,26.78,6.52c9.19-3.59,20.21-11.52,24-29,7-32-20-15-20-15S229.5,291.5,199.5,266.5Z" transform="translate(-115.4 -101.6)" style="fill:#669186"/><path d="M199.5,266.5c-2.75,13-3,27,1.61,39.57,6.6,17.82,22.79,25.4,39.52,14.87,8.6-5.12,14.53-13.95,16.92-23.6,1.31-5.69,3.37-14.09-.69-19-4.78-4.51-13.34-.27-18.18,2.42-2.35,2.46-7.14,2.74-10.67,2.1-8.23-1.62-15.38-6.35-22-11.23-1.6-1.12-4.93-3.94-6.48-5.16Zm0,0c1.6,1.22,5,4,6.57,5,6.67,4.7,13.92,9.27,22,10.79,3.45.51,7.58.47,10.21-2.11,5.2-3,14-7.37,19.16-2.44,4.4,5.18,2.34,13.78,1,19.81-2.41,9.88-8.48,19-17.33,24.18-17.3,10.72-34,3-40.62-15.46-4.55-12.74-4-26.79-1-39.8Z" transform="translate(-115.4 -101.6)" style="fill:#fff"/><path d="M306.63,312.9a2.17,2.17,0,0,1,2.08,2.87c-5,14.87-25,8.54-21.21,5.73,2.77-2.08,4.1-7,4.66-9.88a1.75,1.75,0,0,1,2.37-1.28A32.44,32.44,0,0,0,306.63,312.9Z" transform="translate(-115.4 -101.6)" style="fill:#669186"/><path d="M306.63,312.8a2.44,2.44,0,0,1,2.44,2.52A14.14,14.14,0,0,1,308,319c-2.07,5-7.83,7-12.85,6.61-2.81-.2-5.92-.29-8.22-2.19a1.7,1.7,0,0,1-.5-1.33,2,2,0,0,1,.73-1.22,10.1,10.1,0,0,0,2.29-3.47,28.76,28.76,0,0,0,1.52-5,4.39,4.39,0,0,1,.78-2.17,2.83,2.83,0,0,1,3.27-.75c.27.08,1,.41,1.24.52,3.24,1.31,6.86,2.94,10.42,2.86Zm0,.19a35,35,0,0,1-12.39-1.68.73.73,0,0,0-1,.57l-.2.92c-.88,3.45-2.14,7.28-5.21,9.4-.29.21.31.72.56.94,3.83,2.67,9.6,2.17,13.44-.24a16.58,16.58,0,0,0,6-6,9.3,9.3,0,0,0,.73-1.59,2,2,0,0,0-1.93-2.28Z" transform="translate(-115.4 -101.6)" style="fill:#fff"/><path d="M286.5,309.5s-1-9,4-9,9,11,22,5" transform="translate(-115.4 -101.6)" style="fill:#669186"/><path d="M286.5,309.5c-2.54-9.07,3.09-13.83,10.54-7.1,4.73,4,9.47,4.62,15.46,3.1a13.64,13.64,0,0,1-8.63,2.88c-3.19,0-6.25-1.71-8.65-3.6-1.75-1.21-3.09-2.95-5.1-2.94-2.78.27-3.22,5.29-3.62,7.66Z" transform="translate(-115.4 -101.6)" style="fill:#fff"/><path d="M285.5,297.5s-6.17-10.6-6.59,27.7" transform="translate(-115.4 -101.6)" style="fill:#669186"/><path d="M285.5,297.5c-.9-.88-2-1.44-2.6,0-1.34,3.57-1.3,7.71-1.77,11.56a121.34,121.34,0,0,1-2.22,16.14,55.32,55.32,0,0,1,.79-24.62c.61-1.63,1.28-3.73,3-4.71,1.23-.7,2.52.59,2.78,1.63Z" transform="translate(-115.4 -101.6)" style="fill:#fff"/><path d="M273.5,303.5s-4,12,2,22" transform="translate(-115.4 -101.6)" style="fill:#669186"/><path d="M273.5,303.5c0,7.38.16,14.81,2,22-5.81-5.48-6.19-15.44-2-22Z" transform="translate(-115.4 -101.6)" style="fill:#fff"/><path d="M268.5,316.5a12.18,12.18,0,0,0,3,13" transform="translate(-115.4 -101.6)" style="fill:#669186"/><path d="M268.5,316.5a49.24,49.24,0,0,0,3,13c-5.12-1.67-6.93-9.27-3-13Z" transform="translate(-115.4 -101.6)" style="fill:#fff"/><path d="M287.5,341.5s22,5,31-13" transform="translate(-115.4 -101.6)" style="fill:#669186"/><path d="M287.5,341.5c12.26,0,23.41-2.65,31-13-3.4,12.87-19.51,17.72-31,13Z" transform="translate(-115.4 -101.6)" style="fill:#fff"/><path d="M277.5,346.5s17,12.28,34.52-4.36" transform="translate(-115.4 -101.6)" style="fill:#669186"/><path d="M277.5,346.5c9.27,3.9,19.57,4,28.42-.85,2.08-1,4.06-2.37,6.1-3.51a36,36,0,0,1-3.18,3.61c-8.66,8.19-22.47,9-31.34.75Z" transform="translate(-115.4 -101.6)" style="fill:#fff"/><path d="M295.5,357.5s23.38-3,28.69-29" transform="translate(-115.4 -101.6)" style="fill:#669186"/><path d="M295.5,357.5c10.86-3.76,20.29-11.23,25.39-21.61.37-.82,1.43-2.79,1.72-3.62.49-1.27,1-2.51,1.58-3.77-.11,1.59-.33,3.21-.56,4.8-2.58,13.08-14.62,24-28.13,24.2Z" transform="translate(-115.4 -101.6)" style="fill:#fff"/><path d="M328.5,274.5s5,11-1,31,6,22,6,22" transform="translate(-115.4 -101.6)" style="fill:#669186"/><path d="M328.5,274.5c4.39,8.76,3.51,19.28,1.23,28.52-.54,2-1.39,4.84-1.85,6.82-.11.54-.4,2-.51,2.52s-.22,2-.28,2.53c-.42,5,1.23,10.67,6.41,12.61-5.2-.44-8.5-5.92-8.79-10.79a27.09,27.09,0,0,1,0-4.68c.08-.57.32-2.17.4-2.76.94-4.56,2.5-9.22,3.24-13.83,1.18-6.9,1.71-14,.16-20.94Z" transform="translate(-115.4 -101.6)" style="fill:#fff"/><path d="M336.5,294.5s-6,19,4,30" transform="translate(-115.4 -101.6)" style="fill:#669186"/><path d="M336.5,294.5c-.55,10.46-1.2,20.64,4,30-8.94-6.81-8.85-20.74-4-30Z" transform="translate(-115.4 -101.6)" style="fill:#fff"/><path d="M283.5,210.5s15,26,34,30,39,29,39,29" transform="translate(-115.4 -101.6)" style="fill:#669186"/><path d="M283.5,210.5c8.62,11.54,19.8,25,34.26,28.53.76.2,2.27.61,3,.83a45.19,45.19,0,0,1,9.78,4.58c10.28,6.43,18.89,15.27,25.94,25.06-8.33-8.44-17.12-16.63-27.39-22.62a44.36,44.36,0,0,0-9.21-4.17c-1.28-.34-3-.85-4.29-1.15-14.42-4.33-25.38-18.2-32.11-31.06Z" transform="translate(-115.4 -101.6)" style="fill:#fff"/><path d="M297.64,204.13s8.24,19.67,26.55,25S358.5,253.5,358.5,253.5" transform="translate(-115.4 -101.6)" style="fill:#669186"/><path d="M297.64,204.13c6.12,10.47,15.11,20,27,23.6l2.45.81c12.71,4.77,23.39,14.23,31.44,25-9.69-8.91-20-17.54-32.44-22.13l-4.75-1.68c-11.2-4.31-19.65-14.45-23.67-25.56Z" transform="translate(-115.4 -101.6)" style="fill:#fff"/><path d="M321.5,217.5s19,2.38,35,13.69" transform="translate(-115.4 -101.6)" style="fill:#669186"/><path d="M321.5,217.5c12.51-.18,26.05,4.87,35,13.69a325.35,325.35,0,0,0-35-13.69Z" transform="translate(-115.4 -101.6)" style="fill:#fff"/><path d="M358.5,182.68s9.72,12.28,9.86,33" transform="translate(-115.4 -101.6)" style="fill:#669186"/><path d="M358.5,182.68c8.46,8.22,11.87,21.58,9.86,33-.4-1.45-.6-2.9-.92-4.32a128.83,128.83,0,0,0-8.94-28.73Z" transform="translate(-115.4 -101.6)" style="fill:#fff"/><path d="M364.5,179.5s17.19,12.63,15.1,49.31" transform="translate(-115.4 -101.6)" style="fill:#669186"/><path d="M364.5,179.5c7.65,5,12,13.9,14.28,22.5a63,63,0,0,1,.82,26.81c-.4-3.21-.5-6.73-.94-9.94-1.47-13.89-4.81-28.53-14.16-39.37Z" transform="translate(-115.4 -101.6)" style="fill:#fff"/><path d="M359.5,154.5s12,1,24,18" transform="translate(-115.4 -101.6)" style="fill:#669186"/><path d="M359.5,154.5c10.4-.4,20.19,8.9,24,18-3.38-2.92-6.47-6.08-9.87-8.94-4.36-3.59-8.83-6.87-14.13-9.06Z" transform="translate(-115.4 -101.6)" style="fill:#fff"/><path d="M230.5,381.5s18.89-14.36,9.95-46.18" transform="translate(-115.4 -101.6)" style="fill:#669186"/><path d="M230.5,381.5c8.8-10.12,11.86-23.81,10.83-36.9-.1-3-.64-6.24-.88-9.28a44.52,44.52,0,0,1,3.15,24.93c-1.61,8.26-5.85,16.65-13.1,21.25Z" transform="translate(-115.4 -101.6)" style="fill:#fff"/><path d="M197.37,408.13s18.13,6.37,29.13-7.63" transform="translate(-115.4 -101.6)" style="fill:#669186"/><path d="M197.37,408.13c10.9,1,20.56-.38,29.13-7.63-5,10.44-19.53,13.13-29.13,7.63Z" transform="translate(-115.4 -101.6)" style="fill:#fff"/><path d="M234.57,409.57S223.5,429.5,238.5,441.5" transform="translate(-115.4 -101.6)" style="fill:#669186"/><path d="M234.57,409.57c-3.22,11.24-4.36,22.56,3.93,31.93-11.8-5.91-11.52-22.69-3.93-31.93Z" transform="translate(-115.4 -101.6)" style="fill:#fff"/><path d="M246.5,397.5s30.5-14.85,21.25,12.07" transform="translate(-115.4 -101.6)" style="fill:#669186"/><path d="M246.5,397.5c5.38-3.74,13.66-7.34,20.15-4.54,6.29,3.3,4,11.86,1.1,16.61a39.89,39.89,0,0,0,.55-9c-.27-2.75-1.55-4.8-4.29-5.38-5.61-1-11.84,1.07-17.51,2.31Z" transform="translate(-115.4 -101.6)" style="fill:#fff"/><path d="M287.5,399.19s15.52,4.91,7.26,17.11" transform="translate(-115.4 -101.6)" style="fill:#669186"/><path d="M287.5,399.19c9.26.25,15.37,10.55,7.26,17.11a26.25,26.25,0,0,0,1.1-5.3c.37-5.51-4.42-8.7-8.36-11.81Z" transform="translate(-115.4 -101.6)" style="fill:#fff"/><path d="M262,406.47a3.78,3.78,0,0,0-5.2-.51c-5.11,4.07-15.18,12.93-14,18.76,1.65,7.78,6.65,7.78,6.65,7.78s7,6,6-16c0,0,.69-6.93,3-5C259.86,412.64,263.73,408.49,262,406.47Z" transform="translate(-115.4 -101.6)" style="fill:#669186"/><path d="M262,406.47a3.78,3.78,0,0,0-5.62,0l-1,.85a52.48,52.48,0,0,0-8.51,9.38c-1.81,2.72-3.51,5.85-2.55,8.44.66,2.16,1.62,4.17,3.5,5.32a4.24,4.24,0,0,0,1.64.6l1,.36.28.18c3.79,2.06,4.26-12.87,4.3-15.11.34-1.64,1.23-7.09,3.76-4.94,2,.34,4.65-3.32,3.2-5Zm0,0c1.49,1.68-1.24,5.62-3.29,5.29-.55-.28-1-.68-1.46-.2-1.08,1.32-1.11,3.33-1.29,5,.29,4.4,2.11,16.32-3.8,18a4.37,4.37,0,0,1-3.62-1l1,.36c-4.28-.19-7.09-4.44-7.79-8.21a7.28,7.28,0,0,1,.23-4.45c2.16-5.41,7-9.09,11.28-12.67,1.35-1.07,2.65-2.16,4.1-3.1a3.88,3.88,0,0,1,4.68.92Z" transform="translate(-115.4 -101.6)" style="fill:#fff"/><path d="M287.5,411.45s-14-1.95-10,24.05" transform="translate(-115.4 -101.6)" style="fill:#669186"/><path d="M287.5,411.45c-8.57,1.37-9.26,11.39-9.61,18.41-.18,1.89-.1,3.72-.39,5.64-.48-1.19-.82-2.41-1.18-3.64a26.28,26.28,0,0,1-.36-11.57c1-5.22,5.74-10.67,11.54-8.84Z" transform="translate(-115.4 -101.6)" style="fill:#fff"/><path d="M318.5,391s6.35,14.38,27.68,4.93" transform="translate(-115.4 -101.6)" style="fill:#669186"/><path d="M318.5,391c6.12,7.34,15.17,7.45,23.81,5.66,4.61-1,4.61-1,.48,1.39a22.18,22.18,0,0,1-11.86,2.47c-5.43-.4-11.09-4.09-12.43-9.52Z" transform="translate(-115.4 -101.6)" style="fill:#fff"/><path d="M270.35,160.1a2.14,2.14,0,0,1,.43,3.22c-8.7,9.76-14.29,25.13-19.86,32.68-2.65,3.58-7.8,1.08-7.41-3.36a.32.32,0,0,0,0-.14c-2-5.91-10.24-8.23-13.92-12.31a27.35,27.35,0,0,1-6.92-18.85l.66-33.89a6.61,6.61,0,0,1,10.88-4.9c4.48,3.78,10.25,10.79,17.07,23.6a10.47,10.47,0,0,0,3.52,3.84Z" transform="translate(-115.4 -101.6)" style="fill:#669186"/><path d="M270.35,160.1a2.15,2.15,0,0,1,.79,2.68,21,21,0,0,1-1.89,2.38,101.88,101.88,0,0,0-9.58,15.49c-1.89,3.59-3.66,7.24-5.65,10.78-2,3.35-4.45,8.91-9.09,5.44a5.07,5.07,0,0,1-1.71-4.26s-.09-.25-.1-.28c-2.61-6.22-10.3-7.51-14.38-12.48A27.4,27.4,0,0,1,223.09,169c-1.12-4-.93-8.16-.84-12.21l.55-24.33c.09-1.77,0-4.34.25-6.13a7,7,0,0,1,6.84-5.65c7.28-.28,18,19,21.2,25a10.63,10.63,0,0,0,4,4.44l5.09,3.33,10.18,6.66Zm0,0L255,150.2a10.85,10.85,0,0,1-4.06-4.46c-1.93-3.56-4-7.06-6.25-10.42-3.44-4.86-7-10.1-12-13.39a6.29,6.29,0,0,0-8.87,4.51c-.22,1.58-.08,4.33-.17,6l-.4,24.33c-.11,4-.33,8.05.73,12,1.52,5.75,4.75,11.25,10,14.38,3.34,2.25,7.23,4.23,9.25,7.93a8.66,8.66,0,0,1,.48,1.08l.07.18a.74.74,0,0,1,.06.25,4.3,4.3,0,0,0,4.08,4.92,3.65,3.65,0,0,0,2.53-1.19,40.58,40.58,0,0,0,3.35-5c4.05-7,7.44-14.43,11.91-21.2,1.11-1.7,2.31-3.34,3.57-4.93a24.84,24.84,0,0,0,1.9-2.36,2.16,2.16,0,0,0-.78-2.68Z" transform="translate(-115.4 -101.6)" style="fill:#fff"/><path d="M309.5,202.5" transform="translate(-115.4 -101.6)" style="fill:#669186;stroke:#fff;stroke-miterlimit:10"/><path d="M335.5,190.5s-2-13.43,5-14.71c6.31-1.16,11.81-20,12.83-23.66a4.8,4.8,0,0,0,.18-1.3c0-5-.87-35.82-22-41.33,0,0-9-4-9,12s0,23-1,33S337.5,185.5,335.5,190.5Z" transform="translate(-115.4 -101.6)" style="fill:#669186;stroke:#fff;stroke-miterlimit:10"/><path d="M311.5,205.5s-11-15,10-51" transform="translate(-115.4 -101.6)" style="fill:#669186"/><path d="M311.38,205.59c-5.43-8.65-3.58-20.72-1-30.06a53.37,53.37,0,0,1,6.92-15.6c1.28-1.89,2.6-3.75,4.06-5.51l.26.16c-2.27,6.31-4.93,12.49-7.51,18.67-.68,1.8-1.78,4.39-2.28,6.23-2.1,6.8-3.3,14.2-1.89,21.26a17.7,17.7,0,0,0,1.67,4.67l-.24.18Z" transform="translate(-115.4 -101.6)" style="fill:#fff"/><path d="M346.66,205.5s13.12,0,6-51" transform="translate(-115.4 -101.6)" style="fill:#669186"/><path d="M346.66,205.35c7-2,7-17.94,6.87-24L353.4,178a178.41,178.41,0,0,1-.91-23.48l.3,0A76.29,76.29,0,0,1,356,171.14c.15,3.13.1,7.06-.05,10.21-.22,5.63-.75,11.46-2.67,16.83-1.17,3.07-3,6.92-6.6,7.47v-.3Z" transform="translate(-115.4 -101.6)" style="fill:#fff"/><path d="M298.27,579.7" transform="translate(-115.4 -101.6)" style="fill:none;stroke:#1d1d1b;stroke-miterlimit:10"/><path d="M299.4,318.08a20.38,20.38,0,0,1-5.13-.23,1.66,1.66,0,0,1-1.34-2.05l.3-1.22a1.06,1.06,0,0,1,1.33-.76l5.1,1.54A1.39,1.39,0,0,1,299.4,318.08Z" transform="translate(-115.4 -101.6)" style="fill:#fff"/><path d="M299.4,318.08a23.33,23.33,0,0,1-5-.09,1.84,1.84,0,0,1-1.73-1.8,7.64,7.64,0,0,1,.25-1.28,1.63,1.63,0,0,1,.69-1.21c.71-.45,1.77.19,2.59.39s2.81,1,3.56,1.22a1.44,1.44,0,0,1-.35,2.77Zm0,0a1.39,1.39,0,0,0,1.14-1.83c-.27-.86-1.28-.86-2.05-1.11s-2.85-.75-3.62-1a1.12,1.12,0,0,0-1,0c-.5.25-.65,1.55-.76,2.06a1.53,1.53,0,0,0,1.34,1.56,17.65,17.65,0,0,0,5,.33Z" transform="translate(-115.4 -101.6)" style="fill:#fff"/><path d="M293.63,321.12a1.07,1.07,0,0,1,.66-1.71l1.8-.31a.92.92,0,0,1,.61.46l-.42,3a.71.71,0,0,1-1.26.34Z" transform="translate(-115.4 -101.6)" style="fill:#fff"/><path d="M293.63,321.12a1.1,1.1,0,0,1,.47-1.69c.59-.16,1.42-.32,2-.43a.92.92,0,0,1,.69.57c-.09.83-.24,1.75-.37,2.58l-.07.43a.79.79,0,0,1-1.1.58c-.29-.15-.41-.44-.59-.66l-1.05-1.38Zm0,0a14.12,14.12,0,0,0,1.68,1.94c.67.21.92-.34.92-.94.11-.84.23-1.75.36-2.58l0,.07a.88.88,0,0,0-.54-.42h0c-.58.1-1.43.18-2,.3a1.06,1.06,0,0,0-.49,1.63Z" transform="translate(-115.4 -101.6)" style="fill:#fff"/><path d="M298,320.22l.87,1.3a1,1,0,0,0,1.48.15l2.49-2.49a.62.62,0,0,0-.6-1l-3.88,1.11A.63.63,0,0,0,298,320.22Z" transform="translate(-115.4 -101.6)" style="fill:#fff"/><path d="M298,320.22c.55.78,1.35,2.45,2.37,1.26.75-.85,1.52-1.71,2.31-2.5a.39.39,0,0,0-.49-.59l-3.33.76c-.6.1-1.22.37-.86,1.07Zm0,0c-.39-.68.28-1,.84-1.13l1.61-.56,1.62-.55a.86.86,0,0,1,1,.24.87.87,0,0,1,0,1.1c-.81.83-1.65,1.57-2.51,2.33a1.14,1.14,0,0,1-.82.38,1.08,1.08,0,0,1-.79-.37l-.93-1.44Z" transform="translate(-115.4 -101.6)" style="fill:#fff"/><path d="M275.5,163.5s24.16-13.5,31.33-9S301,195.19,301,195.19,269,248,301,259s65.45,10,60.23,41.48-13.78,68.95-26.5,76.22S298.15,395.07,306.57,405s25.43.31,26.93-.87c.56-.43,4.5-13.17,17.5-17.17,24.5-7.54,45.06-40.72,39.64-82.12,0,0-11.69-46.49-13.66-50.18s4.78-14.7,4.78-14.7,36.33-74.88,31.79-101.94-45.42-37.95-47-36c0,0-30.56,5.94-27.56,9.94s17.55,11.94,13.77,43.47c0,0,8.67,44.53-8,50s-34,0-34,0S297,186,320,154.5c0,0,2-28.48,1.5-28S305,144,305,144,293,143,275.5,163.5Z" transform="translate(-115.4 -101.6)" style="fill:#bbd4ce;opacity:0.15"/><path d="M128.73,216.85S89,288,152,348c0,0,4,35,24,42s37-9,37-9-98.11-36.5-83.7-163.5Z" transform="translate(-115.4 -101.6)" style="fill:#bbd4ce;opacity:0.2"/><path d="M200,267s-2.45,53,24.28,56c0,0,10.08,2,19.4-8.5C243.68,314.5,203,313,200,267Z" transform="translate(-115.4 -101.6)" style="fill:#bbd4ce;opacity:0.18"/><path d="M257,396s-21,8-22,19,0,16,3.5,23,28.48-29,28-36.51S257,396,257,396Z" transform="translate(-115.4 -101.6)" style="fill:#bbd4ce;opacity:0.15"/></svg>