<svg id="Шар_1" data-name="Шар 1" xmlns="http://www.w3.org/2000/svg" viewBox="0 0 368.16 461.1"><path d="M382.08,84.41s17-36.94,9-50.92-35.95-7-35.95-7-19,5-21,16,15,26,15,26,22,20,22,53.92c0,0,5,5,4,11s7-12,4-26c0,0,10,17,11,16s-1-23-6-28l11,1S388.07,85.41,382.08,84.41Z" transform="translate(-113.56 -24.41)" style="fill:#e2a060"/><path d="M382.08,84.41c5.28-12.6,15-37.57,8.95-50.39-6.43-11.49-24.9-9.52-35.86-7.17-8.11,2.53-20.58,7.73-20.77,17.64.64,9.29,9,17.86,15.48,24,13.69,13.74,22.08,35.36,21.5,53.56,3,3.19,4.87,7.72,4,12.08,0,.07,0,.2,0,.13a.38.38,0,0,0-.16-.13.3.3,0,0,0-.19,0s0,0,0,0a25.77,25.77,0,0,0,2.46-6.43c1.95-7.19,2.71-14.9.87-22.18,3.47,5.72,6.75,11.69,10.89,16.94a2.5,2.5,0,0,0,.71.64s-.07,0-.09,0a18.34,18.34,0,0,0,.07-4.51,77.27,77.27,0,0,0-3.21-17.85,14.22,14.22,0,0,0-3.09-5.61l.45,0,11,1.07-.1.16a50.56,50.56,0,0,0-5.53-7.09c-2.06-2.11-4.39-4.31-7.36-5Zm0,0c3,.61,5.35,2.79,7.44,4.88a50.84,50.84,0,0,1,5.75,7.23l-.22,0-11-.93.14-.3c2.73,3.14,3.57,7.35,4.56,11.27a77.82,77.82,0,0,1,1.83,15.13,4,4,0,0,1-.31,1.87.48.48,0,0,1-.45.12,2.6,2.6,0,0,1-1-.81,52,52,0,0,1-3.59-5c-2.23-3.4-4.35-6.86-6.43-10.35l.6-.23c1.4,6.83.54,13.91-1.2,20.59-.7,2.3-1.26,4.73-2.61,6.76a.72.72,0,0,1-.37.23.49.49,0,0,1-.5-.24,1,1,0,0,1-.1-.5c.83-4.3-1-8.55-3.93-11.63a77.72,77.72,0,0,0-21.47-53.34c-6.73-6.42-17.9-18-15.15-28,3-8.42,13-12.5,20.92-15,11.3-2.38,29.95-4.23,36.52,7.6,6.14,12.95-4,38-9.43,50.64Z" transform="translate(-113.56 -24.41)" style="fill:#1d1d1b"/><path d="M370.1,76.42,351.67,58a1,1,0,0,1,.94-1.75c3.17.62,7.28,1.09,6.6-.79-.57-1.56-3-3.13-5.25-4.27a.82.82,0,0,1,.39-1.56c4.26.05,10-.22,8.76-2.15s-5.89-2.56-9.27-2.83a1.22,1.22,0,0,1-.53-2.26c5-3,14.47-7.38,18.78-.91,6,9-7.57,28.72-7.57,28.72Z" transform="translate(-113.56 -24.41)" style="fill:#c4a884"/><path d="M370.1,76.42c-5.48-5.49-11.86-11.51-17.47-17-.4-.45-1-.91-1.38-1.4a1.39,1.39,0,0,1,1.32-2.12,22.87,22.87,0,0,0,5.05.49c.39,0,1.1-.12,1.24-.46s-.39-.95-.66-1.28a16.15,16.15,0,0,0-4.5-3.09,1.25,1.25,0,0,1-.63-1.21,1.29,1.29,0,0,1,.83-1.09,4.5,4.5,0,0,1,1.09-.07h.93a28.71,28.71,0,0,0,5.5-.48,2.65,2.65,0,0,0,1.36-.61c.14-.29-.38-.71-.62-.91-2-1.31-4.6-1.6-6.93-1.9-.29,0-1.1-.12-1.39-.13a1.74,1.74,0,0,1-1.49-2.37c.3-.75,1.1-1,1.67-1.37,5.12-2.76,12.63-6.1,17.54-1.29,6.79,7.68-2.22,23.1-6.92,30.15V70.1c1.87,2.14,3.65,4.3,5.47,6.32Zm0,0c-1.9-2.14-3.84-4.13-5.68-6.14l-.07-.08.06-.09c4.28-6.92,12.93-22.1,6.52-29.4-4.08-4-10.38-1.53-14.79.66-.81.39-1.66.89-2.44,1.35a.82.82,0,0,0-.44.42.74.74,0,0,0,.66,1l1.42.13c2,.21,9.44,1.25,8.23,4.31a2.07,2.07,0,0,1-1,.71,21.8,21.8,0,0,1-6.67.77c-.38,0-1.46,0-1.73,0a.39.39,0,0,0-.06.7c.52.27,1.11.59,1.64.91,5.88,3.59,5.05,6.55-1.92,5.15a6.84,6.84,0,0,0-1.68-.23.7.7,0,0,0-.37,1c.66.74,1.83,1.87,2.53,2.61,5.13,5.24,10.53,11,15.76,16.17Z" transform="translate(-113.56 -24.41)" style="fill:#1d1d1b"/><path d="M220.32,119.36s5-31,25-46.93,18-24,18-24,1-18-30-21-29,14-29,14-1,32,6,41.94c0,0-9,7-9,11l11-2s-13.06,14-12.52,27l15.52-14s-9,13-2,26Z" transform="translate(-113.56 -24.41)" style="fill:#e2a060"/><path d="M220.32,119.36c3-15.54,9.11-31.12,20.1-42.78,3.65-3.87,8.09-6.9,11.85-10.66,4.3-4.27,8.72-9,10.44-14.91.83-3.93-.58-8-2.81-11.23C254.21,32,244.14,29.25,235,28.14c-10.6-1.3-30-1.16-30.12,13.35a187.34,187.34,0,0,0,.67,21.32c.8,6.9,1.46,14.37,5.16,20.37l.21.32a52.63,52.63,0,0,0-5.6,5.06c-1.47,1.66-3.34,3.59-3.55,5.84l-.45-.38,11-2,1-.19c-6.74,7.6-13.18,17-13.2,27.49l-.49-.21,15.55-14,1.42-1.27a33.33,33.33,0,0,0-4,7.65,25.59,25.59,0,0,0-1.33,13.33,23.09,23.09,0,0,0,2.19,6.4h-.14l7.06-11.94Zm0,0-6.92,12-.08.14a24.5,24.5,0,0,1-1.17-20.09,30.63,30.63,0,0,1,3-6.19l.37.33-15.49,14-.47.43a25.93,25.93,0,0,1,1-8.23,48.08,48.08,0,0,1,6.82-13.62,61.6,61.6,0,0,1,4.72-6l.32.59-11,2-.47.09a6.83,6.83,0,0,1,1.42-4,40.58,40.58,0,0,1,7.71-7.78l-.08.56a29.47,29.47,0,0,1-3.8-10.12,124.36,124.36,0,0,1-2.28-21.34c-.12-3.57-.16-7.14-.08-10.73a12.38,12.38,0,0,1,1.07-5.41c5.47-10.5,20.07-9.75,30.15-8.74,9.33,1.15,19.66,4,25.43,12.05,2.36,3.44,3.76,7.87,2.87,11.81a22.94,22.94,0,0,1-3.61,7.19c-5.62,8.2-14.2,13.28-20.77,20.51-9.8,11.41-15.69,25.83-18.66,40.49Z" transform="translate(-113.56 -24.41)" style="fill:#1d1d1b"/><path d="M224.57,76.6,244.14,57a.56.56,0,0,0-.51-.94c-3.15.7-9,1.74-8.17-.46.58-1.58,3.07-3.16,5.29-4.3a.81.81,0,0,0-.38-1.54c-4.27.05-10.1-.21-8.81-2.15,1.13-1.69,5.11-2.42,8.36-2.75a1.52,1.52,0,0,0,.6-2.83c-5.14-2.92-13.86-6.53-17.94-.41-6,9,7.57,28.71,7.57,28.71Z" transform="translate(-113.56 -24.41)" style="fill:#c4a884"/><path d="M224.57,76.6c6.17-6.15,12.43-12.81,18.51-19l.66-.67a1.21,1.21,0,0,0,.21-.24c.05-.14-.09-.32-.24-.27a40.64,40.64,0,0,1-4.93.86,6.82,6.82,0,0,1-3-.2,1.36,1.36,0,0,1-.43-2.18c1.19-1.8,3.17-2.85,5-3.87a1.83,1.83,0,0,0,.3-.18.37.37,0,0,0-.23-.63c-2-.09-8.87.38-9.48-1.88.07-3,6.45-3.64,8.74-3.94a1,1,0,0,0,.77-1.83c-5.14-3-14.08-6.79-17.86-.09-3.88,8.12,3.39,20.76,7.68,27.78l.06.1-.07.07c-1.84,2-3.78,4-5.68,6.15Zm0,0c1.82-2,3.6-4.19,5.48-6.33v.17c-4.64-7.06-12.24-19.91-8.21-28.34a7.8,7.8,0,0,1,6.4-4.18c4-.29,7.65,1.22,11.08,2.94a18.09,18.09,0,0,1,1.74,1,2,2,0,0,1-.17,3.23,2.39,2.39,0,0,1-1.11.34,26.26,26.26,0,0,0-5.45,1.05c-.88.33-2.17.81-2.46,1.72a.7.7,0,0,0,.38.33c2,.81,4.21.73,6.31.83h1.92a1.23,1.23,0,0,1,1.1.83,1.31,1.31,0,0,1-.82,1.66l-.42.21c-1.59,1-4,2.09-4.52,4-.07.22.5.46,1.09.51a25,25,0,0,0,6.43-.73.93.93,0,0,1,1.06,1.48l-3.6,3.52c-5.21,5.08-11.16,10.74-16.22,15.81Z" transform="translate(-113.56 -24.41)" style="fill:#1d1d1b"/><path d="M272.24,78.42" transform="translate(-113.56 -24.41)" style="fill:none"/><path d="M363.11,126.35s-11-19-23-8,5,32,5,32,3,19-5,23c0,0,19,4,22-17l3,4s5-7-1-17l6,2s0-11-11-19Z" transform="translate(-113.56 -24.41)" style="fill:#c4a884"/><path d="M363.11,126.35c-3.94-6.14-11.22-13.84-19.14-10.26a13.36,13.36,0,0,0-7.32,8.66c-1,3.83-.18,7.88,1.11,11.54a55.15,55.15,0,0,0,7.82,14c.81,7,1.84,19.47-5.22,23.48l-.12-.93a21.56,21.56,0,0,0,7.64-.09c8.73-1.55,13.11-9.23,13.95-17.49l3.61,4.83h-.68c3.16-5.05,2-11.67-.92-16.56l-.38-.72.75.25,6,2-.36.26a21.08,21.08,0,0,0-1-5.47A27,27,0,0,0,359,126.3h.12l4,0Zm0,0-4,0a26.11,26.11,0,0,1,7.76,8.15,23.5,23.5,0,0,1,3.52,11.17l-.38-.13-6-2,.37-.46a25.92,25.92,0,0,1,2,4.08c1.65,4.47,1.54,9.76-1.21,13.8l-3.37-4.48.78-.19c-1.44,12.12-10.27,19.36-22.5,17.4l-1.49-.26,1.37-.68c5.3-3.13,5.25-10.85,5.28-16.34a59.21,59.21,0,0,0-.51-6.11,43.92,43.92,0,0,1-4.35-6.5c-3.76-6.77-7.22-15.82-2.69-23,8.53-11.84,19.55-4.55,25.46,5.49Z" transform="translate(-113.56 -24.41)" style="fill:#1d1d1b"/><path d="M229.86,123.35s11-19,23-8-5,32-5,32-3,19,5,23c0,0-19,4-22-17l-3,4s-5-7,1-17l-6,2s0-11,11-19Z" transform="translate(-113.56 -24.41)" style="fill:#c4a884"/><path d="M229.86,123.35c5.9-10,16.92-17.34,25.46-5.49,4.53,7.21,1.07,16.25-2.69,23a44.21,44.21,0,0,1-4.35,6.5,59,59,0,0,0-.51,6.1c0,5.5,0,13.21,5.28,16.35l1.37.68-1.49.25c-12.19,2-21.08-5.3-22.5-17.4l.78.2L227.84,158c-2.75-4-2.86-9.33-1.21-13.79a25.5,25.5,0,0,1,2-4.08l.37.46-6,2-.38.12a23.5,23.5,0,0,1,3.52-11.16,25.79,25.79,0,0,1,7.76-8.15l-4-.05Zm0,0,4,0H234c-6,4.46-10.45,11.43-10.83,19l-.36-.26,6-2,.74-.25-.38.71c-3,4.9-4.08,11.51-.92,16.57h-.68l3.61-4.84c.83,8.26,5.22,15.95,14,17.49a21.33,21.33,0,0,0,7.64.1l-.12.93a9.16,9.16,0,0,1-4.13-4.89c-2.22-5.93-1.85-12.42-1.09-18.59a55.32,55.32,0,0,0,7.82-13.95c1.3-3.67,2.08-7.72,1.11-11.54A13.34,13.34,0,0,0,249,113.1c-7.92-3.59-15.2,4.11-19.14,10.25Z" transform="translate(-113.56 -24.41)" style="fill:#1d1d1b"/><path d="M316.18,117.26c.09-1.73,1.74-25.78,22.39-9.35a.35.35,0,0,0,.57-.26v-4.93a.32.32,0,0,1,.47-.28c1.49.76,5.58,3.09,5.77,3,1.25-.56-.25-4.65-7.29-8.55a.11.11,0,0,1,.08-.21l5.91,1.69s0,0,0,0c-.7-.94-13.26-17.71-23.94-9.95-10.95,8-8,16.93-4,28.86C316.15,117.28,316.18,117.29,316.18,117.26Z" transform="translate(-113.56 -24.41)" style="fill:#895e2f"/><path d="M316.18,117.26c1.22-15.81,10-19.54,22.35-9.72l.2.15s0,0,.06,0a.07.07,0,0,0,.07,0v-.93l-.05-3.94a.68.68,0,0,1,1-.66l.22.11c1.67.85,3.7,2,5.41,2.79a.38.38,0,0,0-.22,0s0,0,0,0c.43-1-.82-2.45-1.47-3.26a23.32,23.32,0,0,0-6-4.56.6.6,0,0,1,.66-1l.35.1c1.56.43,3.66,1,5.22,1.47l.23.07h0a.48.48,0,0,0-.52.2.49.49,0,0,0,0,.51c-.21-.32-.74-.94-1-1.25-8.49-10.18-19.16-16.35-28.15-2.81-4.15,7.08-.69,15.6,1.61,22.71Zm0,0c-2.4-7.15-5.87-15.63-1.88-22.87,9.17-14.61,21.13-7.64,29.79,3.13.07.09.34.44.4.53a.48.48,0,0,1,0,.58c-.29.37-.56.21-.84.14l-1.9-.54-3.55-1-.12,0s-.15,0,.06,0a.37.37,0,0,0,.15-.69h0l.06,0c2.76,1.62,7.87,4.91,7.77,8.51-.07.4-.51,1-1,.8-1.85-.83-3.89-2.13-5.69-3.07,0,0,0,0,0,0a0,0,0,0,0,0,0s0-.08,0,.05c0,.78,0,4.24-.07,5a.65.65,0,0,1-1,.35l-.19-.15c-12.14-10.1-20.65-6.3-22,9.29Z" transform="translate(-113.56 -24.41)" style="fill:#1d1d1b"/><path d="M279.15,113.74c-.5-4.89-3.63-23.33-22.51-8.16a.23.23,0,0,1-.37-.17v-5.33a.22.22,0,0,0-.33-.2c-1.32.67-4.23,3.54-5.91,3.07-.25-.07.24-4.29,6.47-8.08a.23.23,0,0,0-.18-.41l-2.76.79a.76.76,0,0,1-.79-1.23c3.72-4.38,13.73-14.46,22.47-8.1,10.65,7.74,8.16,16.42,4.35,27.86A.22.22,0,0,1,279.15,113.74Z" transform="translate(-113.56 -24.41)" style="fill:#895e2f"/><path d="M279.15,113.74c-1.86-15.68-10.79-17.67-22.26-8a.53.53,0,0,1-.92-.43v-.23l-.05-3.76c0-.22,0-1,0-1.24a.13.13,0,0,0,.19.12l-.14.08c-1.87,1.08-3.53,3.31-6,3.1-1.07-.26.11-2.62.44-3.24a16.36,16.36,0,0,1,5.83-5.68.26.26,0,0,0,.17.47l-2.48.73a1.28,1.28,0,0,1-1.44-2.07,35.65,35.65,0,0,1,9.79-8.22c3.33-1.83,7.6-2.61,11.14-.85,5.57,2.93,9.93,8.8,9.49,15.28-.16,4.72-1.76,9.25-3.22,13.69-.07.14-.07.32-.2.42a.23.23,0,0,1-.35-.17Zm0,0a.23.23,0,0,0,.35.17c.13-.1.12-.29.19-.42,1.41-4.45,3-9,3.09-13.69.31-6.36-4.11-12-9.6-14.74-7.7-3.23-15.46,3.91-20.09,9.38a.28.28,0,0,0,.25.34,1.87,1.87,0,0,0,.32-.08l1.81-.51c.16,0,.54-.14.68-.19a.79.79,0,0,1,.63.08.72.72,0,0,1,0,1.21,19.45,19.45,0,0,0-3.3,2.47,9.26,9.26,0,0,0-3,5s0,0,0,0l0,0a.36.36,0,0,0-.17-.16c1.08.14,2.66-1,3.8-1.83a15.87,15.87,0,0,1,1.76-1.18.59.59,0,0,1,.85.53c0,.21,0,1,0,1.24l-.05,3.76v.32a.06.06,0,0,0-.07-.05c11.64-9.42,20.95-7.54,22.66,8.39Z" transform="translate(-113.56 -24.41)" style="fill:#1d1d1b"/><path d="M317.18,112.37c.09,8.21,11,11.38,16.57,6.19a8.13,8.13,0,0,0,0-12.38c-5.57-5.19-16.48-2-16.57,6.19Zm0,0c0-8.35,11.16-12,17.13-6.84a8.75,8.75,0,0,1,0,13.68c-6,5.15-17.09,1.51-17.13-6.84Z" transform="translate(-113.56 -24.41)" style="fill:#1d1d1b"/><circle cx="211.6" cy="87.96" r="4.49"/><path d="M320.67,112.37a4.25,4.25,0,0,0,8.49,0,4.25,4.25,0,0,0-8.49,0Zm0,0c.18-6.25,9.28-6.3,9.49,0-.21,6.3-9.31,6.25-9.49,0Z" transform="translate(-113.56 -24.41)" style="fill:#1d1d1b"/><circle cx="154.68" cy="85.96" r="4.49"/><path d="M263.75,110.37a4.25,4.25,0,0,0,8.49,0c-.13-5.54-8.28-5.68-8.49,0Zm0,0c.19-6.25,9.28-6.3,9.49,0-.21,6.3-9.31,6.25-9.49,0Z" transform="translate(-113.56 -24.41)" style="fill:#1d1d1b"/><path d="M258.26,110.37c.09,8.21,11,11.39,16.58,6.19a8.12,8.12,0,0,0,0-12.37c-5.57-5.2-16.49-2-16.58,6.18Zm0,0c.05-8.34,11.17-12,17.13-6.84a8.74,8.74,0,0,1,0,13.68c-6,5.15-17.08,1.51-17.13-6.84Z" transform="translate(-113.56 -24.41)" style="fill:#1d1d1b"/><path d="M297.2,107.38s9.84-1,14.91,9.48,3.07,8.94,8.56,12.71,11.89,7.64,10.69,14.69-9.19,35.37-34.16,37.19-36.94-33.13-36.94-33.13-4-16,11-19c0,0,9.08-3,10.53-12S296.21,107.38,297.2,107.38Z" transform="translate(-113.56 -24.41)" style="fill:#e2a060"/><path d="M297.2,107.38a15.39,15.39,0,0,1,13.06,6.36c2,2.73,3.19,5.91,4.6,9,.71,1.51,1.26,3.16,2.47,4.32a45.81,45.81,0,0,0,4.08,2.93c2.78,1.88,5.66,3.73,7.85,6.33,3.86,4.14,2.22,9.73.73,14.52a56.74,56.74,0,0,1-9.13,18c-6.14,8.12-16.07,13.57-26.4,13.2s-19.25-7.56-25.08-15.69a75,75,0,0,1-9.4-17.9c-1.28-6-.11-13.39,5.43-16.92a16.49,16.49,0,0,1,5.8-2.24,18,18,0,0,0,7.38-5.11c2.07-2.33,2.86-5.3,3.51-8.28,2.24-6,9.31-8,15.1-8.46Zm0,0c-5.77.48-12.81,2.53-15,8.49-.63,3-1.44,6-3.5,8.34a18.43,18.43,0,0,1-7.42,5.25,16.48,16.48,0,0,0-5.69,2.28c-5.33,3.5-6.36,10.69-5,16.51a74.62,74.62,0,0,0,9.52,17.54c5.79,8,14.24,14.93,24.43,15.2s19.65-4.83,25.72-12.73a55.89,55.89,0,0,0,9.25-17.64c1.49-4.63,3.23-10.07-.48-14.12-2.12-2.6-5-4.47-7.7-6.38a43.34,43.34,0,0,1-4.06-3c-1.24-1.2-1.77-2.87-2.48-4.38-1.39-3-2.59-6.22-4.54-9a15.4,15.4,0,0,0-13-6.4Z" transform="translate(-113.56 -24.41)" style="fill:#1d1d1b"/><path d="M307.52,146.55c5-12.31-11.29-14.69-11.29-14.69s-13.25.45-12.13,14.27a2.19,2.19,0,0,0,1.09,1.74c1.23.72,3.49,2,5.84,3.48a9.05,9.05,0,0,0,9.44,0l6-3.62A2.53,2.53,0,0,0,307.52,146.55Z" transform="translate(-113.56 -24.41)" style="fill:#474946"/><path d="M307.52,146.55c3.59-8.52-3.81-13.26-11.34-14.35-3.57.36-7.89,2.2-9.85,5.53a12.53,12.53,0,0,0-1.81,7c0,.89-.17,1.89.55,2.54s5.51,3.46,6.35,4c3.72,2.31,7.86,1.13,11.2-1.25l2.62-1.56c.84-.53,1.9-.91,2.28-1.91Zm0,0c-.27.92-1.52,1.48-2.25,2l-2.59,1.59c-3.41,2.48-7.57,3.86-11.52,1.63l-5.3-3a10.53,10.53,0,0,1-1.37-.85c-.92-.79-.85-2.07-.87-3.16a13,13,0,0,1,1.88-7.52c2.33-3.6,6.6-5.49,10.78-5.67,7.52,1.4,15,6.55,11.24,15Z" transform="translate(-113.56 -24.41)" style="fill:#1d1d1b"/><path d="M316.18,138.33" transform="translate(-113.56 -24.41)" style="fill:none"/><path d="M295.64,145.63c.18,3.38.33,8.29.39,11.73l-.18-.33a51.64,51.64,0,0,0,7.59,3.69c9.68,3.79,17,2.68,17.23-9.23,1,12.34-7.82,14.21-17.58,10.12a46.14,46.14,0,0,1-7.66-3.93l-.18-.12v-.2c.1-3.46.18-8.33.39-11.73Z" transform="translate(-113.56 -24.41)" style="fill:#1d1d1b"/><path d="M268.25,148.69c2.64,9.28,9,16.95,19.34,12.92a41,41,0,0,0,8.05-4.25,29.89,29.89,0,0,1-7.77,5c-10.66,4.71-18.09-3.6-19.62-13.63Z" transform="translate(-113.56 -24.41)" style="fill:#1d1d1b"/><path d="M300.2,149.31a2,2,0,0,1-.08-2.66c1.33-1.46,3.35-1.53,5.15-1.47a11.43,11.43,0,0,1,2.59.45c-1.7.32-3.38.32-5.05.69s-3.17,1.08-2.61,3Z" transform="translate(-113.56 -24.41)" style="fill:#1d1d1b"/><path d="M291.2,149.31c.12-1.69-1-2.64-2.5-3s-3.08-.45-4.64-.74c2.26-.68,5.48-.92,7.1,1.25a2.37,2.37,0,0,1,0,2.51Z" transform="translate(-113.56 -24.41)" style="fill:#1d1d1b"/><circle cx="156.18" cy="83.47" r="1.5" style="fill:#fff"/><path d="M268.25,107.88a1.25,1.25,0,1,0,2.49,0,1.25,1.25,0,1,0-2.49,0Zm0,0a1.75,1.75,0,1,1,3.49,0,1.75,1.75,0,0,1-3.49,0Z" transform="translate(-113.56 -24.41)" style="fill:#1d1d1b"/><circle cx="213.1" cy="85.47" r="1.5" style="fill:#fff"/><path d="M325.16,109.87a1.25,1.25,0,1,0,2.5,0,1.25,1.25,0,1,0-2.5,0Zm0,0a1.75,1.75,0,0,1,3.5,0,1.75,1.75,0,0,1-3.5,0Z" transform="translate(-113.56 -24.41)" style="fill:#1d1d1b"/><path d="M180.43,273.24a3.23,3.23,0,0,0,4.48-4.43c-4.55-7.48-9.1-16.81-11.35-26.83-5.38-24-24.32-18.6-24.32-18.6s-35.12,13.36-35.12,78.52a3.24,3.24,0,0,0,6.41.66C126.25,276.45,141.23,248.8,180.43,273.24Z" transform="translate(-113.56 -24.41)" style="fill:#c4a884;stroke:#1d1d1b;stroke-miterlimit:10;stroke-width:1.113904595375061px"/><path d="M225.49,309.36a3.24,3.24,0,0,0,1.13-6.13c-19.15-9.36-56.73-22.3-81.45,4.27-26.64,28.62-18.33,66-13.24,81.39a.45.45,0,0,0,.87-.22c-.66-3.85-.92-8.35.63-11.2a1.57,1.57,0,0,1,2.93.74c.14,6.14,1.74,20.18,12.07,36.25a1.73,1.73,0,0,0,3.13-1.35c-1.77-6.83-3.59-15.78-2.77-21.34a.64.64,0,0,1,1.27,0c1.26,10.07,8.62,40.87,51.75,53.62a1.47,1.47,0,0,0,1.22-2.65c-17.1-10.87-50-38.67-32.66-84C185.45,319.33,210.26,310.67,225.49,309.36Z" transform="translate(-113.56 -24.41)" style="fill:#c4a884;stroke:#1d1d1b;stroke-miterlimit:10;stroke-width:1.113904595375061px"/><path d="M338.28,296c5.62-6.66.18-16.78-8.45-15.58-30.24,4.18-75.45,19.52-100.64,71.71C189,435.42,267.42,476.26,267.42,476.26s30.31,12.74,48.33,7.38c0,0-28.3-5.11-37.79-24.56,0,0,22.61,21.65,66.29,8.93,0,0-42.13-5.24-39.22-20.43,0,0,38,32.79,89.55-15.67a3.24,3.24,0,0,0-3.5-5.35c-13.82,6-33.23,11.85-45.79,4.81-21.32-12-32.81-18-37.4-55.54C304.77,350.31,321.29,316.09,338.28,296Z" transform="translate(-113.56 -24.41)" style="fill:#c4a884;stroke:#1d1d1b;stroke-miterlimit:10;stroke-width:1.113904595375061px"/><path d="M480.41,346.19s-10.15-31.43-51.8-45.75-69.69,6.3-76.2,32-3.27,50.11,28.62,65.73,48.87-13.46,49.59-15.54,15.67-32,37.84-22c0,0,3.55-10.35-18.57-27.27C449.89,333.37,461.8,325.82,480.41,346.19Z" transform="translate(-113.56 -24.41)" style="fill:#c4a884;stroke:#1d1d1b;stroke-miterlimit:10;stroke-width:1.113904595375061px"/></svg>