<svg id="Шар_1" data-name="Шар 1" xmlns="http://www.w3.org/2000/svg" viewBox="0 0 195.27 156.77"><path d="M382.08,84.41s17-36.94,9-50.92-35.95-7-35.95-7-19,5-21,16,15,26,15,26,22,20,22,53.92c0,0,5,5,4,11s7-12,4-26c0,0,10,17,11,16s-1-23-6-28l11,1S388.07,85.41,382.08,84.41Z" transform="translate(-199.79 -24.75)" style="fill:#e2a060"/><path d="M370.1,76.42,351.67,58a1,1,0,0,1,.94-1.75c3.17.62,7.28,1.09,6.6-.79-.57-1.56-3-3.13-5.25-4.27a.82.82,0,0,1,.39-1.56c4.26.05,10-.22,8.76-2.15s-5.89-2.56-9.27-2.83a1.22,1.22,0,0,1-.53-2.26c5-3,14.47-7.38,18.78-.91,6,9-7.57,28.72-7.57,28.72Z" transform="translate(-199.79 -24.75)" style="fill:#c4a884"/><path d="M220.32,119.36s5-31,25-46.93,18-24,18-24,1-18-30-21-29,14-29,14-1,32,6,41.94c0,0-9,7-9,11l11-2s-13.06,14-12.52,27l15.52-14s-9,13-2,26Z" transform="translate(-199.79 -24.75)" style="fill:#e2a060"/><path d="M224.57,76.6,244.14,57a.56.56,0,0,0-.51-.94c-3.15.7-9,1.74-8.17-.46.58-1.58,3.07-3.16,5.29-4.3a.81.81,0,0,0-.38-1.54c-4.27.05-10.1-.21-8.81-2.15,1.13-1.69,5.11-2.42,8.36-2.75a1.52,1.52,0,0,0,.6-2.83c-5.14-2.92-13.86-6.53-17.94-.41-6,9,7.57,28.71,7.57,28.71Z" transform="translate(-199.79 -24.75)" style="fill:#c4a884"/><path d="M272.24,78.42" transform="translate(-199.79 -24.75)" style="fill:none"/><path d="M363.11,126.35s-11-19-23-8,5,32,5,32,3,19-5,23c0,0,19,4,22-17l3,4s5-7-1-17l6,2s0-11-11-19Z" transform="translate(-199.79 -24.75)" style="fill:#c4a884"/><path d="M229.86,123.35s11-19,23-8-5,32-5,32-3,19,5,23c0,0-19,4-22-17l-3,4s-5-7,1-17l-6,2s0-11,11-19Z" transform="translate(-199.79 -24.75)" style="fill:#c4a884"/><path d="M316.18,117.26c.09-1.73,1.74-25.78,22.39-9.35a.35.35,0,0,0,.57-.26v-4.93a.32.32,0,0,1,.47-.28c1.49.76,5.58,3.09,5.77,3,1.25-.56-.25-4.65-7.29-8.55a.11.11,0,0,1,.08-.21l5.91,1.69s0,0,0,0c-.7-.94-13.26-17.71-23.94-9.95-10.95,8-8,16.93-4,28.86C316.15,117.28,316.18,117.29,316.18,117.26Z" transform="translate(-199.79 -24.75)" style="fill:#895e2f"/><path d="M279.15,113.74c-.5-4.89-3.63-23.33-22.51-8.16a.23.23,0,0,1-.37-.17v-5.33a.22.22,0,0,0-.33-.2c-1.32.67-4.23,3.54-5.91,3.07-.25-.07.24-4.29,6.47-8.08a.23.23,0,0,0-.18-.41l-2.76.79a.76.76,0,0,1-.79-1.23c3.72-4.38,13.73-14.46,22.47-8.1,10.65,7.74,8.16,16.42,4.35,27.86A.22.22,0,0,1,279.15,113.74Z" transform="translate(-199.79 -24.75)" style="fill:#895e2f"/><path d="M317.23,112.37c.17,7.88,11.13,11.07,16.69,6.39a8,8,0,0,0-.2-12.55c-5.45-4.76-16.32-1.74-16.49,6.16Zm-.1,0c0-8.7,11.05-12.44,17.2-6.87a8.81,8.81,0,0,1-.2,13.5c-6.15,5.65-16.9,2.14-17-6.63Z" transform="translate(-199.79 -24.75)" style="fill:#1d1d1b"/><circle cx="125.37" cy="87.62" r="4.49"/><path d="M320.67,112.37a4.25,4.25,0,0,0,8.49,0,4.25,4.25,0,0,0-8.49,0Zm0,0c.18-6.25,9.28-6.3,9.49,0-.21,6.3-9.31,6.25-9.49,0Z" transform="translate(-199.79 -24.75)" style="fill:#1d1d1b"/><circle cx="68.46" cy="85.62" r="4.49"/><path d="M263.75,110.37a4.25,4.25,0,0,0,8.49,0c-.13-5.54-8.28-5.68-8.49,0Zm0,0c.19-6.25,9.28-6.3,9.49,0-.21,6.3-9.31,6.25-9.49,0Z" transform="translate(-199.79 -24.75)" style="fill:#1d1d1b"/><path d="M258.31,110.37c.17,7.89,11.14,11.08,16.7,6.39a8,8,0,0,0-.2-12.54c-5.46-4.77-16.33-1.74-16.5,6.15Zm-.1,0c0-8.69,11.06-12.44,17.21-6.87a8.83,8.83,0,0,1-.2,13.51c-6.16,5.65-16.9,2.13-17-6.64Z" transform="translate(-199.79 -24.75)" style="fill:#1d1d1b"/><path d="M297.2,107.38s9.84-1,14.91,9.48,3.07,8.94,8.56,12.71,11.89,7.64,10.69,14.69-9.19,35.37-34.16,37.19-36.94-33.13-36.94-33.13-4-16,11-19c0,0,9.08-3,10.53-12S296.21,107.38,297.2,107.38Z" transform="translate(-199.79 -24.75)" style="fill:#e2a060"/><path d="M307.52,146.55c5-12.31-11.29-14.69-11.29-14.69s-13.25.45-12.13,14.27a2.19,2.19,0,0,0,1.09,1.74c1.23.72,3.49,2,5.84,3.48a9.05,9.05,0,0,0,9.44,0l6-3.62A2.53,2.53,0,0,0,307.52,146.55Z" transform="translate(-199.79 -24.75)" style="fill:#474946"/><path d="M316.18,138.33" transform="translate(-199.79 -24.75)" style="fill:none"/><path d="M295.64,145.63c.18,3.38.33,8.29.39,11.73l-.18-.33a51.64,51.64,0,0,0,7.59,3.69c9.68,3.79,17,2.68,17.23-9.23,1,12.34-7.82,14.21-17.58,10.12a46.14,46.14,0,0,1-7.66-3.93l-.18-.12v-.2c.1-3.46.18-8.33.39-11.73Z" transform="translate(-199.79 -24.75)" style="fill:#1d1d1b"/><path d="M268.25,148.69c2.64,9.28,9,16.95,19.34,12.92a41,41,0,0,0,8.05-4.25,29.89,29.89,0,0,1-7.77,5c-10.66,4.71-18.09-3.6-19.62-13.63Z" transform="translate(-199.79 -24.75)" style="fill:#1d1d1b"/><path d="M300.2,149.31a2,2,0,0,1-.08-2.66c1.33-1.46,3.35-1.53,5.15-1.47a11.43,11.43,0,0,1,2.59.45c-1.7.32-3.38.32-5.05.69s-3.17,1.08-2.61,3Z" transform="translate(-199.79 -24.75)" style="fill:#1d1d1b"/><path d="M291.2,149.31c.12-1.69-1-2.64-2.5-3s-3.08-.45-4.64-.74c2.26-.68,5.48-.92,7.1,1.25a2.37,2.37,0,0,1,0,2.51Z" transform="translate(-199.79 -24.75)" style="fill:#1d1d1b"/><circle cx="69.95" cy="83.13" r="1.5" style="fill:#fff"/><path d="M268.25,107.88a1.25,1.25,0,1,0,2.49,0,1.25,1.25,0,1,0-2.49,0Zm0,0a1.75,1.75,0,1,1,3.49,0,1.75,1.75,0,0,1-3.49,0Z" transform="translate(-199.79 -24.75)" style="fill:#1d1d1b"/><circle cx="126.87" cy="85.12" r="1.5" style="fill:#fff"/><path d="M325.16,109.87a1.25,1.25,0,1,0,2.5,0,1.25,1.25,0,1,0-2.5,0Zm0,0a1.75,1.75,0,0,1,3.5,0,1.75,1.75,0,0,1-3.5,0Z" transform="translate(-199.79 -24.75)" style="fill:#1d1d1b"/><circle cx="65.71" cy="87.75" r="0.5" style="fill:#fff;stroke:#1d1d1b;stroke-miterlimit:10;stroke-width:0.15000000596046448px"/><circle cx="122.71" cy="89.75" r="0.5" style="fill:#fff;stroke:#1d1d1b;stroke-miterlimit:10;stroke-width:0.15000000596046448px"/></svg>