 <!DOCTYPE svg PUBLIC "-//W3C//DTD SVG 1.1//EN" "http://www.w3.org/Graphics/SVG/1.1/DTD/svg11.dtd">
<svg id="b525793d-b9a8-41bd-8261-ea52cf9a84b6" data-name="Layer 1" xmlns="http://www.w3.org/2000/svg" width="865.76" height="682.89" viewBox="0 0 865.76 682.89">
<defs>
<style xmlns="http://www.w3.org/1999/xhtml">*, ::after, ::before { box-sizing: border-box; }
img, svg { vertical-align: middle; }
</style>
<style xmlns="http://www.w3.org/1999/xhtml">*, body, html { -webkit-font-smoothing: antialiased; }
img, svg { max-width: 100%; }
</style>
</defs>
<ellipse cx="113.16" cy="567.45" rx="59.43" ry="11.68" fill="#679186" data-primary="true"/>
<ellipse cx="113.16" cy="567.45" rx="59.43" ry="11.68" fill="#fff" opacity="0.7"/>
<ellipse cx="315.29" cy="565.81" rx="59.43" ry="11.68" fill="#679186" data-primary="true"/>
<ellipse cx="315.29" cy="565.81" rx="59.43" ry="11.68" fill="#fff" opacity="0.7"/>
<ellipse cx="724.34" cy="565.81" rx="59.43" ry="11.68" fill="#679186" data-primary="true"/>
<ellipse cx="724.34" cy="565.81" rx="59.43" ry="11.68" fill="#fff" opacity="0.7"/>
<path d="M695.08,441.28c-1.83,3.72-3.74,7.35-5.68,10.85a320,320,0,0,1-34.94,50.79L258.65,527.19c-36.46-24.71-62.6-50-80.88-75.06q-4-5.43-7.46-10.85c-76-117.9,16.2-225.91,16.2-225.91s9.3-11.38,26.22-26.88q3.65-3.35,7.76-6.91c42.6-36.91,122-89.13,219.44-75.65,0,0,62.1,11.6,93.23,75.65.56,1.14,1.1,2.29,1.63,3.46s1,2.28,1.53,3.45a165.26,165.26,0,0,1,8.32,25s.59,5.42,5.31,12.76c4.84,7.52,14,17.06,31.37,24.91,3.38,1.52,7,3,11.06,4.34,0,0,98.36,22,118.41,91.23C719.8,377.84,709.34,412.5,695.08,441.28Z" fill="#679186" data-primary="true"/>
<path d="M695.08,441.28c-1.83,3.72-3.74,7.35-5.68,10.85a320,320,0,0,1-34.94,50.79L258.65,527.19c-36.46-24.71-62.6-50-80.88-75.06q-4-5.43-7.46-10.85c-76-117.9,16.2-225.91,16.2-225.91s9.3-11.38,26.22-26.88q3.65-3.35,7.76-6.91c42.6-36.91,122-89.13,219.44-75.65,0,0,62.1,11.6,93.23,75.65.56,1.14,1.1,2.29,1.63,3.46s1,2.28,1.53,3.45a165.26,165.26,0,0,1,8.32,25s.59,5.42,5.31,12.76c4.84,7.52,14,17.06,31.37,24.91,3.38,1.52,7,3,11.06,4.34,0,0,98.36,22,118.41,91.23C719.8,377.84,709.34,412.5,695.08,441.28Z" fill="#fff" opacity="0.7"/>
<path d="M533.16,181.58H220.49c42.6-36.91,122-89.13,219.44-75.65C439.93,105.93,502,117.53,533.16,181.58Z" fill="#fff" opacity="0.7"/>
<path d="M606.8,412.44v36.49H491.86V412.44h22.37V188.49h22.09a165.26,165.26,0,0,1,8.32,25s.59,5.42,5.31,12.76c4.84,7.52,14,17.06,31.37,24.91V412.44Z" fill="#fff" opacity="0.7"/>
<path d="M695.08,441.28c-1.83,3.72-3.74,7.35-5.68,10.85H177.77q-4-5.43-7.46-10.85Z" fill="none" stroke="#0071f2" stroke-miterlimit="10"/>
<path d="M550,226.27V412.44H521.73V185h13.06q.78,1.69,1.53,3.45a165.26,165.26,0,0,1,8.32,25S545.23,218.93,550,226.27Z" fill="#679186" data-primary="true"/>
<rect x="243.8" y="188.49" width="29.7" height="223.95" fill="#679186" data-primary="true"/>
<g opacity="0.2">
<path d="M550,226.27V412.44H521.73V185h13.06q.78,1.69,1.53,3.45a165.26,165.26,0,0,1,8.32,25S545.23,218.93,550,226.27Z"/>
<rect x="243.8" y="188.49" width="29.7" height="223.95"/>
</g>
<rect x="239.13" y="188.49" width="67.64" height="223.95" fill="#fff" opacity="0.7"/>
<path d="M536.32,188.49H212.73q3.65-3.35,7.76-6.91H533.16C534.26,183.82,535.3,186.12,536.32,188.49Z" fill="#679186" data-primary="true"/>
<path d="M536.32,188.49H212.73q3.65-3.35,7.76-6.91H533.16C534.26,183.82,535.3,186.12,536.32,188.49Z" opacity="0.2"/>
<ellipse cx="430.84" cy="256.23" rx="58.77" ry="59.8" fill="#679186" data-primary="true"/>
<ellipse cx="430.84" cy="256.23" rx="58.77" ry="59.8" opacity="0.2"/>
<path d="M440.41,197c-32.16,0-58.24,26.53-58.24,59.25s26.08,59.25,58.24,59.25,58.23-26.53,58.23-59.25S472.57,197,440.41,197Zm-2,108.29c-27.34,0-49.5-22.55-49.5-50.36s22.16-50.36,49.5-50.36,49.49,22.54,49.49,50.36S465.74,305.27,438.41,305.27Z" fill="#679186" data-primary="true"/>
<path d="M159.41,175.61H281.53a1.65,1.65,0,0,1,1.65,1.65v349a0,0,0,0,1,0,0H157.76a0,0,0,0,1,0,0v-349a1.65,1.65,0,0,1,1.65-1.65Z" fill="#a7a9ac"/>
<rect x="157.79" y="312.32" width="125.38" height="213.97" fill="#bcbec0"/>
<rect x="143.38" y="526.55" width="154.17" height="24.76" rx="1.45" fill="#a7a9ac"/>
<rect x="169.51" y="198.16" width="103.3" height="84.64" rx="1.39" fill="#bcbec0"/>
<rect x="182.8" y="214.84" width="19.41" height="52.96" fill="#d1d3d4"/>
<rect x="211.09" y="215.17" width="19.41" height="52.96" fill="#d1d3d4"/>
<rect x="239.05" y="214.51" width="19.41" height="52.96" fill="#d1d3d4"/>
<path d="M201.22,365.56c0-.38.05-.77.08-1.15a19.95,19.95,0,0,1,12.49-16.9l.19-.07c0,.1,0,.18,0,.25v6.59a.37.37,0,0,1-.19.36,13.27,13.27,0,0,0-6.05,9.48,13.54,13.54,0,0,0,26.71,4.47,13.29,13.29,0,0,0-4.38-12.79.44.44,0,0,1-.14-.3c0-2.39,0-4.79,0-7.18,0-.05,0-.1,0-.19l.4.2a19.58,19.58,0,0,1,10.28,13.38,19.91,19.91,0,0,1-14.09,23.5,18.94,18.94,0,0,1-4.17.7,1.09,1.09,0,0,0-.25,0h-1.9l-.25,0c-.76-.09-1.51-.14-2.26-.27a19.14,19.14,0,0,1-8.64-3.8,19.66,19.66,0,0,1-7.77-14.22c0-.39-.06-.77-.08-1.16Z" fill="#a7a9ac"/>
<path d="M218.78,351.55c0-2.93,0-5.85,0-8.77a3.1,3.1,0,0,1,1.86-3,3.17,3.17,0,0,1,4.51,2.86q0,8.91,0,17.82a3.17,3.17,0,0,1-3,3.15,3.21,3.21,0,0,1-3.34-2.73,5.16,5.16,0,0,1,0-.68Z" fill="#a7a9ac"/>
<path d="M134,572.52l-17.47-2.4-.9-2.15,1.53,1c20.78,2.51,27,1.76,28.54,1.42a1.19,1.19,0,0,0,.73-.44S147.49,573.65,134,572.52Z" fill="#2f2e41" data-secondary="true"/>
<path d="M146.47,570a1.19,1.19,0,0,1-.73.44c-1.56.34-7.76,1.09-28.54-1.42l-1.53-1-8.08-5.38.32-1.76L135.58,562S150.25,565,146.47,570Z" fill="#679186" data-primary="true"/>
<path d="M146.47,570a1.19,1.19,0,0,1-.73.44c-1.56.34-7.76,1.09-28.54-1.42l-1.53-1-8.08-5.38.32-1.76L135.58,562S150.25,565,146.47,570Z" opacity="0.2"/>
<path d="M135.81,559.94a9.1,9.1,0,0,1-.23,2.08l-28.23-1.16a32.32,32.32,0,0,1,1.85-12.5c.93-5.86,1.26-20.87,1.36-26.86a18.26,18.26,0,0,0-.44-4.23,58.08,58.08,0,0,1-.92-8.47l.23-50.31v0a2.67,2.67,0,0,0-5.33,0l-.44,70.24c.23,8.33-1.16,10.42-1.16,10.42a28.09,28.09,0,0,0-.93,13.41A24.4,24.4,0,0,1,104,559a8,8,0,0,1,.14,3.5,31.47,31.47,0,0,0-24.07,6.71C73.58,564.34,78,556.93,78,556.93L77.51,553a53.69,53.69,0,0,1,1.16-17.36l-.93-77.75c-.46-39.79,1.85-43.5,1.85-43.5l32.17.7,22,4.63,1.83,124.49a6.52,6.52,0,0,1-.8,3.29,8.83,8.83,0,0,0-1,2.73,7,7,0,0,0,.84,4.56A10.84,10.84,0,0,1,135.81,559.94Z" fill="#2f2e41" data-secondary="true"/>
<path d="M104.12,562.48a31.47,31.47,0,0,0-24.07,6.71C73.58,564.34,78,556.93,78,556.93L77.51,553a53.69,53.69,0,0,1,1.16-17.36l-.93-77.75c-.46-39.79,1.85-43.5,1.85-43.5l7.63.47s-2.15,47.2-5.4,58a19.73,19.73,0,0,0-.78,6c.21,12.58,1,50,2.72,54.21,0,0,.93,5.78,5.31,9.25,0,0,8.57,2.08-.92,10.18s-9,9.72-2.77,8.33c5.23-1.17,14.2-2.65,18.6-1.88A8,8,0,0,1,104.12,562.48Z" opacity="0.2"/>
<path d="M135.81,559.94a9.1,9.1,0,0,1-.23,2.08l-28.23-1.16a32.32,32.32,0,0,1,1.85-12.5c.93-5.86,1.26-20.87,1.36-26.86a18.26,18.26,0,0,0-.44-4.23,58.08,58.08,0,0,1-.92-8.47l.23-50.31v0a2.67,2.67,0,0,0-2.67-2.65s-1-6.7,4.76-4.39c0,0,2.32,2.09,1.16,9,0,0,13,15,3.93,33.77,0,0,.24,25.39.24,40,0,.7,1.85,5.09,1.15,18.51C118,552.76,118.92,559.64,135.81,559.94Z" opacity="0.2"/>
<path d="M117,569.6a3.4,3.4,0,0,1-2.63,1.49c-22.58,1.36-34.36-1.9-34.36-1.9a31.11,31.11,0,0,1,24.07-6.71c7,.07,10.62,1.23,12.35,2.67A3.32,3.32,0,0,1,117,569.6Z" fill="#679186" data-primary="true"/>
<path d="M92.53,572.85c-13.15-.8-12.48-3.66-12.48-3.66s11.78,3.26,34.36,1.9A3.4,3.4,0,0,0,117,569.6l.16,0C119.13,574.76,92.53,572.85,92.53,572.85Z" fill="#2f2e41" data-secondary="true"/>
<rect x="105.11" y="311.32" width="13.25" height="24.82" fill="#f9b499"/>
<path d="M118.35,311.32v15.4a15.07,15.07,0,0,1-13.24-6.36v-9Z" fill="#f7a48b"/>
<path d="M171.59,406.45l-1.92,11.22s-23.39-.71-34.37-19.34c0,0,.12,7.28,2.27,10.74,0,0,5.84,9.08-11.1,13.73,0,0-34,4.88-48.19-9.34a20.78,20.78,0,0,1-1.94-2.24S58,403.34,58,390.22l6-31.75s6.44-33.19,34.13-29.13l5.42-3.35a2.12,2.12,0,0,1,2.27,0L116,332.68l1.79-2.89a2,2,0,0,1,2.08-.9c3.53.75,13.15,3.16,19.75,8.33,0,0,2.51,1.79,4.66,12.42,0,0,6.95,33.75,13.44,42.93a10.65,10.65,0,0,0,.76,1A158,158,0,0,0,171.59,406.45Z" fill="#679186" data-primary="true"/>
<path d="M98.78,331.13c.73.77,1.4,1.57,2.09,2.36s1.34,1.62,2,2.44c1.29,1.65,2.55,3.32,3.76,5l-.8-.08a85.91,85.91,0,0,1,7.16-5.69,85.74,85.74,0,0,1-6.44,6.49l-.43.4-.37-.48c-1.26-1.67-2.46-3.39-3.64-5.12-.58-.87-1.16-1.74-1.72-2.63S99.29,332.06,98.78,331.13Z" opacity="0.2"/>
<path d="M118.71,336.74a44.27,44.27,0,0,1,4.35,4.31l-.9.14c.57-1.46,1.16-2.91,1.83-4.33a39.14,39.14,0,0,1,2.24-4.18,40.26,40.26,0,0,1-1.34,4.54c-.52,1.49-1.12,2.94-1.75,4.38l-.35.83-.55-.69A43.22,43.22,0,0,1,118.71,336.74Z" opacity="0.2"/>
<path d="M78.74,339.86s11.28,4.31,7,20.07l-6.47,23.56s-2.66,6.3,2.65,7.47l12.28,1.32-11.45-6s-1.16-1.66.5-5.47l5.47-20.08S94.67,341.52,78.74,339.86Z" opacity="0.2"/>
<path d="M94.83,403.9s-.61,3.68-16.55,9.56a20.78,20.78,0,0,1-1.94-2.24S89.69,407.22,94.83,403.9Z" opacity="0.2"/>
<path d="M135.68,394.19,134.86,368s5.84,21.3,14.66,26.33Z" opacity="0.2"/>
<rect x="107.66" y="394.07" width="45.82" height="12.15" fill="#2f2e41" data-secondary="true"/>
<path d="M176.73,403.1s22.48,17.31,25.92,24.19l-3.31,1.78s-20.27-19-26.39-20.26Z" fill="#d1d3d4"/>
<path d="M107.66,400.62s-79.93,1.1-78.17,72.3c0,0-3.51,83.47,115.73,76.46,0,0,44.62-2.48,79.69-31" fill="none" stroke="#d1d3d4" stroke-miterlimit="10"/>
<ellipse cx="120.26" cy="297.47" rx="20.05" ry="26.38" fill="#f9b499"/>
<path d="M104.39,299.74s13.3,2.95,18-11.11a8.66,8.66,0,0,0,8.93-6.3,6.57,6.57,0,0,0,6.44,4.25s2.55,9.65,2.45,15.08l2.24-3.51.14-17.87L137.75,273l-18-1L114.91,282Z" fill="#f7a48b"/>
<path d="M145.81,290.43s1.19,8.72-5.61,11.23c0,0,1-9.19-2-15.77,0,0-4.18-.83-6.81-6,0,0-2.51,8-10.26,7.52,0,0-4.1,10.39-15.35,12.12-.44.07-.89.13-1.36.17l-9-2.63s-6.44-16,10.73-18.85a17.42,17.42,0,0,1,2.78-5.34c2.72-3.59,7.8-7.12,16.56-4a17.92,17.92,0,0,1,5.88-1.83,17.47,17.47,0,0,1,9.63,1.32,11.29,11.29,0,0,1,6.26,7.25,20.53,20.53,0,0,1-1.47,14.74Z" fill="#2f2e41" data-secondary="true"/>
<circle cx="99.02" cy="301.41" r="5.73" fill="#f9b499"/>
<circle cx="99.49" cy="300.94" r="2.63" fill="#f7a48b"/>
<path d="M114.17,279.81c-3.22-2.27-8-1.55-8-1.55a17.42,17.42,0,0,1,2.78-5.34l.1.08C114.9,277,114.17,279.81,114.17,279.81Z" opacity="0.2"/>
<path d="M147.88,278.75l0,.1c-4.24-9.08-13.91-11.29-16.45-11.73a17.49,17.49,0,0,1,9.63,1.32,11.24,11.24,0,0,1,6.26,7.25A20.48,20.48,0,0,1,147.88,278.75Z" opacity="0.2"/>
<path d="M141.74,291.74s-.59,9.08-1.54,9.92c0,0,1-9.19-2-15.77,0,0-4.18-.83-6.81-6,0,0-2.51,8-10.26,7.52,0,0-4.1,10.39-15.35,12.12l0-.06s8.71-13.14,14.91-12.66c0,0,10.51-18.26,13.37-9.07a12.64,12.64,0,0,0,5.85,5.25S143.54,284.7,141.74,291.74Z" opacity="0.2"/>
<path d="M104.88,397.2c-1.11.89-3.84,3-5.63,4.34a2.29,2.29,0,0,1-3.06-.27l-2.79-3c-2.77-3.1,5-7,5-7s10.58-7.44,17.77-3.35a3.14,3.14,0,0,1,1,.92l6.15,8.28a1.37,1.37,0,0,1-.19,1.84h0a1.37,1.37,0,0,1-2-.15l-4-4.78,2.79,5.31a1.5,1.5,0,0,1-.75,2.06h0a1.5,1.5,0,0,1-1.63-.35l-2.51-2.59.29,1.53a1.42,1.42,0,0,1-1.19,1.66h0a1.4,1.4,0,0,1-1.36-.59l-2.27-3.27.36,1.46a1.77,1.77,0,0,1-2,2.19h0a1.79,1.79,0,0,1-1.29-.84l-2-3.28A.53.53,0,0,0,104.88,397.2Z" fill="#f9b499"/>
<path d="M155,416.94l-.1-4.93a12.44,12.44,0,0,0-1-4.57,104.73,104.73,0,0,1-4.77-16.32s.92-2.86,6.94-1.42a20.33,20.33,0,0,1,7.44,3.56l13.22,9.84-5.38,7.81s-3.3-5.21-5.21-1c0,0-3.12,12.67-13.71,14.23l-22.56,3.29S123.1,429,121,422.88V406.05h5.73v15.44a1.73,1.73,0,0,0,2,1.71l24.83-4.57A1.7,1.7,0,0,0,155,416.94Z" fill="#679186" data-primary="true"/>
<path d="M155,416.94l-.1-4.93a12.44,12.44,0,0,0-1-4.57,104.73,104.73,0,0,1-4.77-16.32s.92-2.86,6.94-1.42a20.33,20.33,0,0,1,7.44,3.56l13.22,9.84-5.38,7.81s-3.3-5.21-5.21-1c0,0-3.12,12.67-13.71,14.23l-22.56,3.29S123.1,429,121,422.88V406.05h5.73v15.44a1.73,1.73,0,0,0,2,1.71l24.83-4.57A1.7,1.7,0,0,0,155,416.94Z" fill="#fff" opacity="0.4"/>
<path d="M181.86,419.53a5.55,5.55,0,0,0,3-4.9v-3.35a1,1,0,0,0-1-1h0a1.05,1.05,0,0,0-1.1,1.06l0,1.09a.9.9,0,0,1-.79.42.93.93,0,0,1-.72-.45v-1.27a1.42,1.42,0,0,0-1.38-1.42h0a1.42,1.42,0,0,0-1.47,1.48l0,.44a1,1,0,1,1-1.9,0v-2.15a1.37,1.37,0,1,0-2.74,0V411a1.19,1.19,0,0,1-2.37,0v-1a1.54,1.54,0,0,0-1.54-1.54h0a1.54,1.54,0,0,0-1.54,1.54v5a5.48,5.48,0,0,0,3.12,5,13.34,13.34,0,0,0,5,1.12,4.28,4.28,0,0,0,1.13-.09A17,17,0,0,0,181.86,419.53Z" fill="#f9b499"/>
<path d="M812.62,523s-.11,2-3.24,2.39l-26.78.21s-1.46,0-1.67-2.08l-5,.2-108.38,8.34s.42,3.65-3.65,3.44h-284s-4.17.52-5.21-2.92c0,0-3-5.73-15.85-6.88l-97.33-4.89s-.14,3.89-6.25,2.36L218.19,519a42.3,42.3,0,0,1-26.68-11.67l-15.28-16.4V477l166.6-34.6L733,446.6l75,57.52Z" fill="#2f2e41" data-secondary="true"/>
<path d="M812.62,523s-.11,2-3.24,2.39l-26.78.21s-1.46,0-1.67-2.08l-5,.2-108.38,8.34s.42,3.65-3.65,3.44h-284s-4.17.52-5.21-2.92c0,0-3-5.73-15.85-6.88l-97.33-4.89s-.14,3.89-6.25,2.36L218.19,519a42.3,42.3,0,0,1-26.68-11.67l-15.28-16.4V477l166.6-34.6L733,446.6l75,57.52Z" opacity="0.2"/>
<path d="M172.6,462.94l.06.33L174.92,474l2.54,12.16,18,16.85a49.67,49.67,0,0,0,25.84,7.48L258,515a72.81,72.81,0,0,1,2.65-8c6.18-15.94,24.08-49.76,63.24-43.71,0,0,39.92,2.65,49.57,53.72a1.55,1.55,0,0,1,0,.21h297s15.84-51.06,63.78-50.23c0,0,43.77-2.08,49.6,49.61h26.68s4.38,1,7.09-4.8l10-17.45a.76.76,0,0,0-.64-1.14l-3.94-.16,4.37-17.72s3.55-3.55,4.8-11.25l1.88-10a9.7,9.7,0,0,0-.31-5.28c-.73-2.05-2.39-4.22-5.95-5.56a112.66,112.66,0,0,0-42.94-10l-117.55-8.75-52.51-1.88-5.31-.19-3.35-2.64-56.06-44.3a17.38,17.38,0,0,0-4.55-2.77l0,0a41.7,41.7,0,0,0-13.27-3.28s-54-12.62-145.79,8.56c0,0-53.87,14.24-105.61,37.48-5.21,2.34-10.39,4.77-15.5,7.29l-3.26,1.62-73.76,3.75s-7.23-1.26-10.17,10.07a33.35,33.35,0,0,0-.69,3.4Z" fill="#679186" data-primary="true"/>
<path d="M172.6,462.94l.06.33h2.49l3.46-12.55c2.22-11.58,9.13-9.35,9.13-9.35l73.68-3.56,15.8-8.68-9.79.66L266.32,426l-1-3.25-3.26,1.62-73.76,3.75s-8.61-1.5-10.86,13.47Z" opacity="0.2"/>
<path d="M670.47,517.25l-2.33,6.23a5.8,5.8,0,0,1-5.42,3.76H380a5.79,5.79,0,0,1-5.72-4.91l-.78-5.08Z" fill="#fff"/>
<path d="M174.92,474l2.54,12.16,18,16.85a49.67,49.67,0,0,0,25.84,7.48L258,515s15-59.53,65.89-51.67c0,0,40,2.66,49.61,53.93h297s15.84-51.06,63.78-50.23c0,0,39.87-1.9,48.57,42.87.42,2.14.77,4.39,1,6.74h26.68s4.38,1,7.09-4.8l10-17.45a.76.76,0,0,0-.64-1.14l-3.94-.16,4.37-17.72s3.55-3.55,4.8-11.25c-14.17-8.76-113.8-6.26-113.8-6.26-33.77-1.67-49.19,15-49.19,15-7.5,9.17-21.88,9.17-21.88,9.17l-205,.14a96.47,96.47,0,0,1-43.62-9.25,103.28,103.28,0,0,0-14.49-5.75c-39.28-12.37-70.28-14.74-70.28-14.74-59.19-4.16-111.71,4.73-111.71,4.73-15,.55-21.12,14.73-21.12,14.73Z" opacity="0.2"/>
<path d="M178,489.26l3.91-23.83a1.89,1.89,0,0,0-1.87-2.2h-9.91a1.89,1.89,0,0,0-1.88,1.7l-1.53,14.91a1.91,1.91,0,0,0,.45,1.43l7.62,8.89A1.84,1.84,0,0,0,178,489.26Z" fill="#d1d3d4"/>
<path d="M807.41,516.67c1.43,5.89,4.29,6.77,6.56,6.38a6,6,0,0,0,4.12-2.91l16.2-27.27c6-9.46-3.37-10.61-3.37-10.61H791.07v11h35.85a.76.76,0,0,1,.66,1.15l-11.84,20.31s-1.45,2.19-5.21,1.88Z" fill="#d1d3d4"/>
<path d="M321.44,412.61l.38,3,.34,2.65a2.94,2.94,0,0,0,2.86,2.57l11.92.28,5,.12,8.91.21,4.83.11,9.46.22,4,.09,10.21.24,2.82.07,9.18.21,3.35.08a2.13,2.13,0,0,0,2.09-2.76l-8-26.11a2.13,2.13,0,0,0-2.61-1.43l-12.41,3.41h-.06l-11.95,3.3-.17.05-12.06,3.32-.07,0-12.24,3.37-.13,0-13.54,3.73A3,3,0,0,0,321.44,412.61Z" fill="#2f2e41" data-secondary="true"/>
<path d="M808.2,457.49l-92.44-.23-92.44-.14L438.45,457l-46.22,0H382.11l-.77,0-.76.14a6.65,6.65,0,0,0-5,6.95,6.5,6.5,0,0,0,.3,1.52l.28.73.32.65,10.34,20.67,2.58,5.17,1.29,2.59.65,1.29a13,13,0,0,0,.71,1.31,8.61,8.61,0,0,0,4.74,3.61,8.28,8.28,0,0,0,1.48.31,10.83,10.83,0,0,0,1.49.07h2.89l23.11.08,46.22.13,92.44.23,92.44.12-92.44-.6-92.44-.5-46.21-.22-23.11-.1-2.89,0a9,9,0,0,1-1.39-.06,7.6,7.6,0,0,1-1.34-.28,7.72,7.72,0,0,1-4.25-3.25,11.89,11.89,0,0,1-.67-1.23l-.64-1.3-1.29-2.58-2.58-5.17L377.3,466.69,377,466l-.24-.62a5.83,5.83,0,0,1-.25-1.31,5.57,5.57,0,0,1,.42-2.61,5.74,5.74,0,0,1,3.89-3.37l.66-.13.66,0h10.11l46.22,0,184.87-.12,92.44-.13Z" fill="#2f2e41" data-secondary="true"/>
<path d="M408.13,402.69l9.32,24a1.67,1.67,0,0,0,1.51,1.05l39.32.9,81.61,1.86,11,.25,1.57,0,36.22.82h.18a19.21,19.21,0,0,0,5.66.06,1.52,1.52,0,0,0,.61-2.66h0L535.9,381.2a13.57,13.57,0,0,0-2.13-1c-.51-.22-1.12-.45-1.81-.68a35.28,35.28,0,0,0-9.33-1.66s-10.88-1.37-27.13-1.82a333.25,333.25,0,0,0-43.05,1.5,212.07,212.07,0,0,0-37.93,7.19,13.73,13.73,0,0,0-5.3,3.58C406.75,391,405,395.56,408.13,402.69Z" fill="#2f2e41" data-secondary="true"/>
<path d="M260.47,508.19l-47.61-5.29s-11.79-1.63-19.12-7.32L179.1,481.34l-.61,6.1L195.43,503s9.42,6.94,25.84,7.48L258,515Z" opacity="0.2"/>
<path d="M178.15,438.2v.12a10.52,10.52,0,0,1,8.5-5.61l75.25-4.08,19.37-10c8.69,1.82,14.24-.78,14.24-.78l22.16-8.19,63.18-20.05c8.76-1.46,8.44-7.81,8.44-7.81,15.85-4.17,52.11-8.76,52.11-8.76,49.61-6,80.1-.62,80.1-.62,17.93,2,20.29,4.45,20.29,4.45a8.1,8.1,0,0,1,3.47-3.89l.24-.25a41.7,41.7,0,0,0-13.27-3.28s-54-12.62-145.79,8.56c0,0-53.87,14.24-105.61,37.48-5.21,2.34-10.39,4.77-15.5,7.29l-3.26,1.62-73.76,3.75S181.09,426.87,178.15,438.2Z" fill="#679186" data-primary="true"/>
<path d="M178.15,438.2v.12a10.52,10.52,0,0,1,8.5-5.61l75.25-4.08,19.37-10c8.69,1.82,14.24-.78,14.24-.78l22.16-8.19,63.18-20.05c8.76-1.46,8.44-7.81,8.44-7.81,15.85-4.17,52.11-8.76,52.11-8.76,49.61-6,80.1-.62,80.1-.62,17.93,2,20.29,4.45,20.29,4.45a8.1,8.1,0,0,1,3.47-3.89l.24-.25a41.7,41.7,0,0,0-13.27-3.28s-54-12.62-145.79,8.56c0,0-53.87,14.24-105.61,37.48-5.21,2.34-10.39,4.77-15.5,7.29l-3.26,1.62-73.76,3.75S181.09,426.87,178.15,438.2Z" fill="#fff" opacity="0.4"/>
<path d="M834.32,452s-4.71,0-6,6.51l-2.53,14.83,1.59,2.07s3.47-2.44,5.28-13.65Z" fill="#2f2e41" data-secondary="true"/>
<path d="M813.7,482s-3.07-4.52,12.12-8.67l1.59,2.07-1.77,7Z" fill="#2f2e41" data-secondary="true"/>
<path d="M824.41,493l-11.2,17.06h-30.4s.73,3.76,1,6.57l27.51-.11a5.94,5.94,0,0,0,4.38-1.77l11.89-20.41a.77.77,0,0,0-.6-1.15Z" opacity="0.2"/>
<path d="M668.38,517.46l2.09-.21s15.84-51.06,63.78-50.23c0,0,39.87-1.9,48.57,42.87.19-3,1.92-44.7-48.29-48.48,0,0-38-3.91-58,34.86,0,0-3.57,5.93-8.12,21C668.43,517.32,668.4,517.39,668.38,517.46Z" fill="#679186" data-primary="true"/>
<path d="M668.38,517.46l2.09-.21s15.84-51.06,63.78-50.23c0,0,39.87-1.9,48.57,42.87.19-3,1.92-44.7-48.29-48.48,0,0-38-3.91-58,34.86,0,0-3.57,5.93-8.12,21C668.43,517.32,668.4,517.39,668.38,517.46Z" fill="#fff" opacity="0.4"/>
<path d="M260.61,507c6.18-15.94,24.08-49.76,63.24-43.71,0,0,39.92,2.65,49.57,53.72l1.9.15s-2.71-41-35.07-54.58c0,0-33.84-17.79-63,10.62C277.26,473.23,263.24,487.27,260.61,507Z" fill="#679186" data-primary="true"/>
<path d="M260.61,507c6.18-15.94,24.08-49.76,63.24-43.71,0,0,39.92,2.65,49.57,53.72l1.9.15s-2.71-41-35.07-54.58c0,0-33.84-17.79-63,10.62C277.26,473.23,263.24,487.27,260.61,507Z" fill="#fff" opacity="0.4"/>
<path d="M601.82,423.39a26.2,26.2,0,0,1,6.12,11.95l18.4.58,160.74,10.4c20.53,1.33,30.93,5.86,30.93,5.86l15.77-3.36c-.73-2.05-2.39-4.22-5.95-5.56a112.66,112.66,0,0,0-42.94-10l-117.55-8.75-52.51-1.88-5.31-.19-3.35-2.64Z" opacity="0.2"/>
<path d="M605.42,428.27l1,1.79s6-.69,9.87-3.47l156.32,9.17s40.65,2.18,58.46,13.49l2.72-.43c-.73-2.05-2.39-4.22-5.95-5.56a112.66,112.66,0,0,0-42.94-10l-117.55-8.75-52.51-1.88S615.16,425.68,605.42,428.27Z" fill="#679186" data-primary="true"/>
<path d="M605.42,428.27l1,1.79s6-.69,9.87-3.47l156.32,9.17s40.65,2.18,58.46,13.49l2.72-.43c-.73-2.05-2.39-4.22-5.95-5.56a112.66,112.66,0,0,0-42.94-10l-117.55-8.75-52.51-1.88S615.16,425.68,605.42,428.27Z" fill="#fff" opacity="0.4"/>
<path d="M423.17,440.83v-3.62h8.09v3.62a4,4,0,1,1-8.09,0Zm.48-3.14v3.14a3.57,3.57,0,0,0,7.13,0v-3.14Z" fill="#2f2e41" data-secondary="true"/>
<path d="M458.28,428.62l81.61,1.86c-42.22-23.29-44.65-47.54-44.38-54.48a333.35,333.35,0,0,0-43.06,1.5C467.33,400.56,461.22,421.4,458.28,428.62Z" opacity="0.2"/>
<path d="M405.35,403.24,415.64,431l180.07,4.72c6.26-1.64-.31-6.55-.59-6.76a1.52,1.52,0,0,1-.6,2.66,19.75,19.75,0,0,1-5.67-.05l-.18,0-48.78-1.11-81.61-1.86-39.32-.9a1.65,1.65,0,0,1-1.5-1.05l-9.33-24c-3.13-7.13-1.37-11.67,1.09-14.42C401.11,392.89,405.35,403.24,405.35,403.24Z" fill="#fff" opacity="0.4"/>
<path d="M532,379.48l18.92,51.25,1.57,0-18.68-50.61C533.26,379.94,532.65,379.71,532,379.48Z" fill="#2f2e41" data-secondary="true"/>
<g opacity="0.2">
<path d="M532,379.48l18.92,51.25,1.57,0-18.68-50.61C533.26,379.94,532.65,379.71,532,379.48Z"/>
</g>
<path d="M280.84,415.47c7.42,3.23,19.13-2,19.13-2l83.29-27c5.67-1.31,3.19-8.47,3.19-8.47S332.58,392.23,280.84,415.47Z" fill="#2f2e41" data-secondary="true"/>
<polygon points="670.52 511.97 633.27 511.71 596.02 511.54 521.52 511.38 447.02 511.44 409.77 511.55 372.52 511.76 409.77 512.02 447.02 512.19 521.52 512.35 596.02 512.29 633.27 512.18 670.52 511.97" fill="#2f2e41" data-secondary="true"/>
<path d="M419,427.73a2.16,2.16,0,0,0-.7,1.13,8.59,8.59,0,0,0-.27,1.32,17.54,17.54,0,0,0-.08,2.71,42.21,42.21,0,0,0,.6,5.37c.16.89.3,1.78.5,2.66s.37,1.77.51,2.66l.92,5.33,3.69,21.31,7.49,42.62v-.19a1.1,1.1,0,0,0,.22,1,1.78,1.78,0,0,0,.29.32l.33.22a3.76,3.76,0,0,0,.68.31l.34.12.35.08a13.69,13.69,0,0,0,2.76.33c.92,0,1.83,0,2.73,0s1.81,0,2.71,0l10.84,0,21.68,0,43.36.07,86.71-.05-.21-.06a1,1,0,0,0,1.07-.09,2,2,0,0,0,.56-.62,6.13,6.13,0,0,0,.6-1.34,17.55,17.55,0,0,0,.64-2.74c.31-1.84.46-3.67.65-5.5q.56-5.51,1.06-11c.67-7.33,1.27-14.67,1.73-22,.21-3.67.39-7.35.46-11,0-1.85,0-3.69,0-5.53,0-.93-.11-1.85-.24-2.77l-.47-2.72-1.88-10.88L608.1,436c-.08-.45-.14-.91-.22-1.36s-.18-.91-.29-1.35a15.22,15.22,0,0,0-2.17-5.05,15,15,0,0,1,2.11,5.06c.11.45.2.9.28,1.35s.12.91.2,1.36l.44,2.73,1.76,10.9a45.77,45.77,0,0,1,.63,11c-.11,3.67-.33,7.34-.59,11-.5,7.34-1.15,14.67-1.86,22q-.52,5.49-1.12,11c-.21,1.83-.37,3.66-.68,5.45a16.15,16.15,0,0,1-.63,2.62,5.21,5.21,0,0,1-.53,1.17,1.47,1.47,0,0,1-.35.41.2.2,0,0,1-.09.05.11.11,0,0,1-.07,0h-.06l-.22-.06-86.72-.17-43.37,0H442c-.9,0-1.81,0-2.71,0s-1.79.06-2.68,0a14,14,0,0,1-2.61-.29,4.63,4.63,0,0,1-1.17-.42c-.07,0-.16-.1-.23-.16s-.14-.11-.17-.18a.54.54,0,0,1-.1-.18s0-.13,0-.11l0-.18-7.75-42.57-3.93-21.28-1-5.32c-.15-.89-.34-1.77-.54-2.65s-.36-1.76-.53-2.65a43.81,43.81,0,0,1-.65-5.36,17.26,17.26,0,0,1,0-2.69,7.63,7.63,0,0,1,.26-1.33A2.1,2.1,0,0,1,419,427.73Z" fill="#2f2e41" data-secondary="true"/>
<path d="M541.57,380.94l56,43.64c4.61,4.38,7.83,3.69,7.83,3.69,7.77-2,9.19-5,9.41-5.64l-5.31-.19L550.11,375.5a17.38,17.38,0,0,0-4.55-2.77l-.29.23c-1.8.75-3.41,3.47-4.31,5.26A2.19,2.19,0,0,0,541.57,380.94Z" fill="#2f2e41" data-secondary="true"/>
<path d="M823.34,441.1c-.57,3-1.09,6-1.62,9l-1.57,9c-.51,3-1,6-1.57,9-.27,1.5-.54,3-.84,4.48s-.59,3-1,4.46a84.33,84.33,0,0,0,2.17-8.87c.62-3,1.14-6,1.69-9s1-6,1.45-9S823,444.12,823.34,441.1Z" fill="#2f2e41" data-secondary="true"/>
<path d="M814.81,494l-.23,2.89c-.08,1-.16,1.93-.26,2.89-.19,1.93-.37,3.85-.65,5.76s-.56,3.82-1,5.71a24.49,24.49,0,0,1-.8,2.78,8.34,8.34,0,0,1-1.35,2.57,7.66,7.66,0,0,0,1.57-2.49,21.65,21.65,0,0,0,.94-2.78,49.09,49.09,0,0,0,1.11-5.73c.24-1.93.43-3.86.54-5.79S814.86,496,814.81,494Z" fill="#2f2e41" data-secondary="true"/>
<rect x="422.35" y="435.13" width="25.99" height="3.38" rx="1.52" transform="translate(870.7 873.63) rotate(-180)" fill="#2f2e41" data-secondary="true"/>
<circle cx="315.7" cy="521.23" r="49.1" fill="#2f2e41" data-secondary="true"/>
<circle cx="315.7" cy="521.23" r="44.93" fill="#6d6e71"/>
<path d="M281.16,521.23a34.54,34.54,0,1,1,34.54,34.55A34.58,34.58,0,0,1,281.16,521.23Zm1.45,0a33.09,33.09,0,1,0,33.09-33.08A33.13,33.13,0,0,0,282.61,521.23Z" fill="#679186" data-primary="true"/>
<path d="M286.15,521.24a30.5,30.5,0,0,0,.28,4.08,29.55,29.55,0,0,0,58.7-1.51c.08-.85.12-1.7.12-2.57a29.55,29.55,0,0,0-59.1,0Z" fill="#fff"/>
<path d="M286.43,525.32a29.55,29.55,0,0,0,58.7-1.51c-2.92.79-11.16,2.67-16,.53,0,0-9.22-4.06-18.78-2.91a21,21,0,0,0-5.5,1.47l-7.3,3a13.06,13.06,0,0,1-5.35,1,10.65,10.65,0,0,1-5.72-1.53Z" fill="#d1d3d4"/>
<path d="M315.67,548.07a26.59,26.59,0,0,1-6-.67.48.48,0,0,1-.36-.58.49.49,0,0,1,.58-.37,25.73,25.73,0,0,0,5.75.65.49.49,0,0,1,.49.49.48.48,0,0,1-.49.48Zm5.39-1a.47.47,0,0,1,.36-.58,25.72,25.72,0,0,0,5.47-1.91.49.49,0,0,1,.65.23.48.48,0,0,1-.23.65,26.46,26.46,0,0,1-5.67,2l-.11,0A.49.49,0,0,1,321.06,547.05Zm-17-1.64a27.14,27.14,0,0,1-5.08-3.2.49.49,0,0,1,.61-.76,25.76,25.76,0,0,0,4.9,3.09.48.48,0,0,1,.22.65.48.48,0,0,1-.44.27A.41.41,0,0,1,304,545.41Zm27.69-3.24a.49.49,0,0,1,.08-.69,26,26,0,0,0,4.1-4.09.48.48,0,0,1,.68-.07.49.49,0,0,1,.08.68,27.11,27.11,0,0,1-4.26,4.24.48.48,0,0,1-.3.11A.49.49,0,0,1,331.72,542.17Zm-37-4.21a26.63,26.63,0,0,1-3.2-5.08.49.49,0,0,1,.87-.43,25.76,25.76,0,0,0,3.09,4.9.48.48,0,0,1-.38.79A.48.48,0,0,1,294.71,538Zm44.5-4.81a.48.48,0,0,1-.22-.65,25.86,25.86,0,0,0,1.92-5.46.48.48,0,0,1,.58-.36.49.49,0,0,1,.37.58,26.74,26.74,0,0,1-2,5.67.47.47,0,0,1-.43.27A.54.54,0,0,1,339.21,533.15Zm-49.68-5.95a26.46,26.46,0,0,1-.67-6v-.11a.48.48,0,0,1,.49-.48h0a.48.48,0,0,1,.48.49v.1a26.41,26.41,0,0,0,.64,5.76.48.48,0,0,1-.36.58H290A.48.48,0,0,1,289.53,527.2Zm52-5.91v-.06a25.93,25.93,0,0,0-.63-5.7.49.49,0,0,1,.95-.21,26.64,26.64,0,0,1,.66,5.91v.06a.49.49,0,0,1-1,0Zm-51.65-5.55a.48.48,0,0,1-.36-.58,26.57,26.57,0,0,1,2-5.67.49.49,0,1,1,.87.43,25.15,25.15,0,0,0-1.93,5.46.48.48,0,0,1-.48.37ZM339,510.06a25.18,25.18,0,0,0-3.07-4.9.49.49,0,1,1,.76-.61,26.66,26.66,0,0,1,3.19,5.09.47.47,0,0,1-.23.65.38.38,0,0,1-.21,0A.49.49,0,0,1,339,510.06Zm-44.18-4.95a.49.49,0,0,1-.07-.69,27.05,27.05,0,0,1,4.26-4.23.48.48,0,0,1,.6.76,26.43,26.43,0,0,0-4.11,4.08.47.47,0,0,1-.38.19A.5.5,0,0,1,294.85,505.11Zm37-4.06A26,26,0,0,0,327,498a.5.5,0,0,1-.23-.65.48.48,0,0,1,.65-.23,27.71,27.71,0,0,1,5.08,3.21.49.49,0,0,1,.07.69.48.48,0,0,1-.38.18A.5.5,0,0,1,331.88,501.05Zm-28-3.39a.49.49,0,0,1,.23-.65,26.73,26.73,0,0,1,5.68-2,.5.5,0,0,1,.58.37.48.48,0,0,1-.37.58,25.52,25.52,0,0,0-5.47,1.9.52.52,0,0,1-.21,0A.5.5,0,0,1,303.9,497.66ZM321.53,496a25.81,25.81,0,0,0-5.75-.66.49.49,0,0,1-.49-.49.48.48,0,0,1,.49-.48h0a26.6,26.6,0,0,1,6,.68.49.49,0,0,1-.11,1Z" fill="#679186" data-primary="true"/>
<circle cx="315.7" cy="521.44" r="8.47" fill="#2f2e41" data-secondary="true"/>
<circle cx="315.41" cy="521.26" r="3.09" fill="#fff"/>
<path d="M285.71,525.42a30.8,30.8,0,0,1-.29-4.18,30.28,30.28,0,0,1,60.56,0c0,.86,0,1.75-.12,2.64a30.28,30.28,0,0,1-60.15,1.54Zm1.17-4.18a29.57,29.57,0,0,0,.27,4,28.82,28.82,0,0,0,57.26-1.47c.07-.84.11-1.69.11-2.51a28.82,28.82,0,0,0-57.64,0Z" fill="#2f2e41" data-secondary="true"/>
<circle cx="729.63" cy="521.23" r="49.1" fill="#2f2e41" data-secondary="true"/>
<circle cx="729.63" cy="521.23" r="44.93" fill="#6d6e71"/>
<path d="M695.09,521.23a34.54,34.54,0,1,1,34.54,34.55A34.58,34.58,0,0,1,695.09,521.23Zm1.46,0a33.08,33.08,0,1,0,33.08-33.08A33.12,33.12,0,0,0,696.55,521.23Z" fill="#679186" data-primary="true"/>
<path d="M700.08,521.24a30.5,30.5,0,0,0,.28,4.08,29.55,29.55,0,0,0,58.71-1.51c.07-.85.11-1.7.11-2.57a29.55,29.55,0,0,0-59.1,0Z" fill="#fff"/>
<path d="M700.36,525.32a29.55,29.55,0,0,0,58.71-1.51c-2.93.79-11.17,2.67-16,.53,0,0-9.22-4.06-18.79-2.91a21,21,0,0,0-5.5,1.47l-7.3,3a13.06,13.06,0,0,1-5.35,1,10.65,10.65,0,0,1-5.72-1.53Z" fill="#d1d3d4"/>
<path d="M729.6,548.07a26.59,26.59,0,0,1-6-.67.48.48,0,0,1-.36-.58.49.49,0,0,1,.58-.37,25.73,25.73,0,0,0,5.75.65.49.49,0,0,1,.49.49.48.48,0,0,1-.49.48Zm5.39-1a.47.47,0,0,1,.37-.58,25.83,25.83,0,0,0,5.46-1.91.49.49,0,0,1,.43.88,26.54,26.54,0,0,1-5.68,2l-.11,0A.49.49,0,0,1,735,547.05Zm-17-1.64a27.14,27.14,0,0,1-5.08-3.2.49.49,0,0,1,.61-.76,25.76,25.76,0,0,0,4.9,3.09.48.48,0,0,1,.22.65.47.47,0,0,1-.43.27A.42.42,0,0,1,718,545.41Zm27.69-3.24a.49.49,0,0,1,.08-.69,26,26,0,0,0,4.1-4.09.49.49,0,0,1,.76.61,27.11,27.11,0,0,1-4.26,4.24.48.48,0,0,1-.3.11A.49.49,0,0,1,745.65,542.17Zm-37-4.21a27.14,27.14,0,0,1-3.2-5.08.47.47,0,0,1,.23-.65.48.48,0,0,1,.65.22,25.22,25.22,0,0,0,3.08,4.9.49.49,0,0,1-.08.69.47.47,0,0,1-.3.1A.49.49,0,0,1,708.64,538Zm44.51-4.81a.48.48,0,0,1-.23-.65,25.86,25.86,0,0,0,1.92-5.46.49.49,0,0,1,.95.22,27.27,27.27,0,0,1-2,5.67.49.49,0,0,1-.65.22Zm-49.69-5.95a26.46,26.46,0,0,1-.67-6v-.11a.48.48,0,0,1,.49-.48h0a.48.48,0,0,1,.48.49v.1a25.82,25.82,0,0,0,.65,5.76.5.5,0,0,1-.37.58h-.11A.48.48,0,0,1,703.46,527.2Zm52-5.91v-.06a26.55,26.55,0,0,0-.63-5.7.48.48,0,0,1,.36-.58.49.49,0,0,1,.58.37,26.64,26.64,0,0,1,.66,5.91v.06a.49.49,0,0,1-.49.49A.48.48,0,0,1,755.5,521.29Zm-51.65-5.55a.48.48,0,0,1-.37-.58,26.57,26.57,0,0,1,2-5.67.49.49,0,1,1,.87.43,26.25,26.25,0,0,0-1.93,5.46.48.48,0,0,1-.47.37ZM753,510.06a25.71,25.71,0,0,0-3.08-4.9.5.5,0,0,1,.08-.69.49.49,0,0,1,.68.08,26.66,26.66,0,0,1,3.19,5.09.47.47,0,0,1-.23.65.36.36,0,0,1-.21,0A.47.47,0,0,1,753,510.06Zm-44.19-4.95a.49.49,0,0,1-.07-.69,27.05,27.05,0,0,1,4.26-4.23.48.48,0,1,1,.6.76,26.87,26.87,0,0,0-4.11,4.08.47.47,0,0,1-.37.19A.51.51,0,0,1,708.78,505.11Zm37-4.06a25.68,25.68,0,0,0-4.89-3.09.48.48,0,0,1-.22-.65.47.47,0,0,1,.65-.23,27.63,27.63,0,0,1,5.07,3.21.49.49,0,0,1,.07.69.46.46,0,0,1-.38.18A.5.5,0,0,1,745.81,501.05Zm-28-3.39a.49.49,0,0,1,.23-.65,26.92,26.92,0,0,1,5.68-2,.5.5,0,0,1,.58.37.48.48,0,0,1-.36.58,25.41,25.41,0,0,0-5.48,1.9.49.49,0,0,1-.21,0A.5.5,0,0,1,717.83,497.66ZM735.46,496a25.74,25.74,0,0,0-5.75-.66.49.49,0,0,1,0-1h0a26.53,26.53,0,0,1,6,.68.49.49,0,0,1-.11,1Z" fill="#679186" data-primary="true"/>
<circle cx="729.63" cy="521.44" r="8.47" fill="#2f2e41" data-secondary="true"/>
<circle cx="729.34" cy="521.26" r="3.09" fill="#fff"/>
<path d="M699.64,525.42a30.8,30.8,0,0,1-.29-4.18,30.28,30.28,0,0,1,60.56,0c0,.86,0,1.75-.12,2.64a30.28,30.28,0,0,1-60.15,1.54Zm1.17-4.18a29.57,29.57,0,0,0,.27,4,28.82,28.82,0,0,0,57.26-1.47c.07-.84.11-1.69.11-2.51a28.82,28.82,0,0,0-57.64,0Z" fill="#2f2e41" data-secondary="true"/>
<ellipse cx="438.41" cy="254.91" rx="44.2" ry="44.97" fill="#679186" data-primary="true"/>
<ellipse cx="438.41" cy="254.91" rx="44.2" ry="44.97" fill="#fff" opacity="0.4"/>
<polygon points="420.61 232.59 434.45 256.23 440.41 250.05 420.61 232.59" fill="#fff" opacity="0.4"/>
<rect x="424.94" y="269.42" width="32.86" height="5.36" fill="#679186" data-primary="true"/>
<path d="M440.41,219a.56.56,0,0,1-.56-.56V206.3a.56.56,0,1,1,1.11,0v12.1A.56.56,0,0,1,440.41,219Z" fill="#2f2e41" data-secondary="true"/>
<path d="M440.41,305.73a.56.56,0,0,1-.56-.55V292.59a.56.56,0,0,1,1.11,0v12.59A.55.55,0,0,1,440.41,305.73Z" fill="#2f2e41" data-secondary="true"/>
<path d="M455.89,221.21a.63.63,0,0,1-.22-.05.55.55,0,0,1-.29-.73l4-9.33a.55.55,0,0,1,.73-.3.56.56,0,0,1,.29.73l-4,9.34A.55.55,0,0,1,455.89,221.21Z" fill="#2f2e41" data-secondary="true"/>
<path d="M468.17,228.47a.54.54,0,0,1-.37-.14.56.56,0,0,1,0-.79l6.51-7.26a.56.56,0,0,1,.79,0,.56.56,0,0,1,0,.78l-6.51,7.27A.58.58,0,0,1,468.17,228.47Z" fill="#2f2e41" data-secondary="true"/>
<path d="M476.82,242.13a.55.55,0,0,1-.3-1l9.25-5.85a.56.56,0,0,1,.77.17.56.56,0,0,1-.18.77l-9.24,5.85A.56.56,0,0,1,476.82,242.13Z" fill="#2f2e41" data-secondary="true"/>
<path d="M489.61,256.07h-11.7a.56.56,0,0,1-.56-.56.55.55,0,0,1,.56-.55h11.7a.55.55,0,0,1,.56.55A.56.56,0,0,1,489.61,256.07Z" fill="#2f2e41" data-secondary="true"/>
<path d="M403.07,256.07H391.61a.55.55,0,0,1-.55-.56.54.54,0,0,1,.55-.55h11.46a.55.55,0,0,1,.56.55A.56.56,0,0,1,403.07,256.07Z" fill="#2f2e41" data-secondary="true"/>
<path d="M405,242.13a.66.66,0,0,1-.27-.06l-10.77-5.85a.56.56,0,0,1-.22-.76.55.55,0,0,1,.75-.22l10.78,5.85a.55.55,0,0,1-.27,1Z" fill="#2f2e41" data-secondary="true"/>
<path d="M412.38,228.47a.57.57,0,0,1-.43-.2L406,221a.57.57,0,0,1,.08-.79.55.55,0,0,1,.78.08l6,7.26a.56.56,0,0,1-.08.79A.55.55,0,0,1,412.38,228.47Z" fill="#2f2e41" data-secondary="true"/>
<path d="M425.75,221.21a.56.56,0,0,1-.49-.29l-5.13-9.34a.55.55,0,1,1,1-.53l5.14,9.33a.56.56,0,0,1-.22.76A.54.54,0,0,1,425.75,221.21Z" fill="#2f2e41" data-secondary="true"/>
<path d="M395.43,275.34a.54.54,0,0,1-.48-.29.55.55,0,0,1,.21-.75l9.55-5.37a.56.56,0,0,1,.54,1l-9.55,5.36A.5.5,0,0,1,395.43,275.34Z" fill="#2f2e41" data-secondary="true"/>
<path d="M406.41,291a.59.59,0,0,1-.33-.11.55.55,0,0,1-.11-.78l6-7.88a.55.55,0,1,1,.88.67l-6,7.88A.58.58,0,0,1,406.41,291Z" fill="#2f2e41" data-secondary="true"/>
<path d="M420.61,300.43a.48.48,0,0,1-.26-.07.56.56,0,0,1-.23-.75l5.14-9.39A.57.57,0,0,1,426,290a.56.56,0,0,1,.22.76l-5.14,9.39A.56.56,0,0,1,420.61,300.43Z" fill="#2f2e41" data-secondary="true"/>
<path d="M459.87,300.43a.55.55,0,0,1-.51-.34l-4-9.39a.56.56,0,0,1,.29-.73.55.55,0,0,1,.73.3l4,9.39a.56.56,0,0,1-.29.73A.57.57,0,0,1,459.87,300.43Z" fill="#2f2e41" data-secondary="true"/>
<path d="M474.68,289.72a.56.56,0,0,1-.39-.17L467.78,283a.56.56,0,0,1,0-.79.56.56,0,0,1,.79,0l6.51,6.56a.56.56,0,0,1,0,.79A.59.59,0,0,1,474.68,289.72Z" fill="#2f2e41" data-secondary="true"/>
<path d="M486.06,275.34a.6.6,0,0,1-.28-.08l-9.24-5.36a.56.56,0,0,1,.56-1l9.24,5.36a.56.56,0,0,1,.21.76A.57.57,0,0,1,486.06,275.34Z" fill="#2f2e41" data-secondary="true"/>
<circle cx="440.41" cy="256.23" r="8.43" fill="#fff"/>
</svg>