 <!DOCTYPE svg PUBLIC "-//W3C//DTD SVG 1.1//EN" "http://www.w3.org/Graphics/SVG/1.1/DTD/svg11.dtd">
<svg xmlns="http://www.w3.org/2000/svg" width="865.76" height="682.89" viewBox="0 0 865.76 682.89">
<defs>
<style xmlns="http://www.w3.org/1999/xhtml">*, ::after, ::before { box-sizing: border-box; }
img, svg { vertical-align: middle; }
</style>
<style xmlns="http://www.w3.org/1999/xhtml">*, body, html { -webkit-font-smoothing: antialiased; }
img, svg { max-width: 100%; }
</style>
</defs>
<polygon points="708.77 422.24 766.19 422.24 799.06 258.36 746.49 234.2 708.77 422.24" fill="#dbdbdb"/>
<polygon points="544.38 422.24 708.77 422.24 746.49 234.2 582.1 234.2 544.38 422.24" fill="#ebebeb"/>
<rect x="738.25" y="334.32" width="88.03" height="180.6" fill="#dbdbdb"/>
<polygon points="502.15 514.92 526.2 514.92 562.01 334.31 502.15 334.31 502.15 514.92" fill="#dbdbdb"/>
<rect x="689.9" y="334.32" width="48.37" height="180.6" fill="#ebebeb"/>
<rect x="453.78" y="334.32" width="48.37" height="180.6" fill="#ebebeb"/>
<rect x="502.13" y="422.22" width="187.75" height="92.68" fill="#ebebeb"/>
<rect x="502.13" y="382.19" width="187.75" height="40.44" fill="#ebebeb"/>
<path d="M726.5,334.31,708.24,334,690,333.76h-.54v.56l-.2,21.16-.09,21.13c0,14.09-.09,28.18,0,42.26s0,28.18.25,42.27.31,28.18.6,42.27q.45-21.14.61-42.27c.19-14.09.2-28.18.26-42.27s0-28.17,0-42.26V355.48l-.2-21.16-.56.57,18.27-.24Z" fill="#dbdbdb"/>
<path d="M502.15,334.31c-.38,14.14-.56,28.28-.71,42.43l-.22,42.42.22,42.43.25,21.23.46,21.2.43-21.2.25-21.23.22-42.43-.22-42.42C502.69,362.59,502.51,348.45,502.15,334.31Z" fill="#dbdbdb"/>
<path d="M502.15,422.24c15.64.37,31.29.55,46.93.69l46.94.22,46.92-.22,23.54-.25,23.55-.44-23.55-.45-23.54-.25-46.83-.22-47.08.23C533.44,421.68,517.79,421.86,502.15,422.24Z" fill="#dbdbdb"/>
<path d="M502.15,382.17c15.64.38,31.29.56,46.93.7l46.94.2,46.92-.2,23.54-.25,23.55-.45-23.55-.45-23.54-.26-46.83-.2-46.93.22C533.44,381.72,517.79,381.72,502.15,382.17Z" fill="#dbdbdb"/>
<polygon points="792.81 514.91 794.01 529.54 796.79 563.35 809.54 563.35 812.31 529.54 813.51 514.91 792.81 514.91" fill="#c7c7c7"/>
<polygon points="813.51 514.91 792.81 514.91 794.01 529.54 812.31 529.54 813.51 514.91" fill="#a6a6a6"/>
<polygon points="703.73 514.91 704.91 529.54 707.7 563.35 720.45 563.35 723.22 529.54 724.41 514.91 703.73 514.91" fill="#c7c7c7"/>
<polygon points="724.41 514.91 703.73 514.91 704.91 529.54 723.22 529.54 724.41 514.91" fill="#a6a6a6"/>
<polygon points="555.95 514.91 557.14 529.54 559.91 563.35 572.66 563.35 575.45 529.54 576.65 514.91 555.95 514.91" fill="#c7c7c7"/>
<polygon points="576.65 514.91 555.95 514.91 557.14 529.54 575.45 529.54 576.65 514.91" fill="#a6a6a6"/>
<polygon points="466.83 514.91 468.03 529.54 470.82 563.35 483.55 563.35 486.34 529.54 487.53 514.91 466.83 514.91" fill="#c7c7c7"/>
<polygon points="466.83 514.91 468.03 529.54 486.34 529.54 487.53 514.91 466.83 514.91" fill="#a6a6a6"/>
<rect x="53.72" y="0.02" width="277.1" height="369.35" fill="#dbdbdb"/>
<rect x="66.85" y="14.81" width="119.83" height="164.28" fill="#fff"/>
<rect x="197.86" y="14.81" width="119.83" height="164.28" fill="#fff"/>
<rect x="66.85" y="190.29" width="119.83" height="164.28" fill="#fff"/>
<rect x="197.86" y="190.29" width="119.83" height="164.28" fill="#fff"/>
<rect x="53.72" y="0.02" width="57.06" height="528.41" fill="#ebebeb"/>
<polygon points="99.97 25.14 100.4 82.27 100.57 139.4 100.87 253.67 100.57 367.94 100.4 425.07 99.97 482.2 99.52 425.07 99.35 367.94 99.06 253.67 99.35 139.4 99.52 82.27 99.97 25.14" fill="#fff"/>
<polygon points="73.77 38.39 74.2 89.4 74.45 140.42 74.67 242.44 74.45 344.48 74.2 395.5 73.77 446.51 73.31 395.5 73.06 344.48 72.86 242.44 73.08 140.42 73.33 89.4 73.77 38.39" fill="#fff"/>
<polygon points="86.86 50.43 87.29 110.16 87.45 169.9 87.76 289.36 87.47 408.84 87.31 468.56 86.86 528.31 86.42 468.56 86.26 408.84 85.95 289.36 86.26 169.9 86.42 110.16 86.86 50.43" fill="#fff"/>
<polygon points="64.02 28.14 64.46 90.67 64.62 153.18 64.93 278.22 64.62 403.26 64.46 465.8 64.02 528.31 63.57 465.8 63.42 403.26 63.12 278.22 63.42 153.18 63.59 90.67 64.02 28.14" fill="#fff"/>
<rect x="273.78" width="57.06" height="528.41" fill="#ebebeb"/>
<polygon points="284.59 25.14 285.02 82.27 285.19 139.4 285.49 253.67 285.19 367.94 285.02 425.07 284.59 482.2 284.13 425.07 283.99 367.94 283.68 253.67 283.99 139.4 284.13 82.27 284.59 25.14" fill="#fff"/>
<polygon points="310.79 38.39 311.23 89.4 311.48 140.42 311.68 242.44 311.48 344.48 311.23 395.5 310.79 446.51 310.34 395.5 310.08 344.48 309.88 242.44 310.08 140.42 310.34 89.4 310.79 38.39" fill="#fff"/>
<polygon points="297.68 50.43 298.12 110.16 298.28 169.9 298.58 289.36 298.28 408.84 298.13 468.56 297.68 528.31 297.25 468.56 297.08 408.84 296.77 289.36 297.08 169.9 297.25 110.16 297.68 50.43" fill="#fff"/>
<polygon points="320.51 28.14 320.97 90.67 321.13 153.18 321.42 278.22 321.13 403.26 320.97 465.8 320.51 528.31 320.08 465.8 319.92 403.26 319.63 278.22 319.92 153.18 320.08 90.67 320.51 28.14" fill="#fff"/>
<rect x="444.23" y="29.57" width="96.99" height="117.65" fill="#ebebeb"/>
<rect x="455.32" y="40.31" width="74.83" height="96.18" fill="#fff"/>
<rect x="455.32" y="40.31" width="2.92" height="96.18" fill="#dbdbdb"/>
<rect x="541.24" y="29.57" width="2.92" height="117.65" fill="#dbdbdb"/>
<rect x="480.4" y="53.57" width="17.64" height="52.57" fill="#dbdbdb"/>
<path d="M520.65,116H471.76V88.46h48.89Zm-47.08-1.81h45.27V90.27H473.57Z" fill="#ebebeb"/>
<rect x="713.24" y="29.57" width="96.99" height="117.65" fill="#ebebeb"/>
<rect x="724.32" y="40.31" width="74.83" height="96.18" fill="#fff"/>
<rect x="724.32" y="40.31" width="2.92" height="96.18" fill="#dbdbdb"/>
<rect x="810.23" y="29.57" width="2.92" height="117.65" fill="#dbdbdb"/>
<rect x="749.39" y="53.57" width="17.64" height="52.57" fill="#dbdbdb"/>
<path d="M789.64,116H740.75V88.46h48.89Zm-47.08-1.81h45.27V90.27H742.56Z" fill="#ebebeb"/>
<rect x="578.73" y="29.57" width="96.99" height="117.65" fill="#ebebeb"/>
<rect x="589.81" y="40.31" width="74.83" height="96.18" fill="#fff"/>
<rect x="589.81" y="40.31" width="2.92" height="96.18" fill="#dbdbdb"/>
<rect x="675.74" y="29.57" width="2.92" height="117.65" fill="#dbdbdb"/>
<rect x="619.98" y="65.17" width="15.12" height="38.23" fill="#ebebeb"/>
<path d="M651.92,115.64H609.51V87.48h42.41Zm-40.6-1.81h38.79V89.29H611.32Z" fill="#dbdbdb"/>
<path d="M107.28,438.18c-10.52-21.61-29-32.71-49.65-26.59s-24,35.06-8.4,42.36,31-14,39.13-18.4S107.28,438.18,107.28,438.18Z" fill="#0071f2" data-primary="true"/>
<path d="M117.46,495.8c0-2.61-.16-5.21-.25-7.82q-.27-7.82-.56-15.59c-.35-9.53-1.38-18.86-5.31-27.64a42.88,42.88,0,0,0-16.68-19.21,34.94,34.94,0,0,0-8.76-3.79,20.46,20.46,0,0,0-10.23-5.63,41.89,41.89,0,0,0-14.6-.38c-.18,0-.16.31,0,.27a35.32,35.32,0,0,1,13.8,1,29.07,29.07,0,0,1,5.56,2.15,25.05,25.05,0,0,1,3.2,2,29.58,29.58,0,0,0-12.67.13,27,27,0,0,0-4.4,1.44,13.28,13.28,0,0,0-3.44-.3,20.53,20.53,0,0,0-4.49.65,32.76,32.76,0,0,0-8.53,3.73c-.17,0,0,.31.14.22a32.63,32.63,0,0,1,8.31-3.14,28.36,28.36,0,0,1,4.3-.61,18.74,18.74,0,0,1,2.37,0,27.42,27.42,0,0,0-13.4,13.34c0,.17.16.31.23.15a25.34,25.34,0,0,1,17.1-13.69c.47-.11.94-.17,1.39-.26a20.85,20.85,0,0,0-.22,2.09c-.14,1.05-.32,2.1-.52,3.13a55.88,55.88,0,0,1-1.69,6.34,50.49,50.49,0,0,1-2.58,6.12A28.56,28.56,0,0,1,62,446.4a.14.14,0,0,0,0,.2.14.14,0,0,0,.2,0,.12.12,0,0,0,.06-.08c1.25-1.95,2.7-3.75,3.84-5.77a44,44,0,0,0,2.81-6,41.64,41.64,0,0,0,1.81-6.49q.34-1.74.54-3.51a7.4,7.4,0,0,0,.14-2.15,28.34,28.34,0,0,1,7.36-.15c-.93,5.16-1.9,10.54-4.8,15-.09.15.16.29.25.13a57.83,57.83,0,0,0,3.62-7.37,27.83,27.83,0,0,0,1.81-7.68,34.09,34.09,0,0,1,12.17,4.08A40.28,40.28,0,0,1,108,444.35a67,67,0,0,1,6,25.36c.69,11,.84,22.16,1.94,33.17,0,.73,1.21,1,1.34.15A39.7,39.7,0,0,0,117.46,495.8Z" fill="#2f2e41" data-secondary="true"/>
<path d="M93.16,423.71a12.91,12.91,0,0,0-2.39-2.16c-.87-.7-1.81-1.39-2.68-2a19.64,19.64,0,0,0-6-2.77c-.18,0-.25.23,0,.27a15.77,15.77,0,0,1,5.89,2.9,28.11,28.11,0,0,1,2.55,2A13.9,13.9,0,0,0,93,424,.21.21,0,0,0,93.16,423.71Z" fill="#2f2e41" data-secondary="true"/>
<path d="M59.6,431.55a64.1,64.1,0,0,0-4.83,6.3A39.73,39.73,0,0,0,51.15,445s.09.11.12,0a86.17,86.17,0,0,1,8.5-13.35C59.91,431.61,59.71,431.41,59.6,431.55Z" fill="#2f2e41" data-secondary="true"/>
<path d="M82.22,429.41a15.18,15.18,0,0,1-1.19,3.9,24.4,24.4,0,0,1-2,3.47s0,.15.11,0a14,14,0,0,0,3.35-7.4C82.51,429.31,82.24,429.23,82.22,429.41Z" fill="#2f2e41" data-secondary="true"/>
<path d="M116,438.7s14.89-18.7,43.7-12.07C187,433,199.53,483,172,489s-22.81-40.29-32.86-48.22C131.77,435,121.14,436.26,116,438.7Z" fill="#0071f2" data-primary="true"/>
<path d="M181.8,454a55.38,55.38,0,0,0-5.92-4.55,26.16,26.16,0,0,0-6.3-3.15,40.67,40.67,0,0,0-3.75-4.82,37.68,37.68,0,0,0-8.69-6.91H158a43.73,43.73,0,0,1,4.58,0,24.8,24.8,0,0,1,8.86,2.21c.16,0,.29-.18.12-.26a41.46,41.46,0,0,0-8.85-2.68,25.13,25.13,0,0,0-4.49-.38,13,13,0,0,0-2.41.15h-.47a37.92,37.92,0,0,0-8.32-3,3.8,3.8,0,0,0,.8-.22,38.59,38.59,0,0,1,4.26-.7,33.46,33.46,0,0,1,8.6.12c.18,0,.22-.23,0-.25a52.58,52.58,0,0,0-8.69-.36,36.18,36.18,0,0,0-7.25.94,38.53,38.53,0,0,0-5.25-.6c-10-.43-20.93,3.31-27.16,11.55s-7.37,19.24-8.46,29.2a222.08,222.08,0,0,0-.94,41.81c0,.81,1.21.67,1.25-.11.38-11.81.8-23.54,1.92-35.38.52-5.44,1.1-10.87,2-16.3a48.13,48.13,0,0,1,4-13.44,24.76,24.76,0,0,1,9.69-10.43,32.58,32.58,0,0,1,13.75-4.24,37.13,37.13,0,0,1,12.89,1.22,8.39,8.39,0,0,0,0,2.55,15.24,15.24,0,0,0,.63,3.13,15.65,15.65,0,0,0,1.2,2.79c.53,1,1.2,1.81,1.81,2.81,0,.14.33,0,.22-.17a13.13,13.13,0,0,1-2.23-5.66,26.11,26.11,0,0,1-.34-2.92v-2.23a38.43,38.43,0,0,1,12.55,6.63c.68.56,1.35,1.14,2,1.81a14.32,14.32,0,0,0-2.44,3,28.71,28.71,0,0,0-2.55,4.56,38.63,38.63,0,0,0-2.74,9.87c0,.18.24.24.26,0a29,29,0,0,1,3.27-9.47,39.24,39.24,0,0,1,2.56-4.2c.47-.69,1-1.38,1.5-2.05.27-.34.58-.7.85-1.1a39.67,39.67,0,0,1,8.15,11.48h0a19.79,19.79,0,0,0-3.37,4.85,45.34,45.34,0,0,0-2.68,5.74,97.68,97.68,0,0,0-3.44,11.72.14.14,0,0,0,.09.19.14.14,0,0,0,.18-.09.17.17,0,0,0,0-.1A49.61,49.61,0,0,1,168,465c.87-1.81,1.81-3.63,2.73-5.33a52.8,52.8,0,0,0,2.7-5A37.58,37.58,0,0,1,176.68,468c0,.18.29.16.27,0a46.52,46.52,0,0,0-6.45-20.43c1.77.71,3.51,1.51,5.2,2.39a29.58,29.58,0,0,1,6,4.18C181.77,454.31,182,454.15,181.8,454Z" fill="#2f2e41" data-secondary="true"/>
<path d="M160.72,455c-.85,2.84-1.93,5.59-2.71,8.45a32.39,32.39,0,0,0-1.27,8.46h.13A82.49,82.49,0,0,1,161,455.13C161.07,455,160.8,454.86,160.72,455Z" fill="#2f2e41" data-secondary="true"/>
<path d="M178.94,448a15.77,15.77,0,0,0-3.82-2.71,24.77,24.77,0,0,0-4.4-1.56c-.16,0-.22.22,0,.25A17.33,17.33,0,0,1,175,445.8a31.08,31.08,0,0,1,3.9,2.39S179,448.08,178.94,448Z" fill="#2f2e41" data-secondary="true"/>
<path d="M130.14,413.71s2.75-33.61,27.74-44.49c20.86-9.05,32.81,14.34,18.11,28.7C164,409.53,144.86,404.3,130.14,413.71Z" fill="#0071f2" data-primary="true"/>
<path d="M171.32,375.72A105.58,105.58,0,0,0,160.2,381a79,79,0,0,0-8.62,5.72c.41-.85.78-1.81,1.19-2.57.65-1.3,1.35-2.57,2.12-3.8a36,36,0,0,1,5.43-7c.13-.11,0-.31-.19-.18a56.24,56.24,0,0,0-5.8,6.73,41.68,41.68,0,0,0-2.37,3.81,15.68,15.68,0,0,0-1.69,3.87l-.27.2a82.33,82.33,0,0,0-11.93,11.68,3.52,3.52,0,0,1,.22-1c.47-1.65,1-3.26,1.52-4.89a41.26,41.26,0,0,1,4.51-9.8.13.13,0,0,0-.24-.12,75.7,75.7,0,0,0-5.23,9.56,36.79,36.79,0,0,0-1.81,5,20.7,20.7,0,0,0-.82,3.37c-1.08,1.38-2.17,2.77-3.17,4.22-10.74,15.26-16.11,33.73-17.4,52.22a157.74,157.74,0,0,0-.29,16.56,102.87,102.87,0,0,0,1.47,16.62.3.3,0,0,0,.59-.09c-.1-4.85-.61-9.71-.7-14.49a139.27,139.27,0,0,1,.47-14.59,135.76,135.76,0,0,1,5.43-28.6,102.65,102.65,0,0,1,12.68-26.89c1-.22,2.1-.51,3.13-.76l3.75-1a37.34,37.34,0,0,0,6.95-2.55c.17,0,0-.33-.14-.23a22.43,22.43,0,0,1-7.06,2.44c-2,.38-4,.63-5.94,1.09a91.61,91.61,0,0,1,5.81-7.65,43,43,0,0,0,14.21-1,59.62,59.62,0,0,0,7.25-2.26c2.5-1,4.87-2.21,7.33-3.24.18,0,0-.34-.11-.25A42.14,42.14,0,0,1,156,395.82a89.46,89.46,0,0,1-13.48,1.11c1.81-2,3.63-4,5.56-5.89a65.6,65.6,0,0,1,23-15C171.57,375.92,171.48,375.65,171.32,375.72Z" fill="#2f2e41" data-secondary="true"/>
<path d="M151,375.83a37.58,37.58,0,0,0-3.06,4.47,25.26,25.26,0,0,0-2.21,5.22h.11c.83-1.65,1.54-3.35,2.37-5a25.34,25.34,0,0,1,3-4.55C151.29,375.88,151.09,375.69,151,375.83Z" fill="#2f2e41" data-secondary="true"/>
<path d="M174.18,387a26.48,26.48,0,0,1-5.13,2.14,47.06,47.06,0,0,1-5.21,1.39v.15a25.18,25.18,0,0,0,5.43-1.18,46.56,46.56,0,0,0,5-2.26C174.52,387.15,174.38,386.93,174.18,387Z" fill="#2f2e41" data-secondary="true"/>
<path d="M110.8,407.67c-.15,1.46-3.79-12.21-24.9-24.32-19.29-11-42.11-39.66-23.38-57.77C77.71,311.09,117.71,342.84,110.8,407.67Z" fill="#0071f2" data-primary="true"/>
<path d="M125.28,486a368.39,368.39,0,0,0-3.35-42.49,191.71,191.71,0,0,0-8.92-38c-1.58-4.46-3.37-8.82-5.31-13.13a30.05,30.05,0,0,0,0-5c-.11-2.15-.31-4.31-.51-6.45s-.39-4.29-.67-6.42-.7-4.28-.79-6.41a.13.13,0,0,0-.13-.13.12.12,0,0,0-.13.12h0a45.64,45.64,0,0,1,.75,6.8c.16,2.07.29,4.15.34,6.23s0,4.15,0,6.23v2.36q-3-6.3-6.43-12.37c1.43-8.77-.43-17.91-2.21-26.48,0-.18-.31,0-.27,0A73.88,73.88,0,0,1,99,364.39c0,3.62,0,7.24-.1,10.86-.51-.87-1-1.72-1.53-2.57q-4.11-6.74-8.78-13.13a20.36,20.36,0,0,0-.2-6.23,48.51,48.51,0,0,0-1.54-6.83,67.85,67.85,0,0,0-2.33-6.59c-.91-2.23-2.14-4.33-3-6.55a.12.12,0,0,0-.17-.07.14.14,0,0,0-.06.18,33.62,33.62,0,0,1,2.52,6.61,61.57,61.57,0,0,1,1.72,6.57c.45,2.23.81,4.45,1.12,6.7.22,1.48.34,3,.6,4.53a163,163,0,0,0-14.8-17.23c-.13-.12-.31,0-.18.2a196.21,196.21,0,0,1,21.48,29.29l.68,1.17c-1.17-.72-2.49-1.3-3.62-1.92L84.67,366c-2-1.07-4-2.18-6-3.28-1-.56-2-1.16-3.08-1.68A25,25,0,0,1,72,359c-.14-.11-.32.13-.14.22,2,1.12,3.82,2.79,5.79,4s4,2.48,6,3.62c3.75,2.1,7.83,3.62,11.54,5.78,2.55,4.47,4.92,9.05,7.1,13.78q-3.37-2.16-6.87-4.11c-1.48-.84-3-1.67-4.51-2.47a22.16,22.16,0,0,1-4.25-2.57c-.15-.11-.33,0-.2.2a40.36,40.36,0,0,0,8.13,5.65c2.72,1.6,5.43,3.12,8.28,4.51A161.42,161.42,0,0,1,109,402.81c8.89,25.17,12.15,51.92,13.7,78.47.48,7.91.71,15.82.82,23.76s-.33,15.81-.31,23.72a.21.21,0,0,0,.42,0c1-7,1.12-14.16,1.43-21.22S125.41,493.16,125.28,486Z" fill="#2f2e41" data-secondary="true"/>
<path d="M86.86,372a101.08,101.08,0,0,1-11.23-5.81A118,118,0,0,1,65,359.39s-.12,0,0,.09a90,90,0,0,0,10.23,7.24,106.1,106.1,0,0,0,11.59,5.54C86.89,372.26,87,372,86.86,372Z" fill="#2f2e41" data-secondary="true"/>
<path d="M93,343.49c-.33-1.23-.71-2.43-1.13-3.62a.11.11,0,0,0,0-.13c-.27-.69-.54-1.36-.83-2a1,1,0,0,0,0-.25l-.16-.38h0s.14.47.21.69.07.26.11.39a99,99,0,0,1,3.14,14.35.12.12,0,0,0,.12.12.12.12,0,0,0,.13-.12A49.26,49.26,0,0,0,93,343.49Z" fill="#2f2e41" data-secondary="true"/>
<polygon points="147.58 491.07 146.07 508.95 141.46 563.46 92.02 563.46 87.4 508.95 85.9 491.07 147.58 491.07" fill="#2f2e41" data-secondary="true"/>
<polygon points="147.58 491.07 146.07 508.95 87.4 508.95 85.9 491.07 147.58 491.07" opacity="0.2"/>
<rect x="81.04" y="483.9" width="71.38" height="17.15" fill="#2f2e41" data-secondary="true"/>
<path d="M305.13,159.86c-3.13,17.62-18.61,32-18.61,32s-20.83-3.82-32.94-17c-10.11-11-10.14-26-1-32,13.11-8.54,24.12,15.42,24.12,15.42s-3.62-26.12,12.05-26C299.66,132.46,307.74,145.17,305.13,159.86Z" fill="#0071f2" data-primary="true"/>
<path d="M352.05,117.84c-10.86,7.41-26.45,6.67-26.45,6.67s-8.68-12.93-8-26.08c.6-11,8.51-18.72,16.3-17,11.24,2.52,4.27,20.63,4.27,20.63s11.9-15.32,19.92-7C363.68,101,361.11,111.67,352.05,117.84Z" fill="#0071f2" data-primary="true"/>
<path d="M294.79,67.12c-4.4,7.52-13.89,11.52-13.89,11.52S272,73.39,268.7,65.33c-2.77-6.72-.24-13.6,4.94-14.8,7.43-1.7,8.42,11.1,8.42,11.1s2.74-12.53,9.87-9.83C296.91,53.68,298.47,60.84,294.79,67.12Z" fill="#0071f2" data-primary="true"/>
<path d="M568.22,156a34.82,34.82,0,0,1-6-19.31c0-24.44,26.84-44.27,59.94-44.27s59.92,19.92,59.92,44.27S655.28,181,622.18,181a71.89,71.89,0,0,1-41.34-12.26L560.17,174Z" fill="#fffefd"/>
<path d="M568.22,156a35.37,35.37,0,0,1-6.16-18.26A34.88,34.88,0,0,1,566.8,119,46.89,46.89,0,0,1,580,104.66a62.25,62.25,0,0,1,17.4-8.89,78.78,78.78,0,0,1,38.75-2.86,69.37,69.37,0,0,1,18.71,5.81A57.94,57.94,0,0,1,671,109.9a41.15,41.15,0,0,1,10.41,16.67,33.72,33.72,0,0,1,.2,19.67,40.85,40.85,0,0,1-10.16,16.84,58,58,0,0,1-16,11.36,77.27,77.27,0,0,1-38.21,7.06,76.32,76.32,0,0,1-19.18-3.62,63.92,63.92,0,0,1-17.46-8.73h.33l-20.7,5-.4.09.16-.36Zm0,0-7.86,18.11-.22-.28,20.59-5.43h.18l.16.11a70.58,70.58,0,0,0,36.22,11.77A80.62,80.62,0,0,0,636.47,179a68.53,68.53,0,0,0,18.23-5.93A55.64,55.64,0,0,0,670.22,162a38.86,38.86,0,0,0,9.67-16.15,32,32,0,0,0-.23-18.65,39.4,39.4,0,0,0-9.93-16,56.56,56.56,0,0,0-15.62-10.87,68.15,68.15,0,0,0-18.28-5.76,84.45,84.45,0,0,0-19.19-1.07,79.83,79.83,0,0,0-18.87,3.63,61.4,61.4,0,0,0-17.2,8.52,47.51,47.51,0,0,0-13.13,13.89,34.39,34.39,0,0,0-5,18.37A35.11,35.11,0,0,0,568.22,156Z" fill="#2f2e41" data-secondary="true"/>
<path d="M595.51,122.23h-3.46v11.61a1.2,1.2,0,0,1-2.39,0V122.23h-3.43A1.19,1.19,0,0,1,585,121h0a1.18,1.18,0,0,1,1.16-1.2h9.31a1.19,1.19,0,0,1,1.19,1.2h0A1.21,1.21,0,0,1,595.51,122.23Z" fill="#2f2e41" data-secondary="true"/>
<path d="M600.29,133.84V121a1.17,1.17,0,0,1,1.15-1.2h0a1.2,1.2,0,0,1,1.21,1.18v5.23h5.64V121a1.17,1.17,0,0,1,1.15-1.2h0a1.2,1.2,0,0,1,1.21,1.18v12.84a1.19,1.19,0,0,1-1.19,1.19h0a1.17,1.17,0,0,1-1.19-1.16v-5.25h-5.64v5.22A1.19,1.19,0,0,1,601.5,135h0a1.17,1.17,0,0,1-1.19-1.16Z" fill="#2f2e41" data-secondary="true"/>
<path d="M622,131.45h-5.28l-1,2.82a1.24,1.24,0,0,1-1.14.76,1.34,1.34,0,0,1-.4,0,1.23,1.23,0,0,1-.73-1.56l4.8-12.8a1.26,1.26,0,0,1,1.64-.66,1.22,1.22,0,0,1,.66.66l4.8,12.8a1.23,1.23,0,0,1-.71,1.56,1.41,1.41,0,0,1-.41,0,1.17,1.17,0,0,1-1.11-.76Zm-.88-2.39-1.81-4.68-1.81,4.68Z" fill="#2f2e41" data-secondary="true"/>
<path d="M630.71,133.84a1.19,1.19,0,0,1-2.37.29.71.71,0,0,1,0-.29V121.16h0a1.17,1.17,0,0,1,2.13-.74l7,9.7v-8.94a1.19,1.19,0,0,1,2.37,0v12.67a1.17,1.17,0,0,1-2.08.76.31.31,0,0,1-.11-.14l-6.95-9.63Z" fill="#2f2e41" data-secondary="true"/>
<path d="M645,133.84V121.16a1.2,1.2,0,1,1,2.39,0v6.23l7.05-7a1.16,1.16,0,0,1,1.64,0l0,0a1.21,1.21,0,0,1,0,1.68l-4.78,4.76,4.84,6.32a1.19,1.19,0,0,1-.17,1.66h0a1.09,1.09,0,0,1-.76.29,1.18,1.18,0,0,1-.88-.44l-4.69-6.15-2.27,2.3v3.09a1.2,1.2,0,1,1-2.39,0h0Z" fill="#2f2e41" data-secondary="true"/>
<path d="M607.75,147.94l-4.37,6.11v5.86a1.18,1.18,0,0,1-1.16,1.2h0a1.22,1.22,0,0,1-1.2-1.2v-5.86l-4.4-6.11a1.14,1.14,0,0,1,.18-1.6l.06-.05a1.14,1.14,0,0,1,1.6.2l.05.06,3.71,5.09,3.62-5.09a1.17,1.17,0,0,1,1.64-.27h0A1.2,1.2,0,0,1,607.75,147.94Z" fill="#2f2e41" data-secondary="true"/>
<path d="M621,147.78a8.08,8.08,0,0,1,2.21,5.43,7.93,7.93,0,0,1-2.21,5.44,7.12,7.12,0,0,1-5.18,2.33,7.37,7.37,0,0,1-5.33-2.33,8,8,0,0,1-2.15-5.44,8.06,8.06,0,0,1,2.15-5.43,7.29,7.29,0,0,1,5.33-2.32A7,7,0,0,1,621,147.78Zm-.28,5.43a5.52,5.52,0,0,0-1.48-3.8,4.66,4.66,0,0,0-3.42-1.54,4.71,4.71,0,0,0-3.52,1.54,5.61,5.61,0,0,0,0,7.59,4.72,4.72,0,0,0,3.52,1.55,4.65,4.65,0,0,0,3.42-1.55,5.41,5.41,0,0,0,1.48-3.72Z" fill="#2f2e41" data-secondary="true"/>
<path d="M632.77,161.11a6.27,6.27,0,0,1-6.26-6.27v-7.75a1.17,1.17,0,0,1,1.16-1.19h0a1.21,1.21,0,0,1,1.22,1.19v7.73a3.87,3.87,0,1,0,7.73.53,4.68,4.68,0,0,0,0-.53v-7.73a1.19,1.19,0,0,1,1.19-1.19h0a1.18,1.18,0,0,1,1.2,1.16v7.76a6.29,6.29,0,0,1-6.29,6.29Z" fill="#2f2e41" data-secondary="true"/>
<path d="M643.93,155.87v-8.78a1.21,1.21,0,0,1,1.19-1.19,1.19,1.19,0,0,1,1.18,1.19v8.78a1.18,1.18,0,0,1-1.16,1.2h0a1.19,1.19,0,0,1-1.19-1.2Zm1.19,5.24a1.19,1.19,0,0,1-1.19-1.2h0v-.43a1.21,1.21,0,0,1,1.19-1.2,1.2,1.2,0,0,1,1.18,1.2v.43a1.18,1.18,0,0,1-1.16,1.2Z" fill="#2f2e41" data-secondary="true"/>
<path d="M511.78,617.51s-28,3-30,4c0,0-33.32,6-47.44.13a9.93,9.93,0,0,1-6-9.07c0-6.07,3.34-15.19,24.82-13.11,0,0,12.64,2,16.64-13,0,0,3.54-12,10-11.83,1.89.05,4,1.12,6.41,3.83,0,0,9.55,19.22,19.55,3.61,0,0,1.53-8.61,6.76-3.61,0,0,2.65.75,2.45,11.37,0,0,.79,6.63,2.79,10.63C517.78,600.51,526.78,614.51,511.78,617.51Z" fill="#0071f2" data-primary="true"/>
<path d="M511.78,617.51s-28,3-30,4c0,0-33.32,6-47.44.13a9.93,9.93,0,0,1-6-9.07c0-6.07,3.34-15.19,24.82-13.11,0,0,12.64,2,16.64-13,0,0,3.54-12,10-11.83,1.89.05,4,1.12,6.41,3.83,0,0,9.55,19.22,19.55,3.61,0,0,1.53-8.61,6.76-3.61,0,0,2.65.75,2.45,11.37,0,0,.79,6.63,2.79,10.63C517.78,600.51,526.78,614.51,511.78,617.51Z" opacity="0.2"/>
<path d="M340.78,578.51l-4-62s-3.07-28.32,3.54-44.79A41,41,0,0,0,343.07,450c-.88-5.51-2.61-11.59-5.92-16.66l37.06-83.94,8.07,2.61.5,84.5s1,36-6,68l-8.65,74Z" fill="#f7a48b"/>
<path d="M359.66,234.34s-4.88,11.17-25.88,21.17c0,0-14,6-21,34s-4,19-8,26c0,0-7,13,10,16l2-7,59.5,25.79s11.5,8.21,14.5-2.79l25-88A11.55,11.55,0,0,0,416,252l-34.61-26.83Z" fill="#2f2e41" data-secondary="true"/>
<path d="M421.55,234.91,416,252l-10.22-7.35-24.39-19.48s11.39-7.37,11.89-6.52S412.33,231.31,421.55,234.91Z" fill="#f9b499"/>
<path d="M467,272.2v8l-53.21-13.72,2-6.93s2-4.39.51-6.19c0,0,12.41-3,34.45,8.6,0,0,7.75,4.21,11.4,7.4C462.14,269.32,465.26,271.88,467,272.2Z" fill="#f2947e"/>
<path d="M510.28,166a21.61,21.61,0,0,1-9,20s1,19,16.76,19.26c0,0,12.09.18,13.26-6.53a6.44,6.44,0,0,0-1.77-5.43c-1.75-1.88-4.34-5.57-.75-8.17,0,0,4.23-4.31,2.61-13C531.39,172.17,521.76,173,510.28,166Z" fill="#2f2e41" data-secondary="true"/>
<path d="M510.28,166a21.61,21.61,0,0,1-9,20s1,19,16.76,19.26c0,0,12.09.18,13.26-6.53a6.44,6.44,0,0,0-1.77-5.43c-1.75-1.88-4.34-5.57-.75-8.17,0,0,4.23-4.31,2.61-13C531.39,172.17,521.76,173,510.28,166Z" opacity="0.2"/>
<path d="M518,205.27a135.54,135.54,0,0,1-21.86,30.95s-18.4,22.29-19.4,30.29c0,0-1.29,12.62-14.64,2.81,0,0-22.35-18.2-45.85-16L416,252l5.28-18s5.51,7,13.51-7.25c0,0,4.28-8.34,8.63-19.79l1.5-4.11s34.36-.85,57.86-16.35C502.78,186.51,502.3,205,518,205.27Z" fill="#0071f2" data-primary="true"/>
<path d="M518,205.27a135.54,135.54,0,0,1-21.86,30.95s-18.4,22.29-19.4,30.29c0,0-1.29,12.62-14.64,2.81,0,0-22.35-18.2-45.85-16L416,252l5.28-18s5.51,7,13.51-7.25c0,0,4.28-8.34,8.63-19.79l1.5-4.11s34.36-.85,57.86-16.35C502.78,186.51,502.3,205,518,205.27Z" opacity="0.2"/>
<path d="M482.78,133.51s5.14-.62,7.07,4.19l17.24,6.18,14.08-6.58A23.38,23.38,0,0,0,525.09,117l-5.2-10c-1.11-2.13-2.74-4.94-5.61-5-1.77-.05-3.61,1-5.35,2.88l-5,4.57c-.74.69-1.4,1.45-2.07,2.2s-2,1.56-5.39,1.8a11.67,11.67,0,0,0-5.67,1.89,6.87,6.87,0,0,0-2.91,3.47S486.28,129,482.78,133.51Z" fill="#f2947e"/>
<path d="M475.78,88.51s-3.59,12-30.8,23.51l-1.15,10.82,11.73.67s12.22,1,19.22,5l8,5s5-5.73,5.34-17.8a26.49,26.49,0,0,0-2.9-12.62C482.92,98.49,479.35,92.08,475.78,88.51Z" fill="#f9b499"/>
<path d="M488.28,113s-2.5-11.5-12-24c0,0-5,13-31.29,23l-1.16,10.82s.95,21.67-19.05,12.67l-9.87-5.64-4.13-2.36s-7-3-6-13c0,0,0-4.42,5.7-7.57a17.61,17.61,0,0,1,4.3-1.58c1.87-.47,6-2.35,9-9.85,0,0,11.15-34.38,48.67-19.84a24.5,24.5,0,0,1,12.26,11.06C488.28,93,489.28,102,488.28,113Z" fill="#2f2e41" data-secondary="true"/>
<path d="M474.36,76.45A16.71,16.71,0,0,1,476,82.38a21.36,21.36,0,0,1-.19,6.13c-.22-1-.34-2-.47-3-.23-1.91-.75-7.07-.95-9Z" opacity="0.2"/>
<path d="M489.85,137.7l-5.07,22.81a171.61,171.61,0,0,0-27,7l-16.5,45.36c-11.5,29.35-18.5,22.64-18.5,22.64-39-19-46.5-32.07-46.5-32.07,6.5-50.07,38.63-73.57,38.63-73.57l9.87,5.64c20,9,19.05-12.67,19.05-12.67,28.06-.68,38.95,10.67,38.95,10.67C488.78,133.51,489.85,137.7,489.85,137.7Z" fill="#0071f2" data-primary="true"/>
<path d="M457.78,167.51c-8.9,1.12-15.67-6.51-16.5-14.93a41.52,41.52,0,0,0,1.66,4.22,17.23,17.23,0,0,0,14.84,10.71Z" opacity="0.2"/>
<path d="M489.85,137.7l44.43,15.92a19.11,19.11,0,0,1,6.64,4c2.76,2.6,5.13,6.45.61,9.94,0,0-8.08,8.92-24.87,2.65a32.32,32.32,0,0,1-7.89-4.4c-3.38-2.51-11.14-6.7-24-5.27Z" fill="#f9b499"/>
<path d="M487,93.11s20.75-3.6,25.75,2.4c0,0,6-6,18,6,0,0,22,21.22,3.5,52.11l-17.8-6.38,4.69-9.94s7.23-9.79,3.92-20.29l-5.2-10a7,7,0,0,0-7.44-4.13,6,6,0,0,0-3.52,2l-7,6.77s-1.68,1.74-5.39,1.8c0,0-6.43.66-8.58,5.36l.21-8.31S489.29,98.7,487,93.11Z" fill="#2f2e41" data-secondary="true"/>
<path d="M487,93.11s20.75-3.6,25.75,2.4c0,0,6-6,18,6,0,0,22,21.22,3.5,52.11l-17.8-6.38,4.69-9.94s7.23-9.79,3.92-20.29l-5.2-10a7,7,0,0,0-7.44-4.13,6,6,0,0,0-3.52,2l-7,6.77s-1.68,1.74-5.39,1.8c0,0-6.43.66-8.58,5.36l.21-8.31S489.29,98.7,487,93.11Z" opacity="0.2"/>
<path d="M512.78,95.51a14.55,14.55,0,0,1,4.92,9c-1.66-3.09-3.47-5.84-4.92-9Z" opacity="0.2"/>
<path d="M367.07,209.75s-16.29,4.76-12.29,18.76c0,0,3,8,25,18,0,0,17,10,18,3,0,0,5,2,5-3,0,0,4,1,3-5,0,0,6.32-.68.16-5.34,0,0-13.16-3.66-15.16-8.66,0,0,11.23,1.45,11.11-3.27a157.25,157.25,0,0,1-15.62-10.77S374.28,214,367.07,209.75Z" fill="#ed8a77"/>
<path d="M381.39,242.5c5.34,2.74,10.58,5.46,16.39,7-6.06-.17-11.86-3.12-16.39-7Z" fill="#f2947e"/>
<path d="M383.78,238.51c5.74,3.82,11.89,7.79,19,8-7.15,1.24-14.16-3.08-19-8Z" fill="#f2947e"/>
<path d="M386.51,230.87c4.48,6.24,11.47,10.6,19.27,10.64-7.89,1.45-16-3.52-19.27-10.64Z" fill="#f2947e"/>
<g opacity="0.2">
<path d="M344.78,330a.54.54,0,0,1-.22,0,.51.51,0,0,1-.24-.67l36.62-77.51a.5.5,0,1,1,.9.42l-36.61,77.52A.5.5,0,0,1,344.78,330Z"/>
</g>
<g opacity="0.2">
<path d="M386.51,348.8a.48.48,0,0,1-.2,0L310.58,316a.49.49,0,0,1-.26-.65.5.5,0,0,1,.65-.27l75.74,32.79a.5.5,0,0,1-.2,1Z"/>
</g>
<g opacity="0.2">
<path d="M379.84,269.79a36.62,36.62,0,0,1-6.49-.5.5.5,0,0,1-.39-.59.51.51,0,0,1,.59-.39c.23.05,23.2,4.42,37.83-14.11a.52.52,0,0,1,.71-.08.5.5,0,0,1,.08.7C402,267.69,388,269.79,379.84,269.79Z"/>
</g>
<path d="M316.78,324.51s-9-6-10-3c0,0-1.1,3.34,9,6.67Z" opacity="0.2"/>
<path d="M493.78,388.51a51.14,51.14,0,0,1-27.06-1.89,44.4,44.4,0,0,1-4.94-2.11,26.74,26.74,0,0,0-18,1s-24.17,4.68-42.22,1.64a45.42,45.42,0,0,1-6.78-1.64s-8,1-3-11,8.09-59,8.09-59l15.23-53.6s6.25,2.89,18,3.24c0,0,29.85,1.85,40.78,25.6,0,0,14.93,22.76,23.93,67.76l4.64,22.5S506.78,388.51,493.78,388.51Z" fill="#2f2e41" data-secondary="true"/>
<path d="M493.78,388.51a51.14,51.14,0,0,1-27.06-1.89,44.4,44.4,0,0,1-4.94-2.11,26.74,26.74,0,0,0-18,1s-24.17,4.68-42.22,1.64a45.42,45.42,0,0,1-6.78-1.64s-8,1-3-11,8.09-59,8.09-59l15.23-53.6s6.25,2.89,18,3.24c0,0,29.85,1.85,40.78,25.6,0,0,14.93,22.76,23.93,67.76l4.64,22.5S506.78,388.51,493.78,388.51Z" opacity="0.2"/>
<path d="M374.21,349.4l-42.43,96.11-28.43,50.22-39.57,66.78-20-17,10-51s7-30,22-41c0,0,13-8,17-35l24-94Z" fill="#f9b499"/>
<path d="M287.92,632.77v0a1.87,1.87,0,0,1,0,.25c-1,4.78-17.1-4.55-17.1-4.55-33-23-53-53-53-53a41.92,41.92,0,0,1,4.83-5.22,22.86,22.86,0,0,1,5.31-3.59c3.33-1.69,5.82-5.05,7.46-8a19.47,19.47,0,0,0,2.34-8.14c.53-6.67,6.06-5.09,6.06-5.09l20,17,.93-1.58c5.94,6.43,3.07,25.58,3.07,25.58,0,17,15,37,15,37l5,8A4,4,0,0,1,287.92,632.77Z" fill="#0071f2" data-primary="true"/>
<path d="M287.88,633.06c-5,29.78-41.1-5.55-41.1-5.55l-37-39c-3-4,8-13,8-13s20,30,53,53C270.78,628.51,286.9,637.84,287.88,633.06Z" fill="#2f2e41" data-secondary="true"/>
<path d="M416.18,626.57c-.81,3.64-16.4,4.94-16.4,4.94-37,0-67-18-67-18,0-6,3.29-14.31,3.29-14.31,2.29-4.32,1.71-12.69,1.71-12.69-2-8,3-8,3-8h27.36c7.35,2,10.64,18,10.64,18,1,10,35,27,35,27C415.72,624.67,416.38,625.69,416.18,626.57Z" fill="#0071f2" data-primary="true"/>
<path d="M382.83,644.09l-44.05-13.58c-9-3-7-5-7-5l1-12s30,18,67,18c0,0,15.59-1.3,16.4-4.94h0C428.66,655.65,382.83,644.09,382.83,644.09Z" fill="#2f2e41" data-secondary="true"/>
<path d="M476.27,613.13c-.3,5.12-4.49,5.38-4.49,5.38-8,3-10-8-10-8-1-13-6-16-6-16-3.12-4-6-4.85-8.61-4-.14-.38-.22-.58-.22-.58-6.83-56.62-27.17-88.37-27.17-88.37-28-32-18.22-114.36-18.22-114.36,18.05,3,42.22-1.64,42.22-1.64a26.74,26.74,0,0,1,18-1,44.4,44.4,0,0,0,4.94,2.11c-2.85,7.65-5.23,15.12-7.21,22.28a273.77,273.77,0,0,0-9.15,51.87,46.42,46.42,0,0,0,6.72,28.3c13.05,20.75,15.28,59.05,15.64,68.36,0,1.34.06,2.08.06,2.08l3,45.5.34,5.32a.06.06,0,0,0,0,0Z" fill="#f2947e"/>
<path d="M479.13,649.51a10.34,10.34,0,0,1-2.71.47c-4.94.22-22,1.28-29.64,5.53,0,0-29.26,13.8-45.48,3a11.13,11.13,0,0,1-4.9-7.73c-.77-5.56.87-14.59,17.42-19.23,0,0,12.05-4,22.51-26.5,0,0,4.33-12.57,10.84-14.55,2.57-.8,5.49.08,8.61,4,0,0,5,3,6,16,0,0,2,11,10,8,0,0,4.19-.26,4.49-5.38a13.16,13.16,0,0,0-.18-2.76.06.06,0,0,1,0,0l-.34-5.32s6.69-.5,8.87,8.5a36.93,36.93,0,0,0,5.15,13S503.28,641.78,479.13,649.51Z" fill="#0071f2" data-primary="true"/>
<path d="M505.78,579.51v2.61c-10,15.61-19.55-3.61-19.55-3.61-2.38-2.71-4.52-3.78-6.41-3.83l0-.17s-5.13-13.15-7.06-17.08c-.36-9.31-2.59-47.61-15.64-68.36a46.42,46.42,0,0,1-6.72-28.3,273.77,273.77,0,0,1,9.15-51.87c-.14,1.66-3.43,40,10.27,56.61,0,0,20,17,25,57l4,35S500.78,574.51,505.78,579.51Z" fill="#ed8a77"/>
<ellipse cx="441.28" cy="117.01" rx="5.79" ry="6.5" fill="#f9b499"/>
<path d="M369.84,211.6a9.31,9.31,0,0,1-3.36-14.66c3.86-4.48,12-10.16,29.3-15.43,0,0,5.77-2,21.39-2,0,0,27.8-9,53.7-16,0,0,21.89-9.47,37.9,2.27,0,0,9,6.73-6,20.73,0,0-19,16-51,16,0,0-31,1-42,6C409.78,208.51,383.4,217.63,369.84,211.6Z" fill="#f2947e"/>
<path d="M503.77,150.11a9,9,0,0,1,1.73-7.56,13.44,13.44,0,0,1,8.48-5.17c4.16-.79,10.27-.92,12.8,4.13,0,0,3,0,3,4a3.1,3.1,0,0,1,2,4s4.4,1,.2,9.5c0,0-5.2,11.5-9.2,4.5,0,0-6.72,8.27-8.36,1.14,0,0-3.83,4.9-6.24,2.88,0,0-2.21-1.93,1.69-7.47,0,0-4.09,5.45-7.09,3.45,0,0-2-1,2-5l8-8s1-1,.22-4a.3.3,0,0,0-.52-.11,38.86,38.86,0,0,1-4.79,5A2.44,2.44,0,0,1,503.77,150.11Z" fill="#f7a48b"/>
<path d="M518.78,149.51a38.12,38.12,0,0,1-8.91,10.55,59.51,59.51,0,0,1,8.91-10.55Z" fill="#f9b499"/>
<path d="M514.42,164.65c1-.68,1.52-1.9,2.21-2.89a86,86,0,0,1,6.2-9.27,40.74,40.74,0,0,1-5.56,9.72c-.81.91-1.6,2.12-2.85,2.44Z" fill="#f9b499"/>
<path d="M522.78,163.51c1.61-3.6,3.9-6.69,6-10-.82,3.86-3.28,7.22-6,10Z" fill="#f9b499"/>
</svg>